<mxfile host="app.diagrams.net" modified="2024-05-20T02:39:29.670Z" agent="Mozilla/5.0 (Windows NT 10.0; Win64; x64) AppleWebKit/537.36 (KHTML, like Gecko) Chrome/125.0.0.0 Safari/537.36" etag="EEJ3vc8G8jWo83EHhRzW" version="24.4.4" type="device">
  <diagram name="Page-1" id="Q-A9GvbI9XiWeBrl049A">
    <mxGraphModel dx="3000" dy="2726" grid="1" gridSize="10" guides="1" tooltips="1" connect="1" arrows="1" fold="1" page="1" pageScale="1" pageWidth="850" pageHeight="1100" math="0" shadow="0">
      <root>
        <mxCell id="0" />
        <mxCell id="1" parent="0" />
        <mxCell id="s5Hh8r9x0Z7aiqoJIuo2-2" value="" style="shape=image;verticalLabelPosition=bottom;labelBackgroundColor=default;verticalAlign=top;aspect=fixed;imageAspect=0;image=data:image/png,iVBORw0KGgoAAAANSUhEUgAAAYAAAAC/CAIAAAB4/pwkAAAABmJLR0QA/wD/AP+gvaeTAAAboElEQVR4nO2dQYjbVv7Hn/8stCxsJ7CQHMomlzJLk4DpLdPDhm4Xsrug2T10wkwgzMUJ8jGNF0qRmYYJycWzvQRm8OSyDMRu2MOufcgG1gPNxe6h4IEJZXwoaEgOHnqwWhZ60//wYx4vT9LTsyxLlvz9nCzp6b3fk62vpfek76/gui4DAIA0+L+0AwAAzC8QIABAakCAAACpAQECAKTGL9IOAITz6tWrO3fupB0FADFw/fr1lZUVvogroAzgOM4///nPH3/8Me1AAJiI58+fv3z5UlyDK6DM8Pe///3SpUtpRwFAdC5evCitwRUQACA1IEAAgNSAAAEAUgMCBABIDQgQACA1IEAAgNSAAAEAUgMCBABIDQgQmDmq1Wq1WmWMnZycNJvN5eXltCMC0wICBBKl4EFReGNjY21trd1uJxYep9frlcvlQqFQLpf39/cdx1GHCqIBAQKJ4rrucDikz6PRyNeQc3Nzc3NzkzG2vb2daHCn9Hq9paWlq1evuq67vb3961//+ubNm6lEknsgQCBpzp49Sx8WFhbSjSSIf/zjH4yx1dVVWiwWiySIIHYgQGC28B33OTk52draohui4+NjvrLdbi8vLzuOUy6XadjIcZzd3V26uatWqycnJ96Sv/zlL/kN4NbWFtVG9RcKhePj49evXzPGDg4OeADFYlGK03GcZrNJu+zu7ipCEuNfXl7e39/39ouvF7vfbrdpE+9yDnHBzHN4eMgYOzw8TDuQ2FD89gzDELfS526367rucDikrcPhUCzZ7Xb7/b5pmq7rmqZJBWzbZozRSm/JbrfLt4pNU839fp/K1+t1uk/0jdOyLPpsmiZ99g2Jwm40Gq7rdjodxli/3w9aL9bguq7Yixzw/vvvb2xsiGsgQBlgrgRI2iqVPDo6Il0Qt4oaYVkWP1299Ygla7UaY8y2bVrs9/ukBbwh0jLGWKPRkGSo0WhwHXRdt9vtGoYR1BAVFntHahW0Xupyni4UIECZBAKkv5WwbZv0RVGSLnO4ltVqNS5GnG63y2Wo1Wrx9XSdotk1flEjolgPAQKzBQRIf6vruvV63TAMulZSlyRxGY1Go9FIcZtDFziiBiniVwccYX2+BQiD0GCGKJfLOsX4VYmXZrN5+/btR48eLS4uatbz7NmzFy9erK+v8/WFQsFxHL545cqVR48eMcb40DjpkThKHcpgMBhr/ZwAAQKzQq/Xu3r1qroMnfOKYmtra4yx8+fP67RYLBZN01xbW9vd3b1y5Yq46dtvvxUXqUJ+00QfdnZ2SKeOj48V0lmv1xlje3t7VJhmvhTr54uUrsXAGOTsFow/iCiupGmpfr/Pt4pTXZ1Oxz2dNqrVaop6qLxt2/wWbDgc+pYU2+UjQQQV7nQ6NJY8Go1owJhmr1xhPo4wTfPo6CgoJL6SQ4NNvuulpzRHo5F4NLIOxoAySZ4ESP13yM838TTudDp0tpumSUokVcVnoNzToWXLsobDIc2I0Uy2tySHBoykIF3XPTo6oosUqlAqQ/VLm4Iasm2bClM8ivVS971HI9N4Bajghv0mQOq8fPny8uXLh4eHyIoRO47jfPbZZ2m98zFvXLx48fr161988QVfgzEgMNc8ffpUzJMHEgYCBOaRarXKX7z4/e9/n3Y48wsSE4J5hGa16vX6rVu30o5lroEAgXnk1q1bkJ5ZALdgAIDUgAABAFIDAgQASA2MAWWGy5cvpx0CABPx1ltvSWsgQJmhVqv95je/STsKAKLzt7/9TVoDAcoMf/zjH/EkNMg04jPQBMaAAACpAQECAKQGBAgAkBoQIABAakCAAACpAQECAKQGBAgAkBoQIABAakCAwBj4Jm7PNPnrUbbAk9BgDDY2NnZ2dlJp2nGcM2fOjGthXigUFFtd142lR2Js3hbTtV2PdtwSA1dAYAxSNG9/8eJFhL1cIbONmIyh0+nQylh6JMbmCvl2KLXO5PVPQrTjlhgQIJABHMfZ3d2Ntu/CwoJ3ZYw+0N7Yzp49q2g6SSY5bskAAQLRod83ubtXq1XK7Vk4hef55CuPj49pr2azSWt2d3dPTk6oGN/Ru1ir1drtNl/pjaRarVarVc2wqYaga5Og8Hz7qxObbxMzctzSJ4FsZGBCZioxofizodzqw+GQkv+Zpume5hqlzxzDMHhuT8MwKBMp5Rc1DINuVaS0ojyhoLddL5ZlWZalEzNVG7RVEV5Qf31jU0c7O8ctYZAZNZPMrABR6lHv+lqtxk4TELuu2+/3G40GfabBF35S0VnHt0pnS1wnkvp/V1yjDi+ov+MKUFaOW+xAgDLJzAoQYds2nTl8PeVH5gnXa7UaP6noz5/vSyPEPJHxVAWIR6sQC3V4Qf0dV4CC6pm14xY7EKBMMssCVK/XKbe6tJ5OmNFoNBqNxNsK9bmagAC5p6nfNVvR6W8EAcrEcYsdCFAmmVkBajQa7PSWQfqh0595o9FotVrdbpevNwyDCbcStGPQYMqUBEixVR1eUH/1BYiqyspxix0IUCaZWQFS/9Dpz1y6f6Fzj59adCvR6XR8K0legPTDiyBA3W6XRm2yctxixytAmIYHY8CnfukD/S0fHx8PBgOpAGNsfX2dl+H86U9/MgzjwYMHVPLZs2emafKncujco9p6vR6tLJfLvB6asfYGppiGdxxH+qDokTq8oP5KsYkHgdPr9ZaWlt5///2ZOm7pk5IUgjGYnSsg6ZdD9wuWZQ2HQ5rZ4YOmBA1zSJUMh8N6vU6VNBoNPsntuq5t23TCtFot2r3RaNB9h9iWN7CgafjQH7x3kyK8oP6K69WnG9U2O8ctYXALlklmR4DGQhpGBZrk+LjhFgwkx9OnT1dWVtKOInvM1XF7423458+f37lzJ61Q8sqXX3557dq1tKNIjmq1ev/+fcaYZVm3bt1KO5zMMJ/H7Q0Bchznu+++29jYSCua/HHv3j3fsc8cc/78ecZYvV6fn7MoFubzuPn4AXmzF4LI3Lt3L+0QkubWrVtzdQrFxXweN4wBAQBSAwIEAEgNWLJmhv/85z8vX75MOwoAovO///1PWgMBygyVSiXtEACYiLfeektaAwHKDIeHh5cuXUo7CgCic/HiRWkNxoAAAKkBAQIApAYECACQGjMnQMhUCcD8MPYgtG9yj1qt9s4778TyHGepVKJEItNoWsoSOeNJIwHIPWNfAbmeNCCu637wwQe3b99uNpuTB9RqtabXtJQlcsaTRgKQe6LcgvHEjxxyZnvy5EkMEU2taSlL5OwnjQQg98Q5BiTdOikyTIZu5ezv70uJH9VN62eJ9E0aGRSVODLVbrcLhcLy8jLlqwQARCZOASLfbM7Nmzd/+uknum9qt9ulUkk0plBv5bz33nv1ep3cJHWaljwxeZZIxtjm5iZ9oHs3aVEdValUWltba7fbvV7PMAzbttvt9sOHD/UOTB6Y3uRAjDUHOUOP20QEB2Wxia2trXnzYImOaI/41VdfMT2XaG89lmWJJrXqRI6aaR7FzJD6TUv9EhcVm/Sj8l1UHKivvvoqtJia6VmyUnIFnZJke65ZeCy4+3qEfaX4RWdocdNYwQ+HQ9M0vZbMasQm+v2+mFIZcEI8occVIL5I3triQVcnctRJ89jtdn2dcUObjixAkZNPKphxAaIhf83CUxKgSWpWxC9t0mxiNBoZhiEm5NJHbKLb7YpJ5QExLQFyT+en+P+Pt4BCCHy3SomQIjetL0BjxZwDAaKTLbsCpIjfu0mziVqt5ptdQwfv/1mtVotWVV6ZogBJK9WJHDXTPFqWJRXTaTqyAEVOPqkgYQHqdDrUi1qtJh234XBImcgNw6CEdnR4OaGVUzFejzeZzGg04oNxfOROZ6sYAN0I64QkxT8cDhuNBl2xersmVeg9Gu7pP5mU7U/68bDTx0FarRZd45imSZolNSHd0QN3qgJEw71SEtugRI6aaR7pf0y6EQttOrIARU4+qT5QiQkQ3XRQ/OKEgOu6w+GQckW5pydGv9/X7wVBhal+qlA6wQzDqNfrfKt0D6LYKoZh27ZXvNQh8fo1v+ugo0EHkKuq9NAZn9AQ2+p2u/1+n357UotUnhJ1ASIeAeJfDP8BHR0d0X8OH7oj7eBDM41GQ9QRxVapcvoW6Yer2TQN5dAiDSRzeeLnDF0bS4v6UZE2MY3/tyQFyHvK8VsA0iNxk++f9lj1Hx0diV/N9KYdxuqyjgAFHQ36IY1Vv2L2g34kuAsTiUGAmB/05yZdkCsSOSq2itW6b16QazatnyXSmzRSMyppUX24EhMgaRBdDE/K8yt1RDMMb2FxzfSmHfRDEhcVm/SPhn79mmvmnNhuwYAmSQoQ6SldQdBn/vcbdCbEKECTbw2adtAPSVOA9I8GBChekBk1zxSLxVar9fr160KhUK1WG43G3bt3xQKDwSD2RvnzL3RZIT3RrrmVWF1dtSxraWkp6LH4eJnG0QDjAgHKD+12+3e/+93du3dd1221Wqurq3wT3Vfu7e3RE7oRnvT1cnBwwBi7evUqLd64cYMx9v3339MiNcRTDKu3ciqVimEY006NGXQ0aF4s3oeYpfk4ICNeDuEWLHZY4oPQIqZp0vCW9IYKO53rkYbh1VBhmhakiSRxrylNO+iERPHzeqgJxaagoyHNgrnBExpeVwapCRezYH5gDChpkhQgegPAq0G01bZt+jcWn9/xDsOr4c8ZmabJH1DgxD7tEBqPGL9Uj2JT0NGgkuIgVNCEBq9NGkcXmyDBwnNAIhCgpElSgI6OjqSJSJopn7D1uaJWq8U1cW5ZFubgJTAInVuazebi4uL58+fFlefOnZMsCoCaUqn09ddf93q9Ces5ODg4ODgolUqxRJVjfCxZ//3vfycfB5iQJ0+e/PTTT9euXeMaNBgMvv7661h8cueHhYWFx48fl0qlzc3NYrEYrZLBYLCzs/P48eOFhYV4w8sfPgL017/+Nfk4wITs7e09e/bs4cOHOzs7jDHLsj766KOx1Edt+eYGPIM6VVIJ6ezZs3t7e48fP44sQO12+969e173TuDFR4D+9a9/JR9HXklMzRcWFlZXV1dXV7e3t6PVkIrEqEkrpIWFBekRqrGYZN95w0eA/vKXvyQfBwBgDsEgNAAgNSBAAIDUgACBhJiRnLf8xYsgB/uZJZde9xAgEILjOOrZKE02NjYos8jkVUXm5ORkY2PD145jXOI6LPr84Q9/uHnzZjJv6iYGBAiEEFf+2MjTc3HhOE6pVFpfX19cXGSMbW5u8tRMEUg+rW6xWPz888+DElhlFAgQUJGn/LH0aM+VK1cmryqtw3LlypV333338ePHyTc9JSBAuWJ/f395eblQKGxtbUVLRSsxVv5YfSi7bLlcFvfVT0tbLpcpLS2V54u8/NbWFmWv3d/f5ysrlcpHH33krTM07S3VRiH5Ztllp5JEi9VqlYIPrVnqsniIfHvBGFtZWalUKvm5ERNfDMPLqLHDZsOU3g1zjFfg/Z1MWBVFSC/KipYdQdXyIRuyjqe3zE3TpHqklASahvOig73oMO+tsFar0V6j0Ug0jZYOCxl3DIdDcXd1zVSAZwHi2TUUvXAz7vKBt+GTJkkBkk4JJliyqj3hx6o2xqrExUnS0oqL0QznFRWKUZERh+8ulmX55mUJDVXsMjf3COqFm3GvewhQ0iQpQApTerUnvBrfv/pYqtKPUF+AohnOhwbmtTfyVui6rm3bZKuoU7MiK2RQLxRNZwIIUNIkKUBjmdLr/4hDf/2xVBVZIELrmbD+o6MjLgfidYe3wnq9bhgG3Vrq1Kw4bupDmicBwiB0flCY0ut4wmsSY1XTqzZGw/nFxcVWq0XZByuVSpCXdrPZvH379qNHj2iOXwfqMllr+zIPtvkQoPygMKXX9ITXIcaqplFt7IbzhULBcZxisbi9vd3v9yuVim+xtbU1xphkCKeGBGhnZ4eiOj4+LpfL6l5w8uN1L14O4RYsdthsmNKrHePV6OePVSPZtkvZZfVd64Mc5scynBf3Uqe9ZYxZlkU70hCP72GhRdu2+S1YaM08vTX/snh236BeuJgFA2ORpACpTenVjvHqaple/lg1YlTeRUW16h299egYzrMAfOsnlWFvjgEpsuzSjBjPJa/uMoVqWRZXH0Uv3Ix73UOAkobBlH5miNFwPkUy7XWPQejcAlP6UOIynE+R/HndQ4BywpMnT3Z3d8XH/AeDwdOnT8Wh6DmHDOcfPHigmHiaZXLpdQ8Bygl7e3u/+tWvHj58yF9HevXqlY4pfUHJWDHEWNWUIMP5//73v2kHEoVcet37eEKDLBLZlN6Nz/g9xqqmx4SG8ymS0bDV4AoIAJAaECAAQGpAgAAAqQEBApknXnv56ZnVB9nyz7NPPgQIhJC8+3oo8YaUWAd9bfnn3SdffCoRT0LHDkvwSegpQW9RpdJ0EPGGlGQHpZOO3oDjL4hMSCrfFPmoab6OgyehwXjMoCl9vCGl20H45EOAcsUsm9KP6y0f1IoUEq+21+t5n3skX/dCoXB8fOzrGx9UW2gYasN537a8BwQ++T4PIn7xxRcRKgKp0263l5eXu91uq9VqNpvnzp2j9a7rMsZu3rxJDqcnJyelUqndbu/t7YU+1L+5uXn//n325kOG0aqikoyxg4MDuu9YWlpijK2vr6+urn744YcXLlxgQvqwoFakkJaXl6naVqvV6XQ+/vhjy7J4wq+7d++ORqNPPvnk/Pnz5XJ5Z2dnOBz+/PPPFy5c+OGHH7a3t4NqC+0s706v1zMMw7btCxcuvPvuuxT/Z5995m1LOiDffPMNY+y9996Tjo/42bfyra2tlZWVu3fvOo7DHWC935RvDOqaqb/FYpEqKZfL1WqVDiZ1/8aNG67r7u/vf/zxx/1+v1gs8i588803EUayCuIP6/nz53fu3Bm3CqDmyy+/vHbt2iQ1vHz58vLly4eHh5cuXVIUo/89/oUWCoVarUaPz9IvZjgc0oP8vV5vaWmp0WjovCkmVRtjVYpFdSuKHavV6v3790ejEQkinaJ0ClWrVS4E4i5TCiO0LQpVPAE1oyoUCjykk5OTc+fO+e4Sob/NZnNtbU3s74MHD2hoiTaJe3GhdxznzJkz/Mem4OLFi9evX3/jEmfsQSeQOPNgSj9WwIodRWNs13U7nQ5PaEOM5Rs/iVV+aFve8mNFlUWf/BA/IDCbzIMpvRvTyem6Ljkr0meezYaY3DdeP4zQtiJXnl2ffAhQJtGfhm+1WvR3x9PaEdw/lK9hb2bIU+A9veOqSrGobkVdD1kgdbtd27ZF61JaT55tmidk5DB02oosQAT55LPgv5nI/ZWuGcVikm2jIjxfIECZRD8zatDjGPycpEW6leh0OjqtB53ek1cVegIHtaKuh9xXTdOUblI0hSCWMHQ+01+FToTeTXwvutSNHI+0SJa4pmlS/bZtc7WlTZZlcWdu6eJLutj0BQKUSXJmSq/jLa9uRQxJ2pEgN2XJutTXN15dm75VvmQ4r/aopzJz6JMPAcok82BKLy2qWxFD8u7IC0j3C76+8aG1RbPK1/Gon0OffK8AvTEND2YTzWn4wWDw9ttvi7bQg8Hgt7/9Lb7imYXeQc2601i1Wj1z5oxOL7zT8HgSOifAlD6LwCcfApQTYEqfReCTDwHKCTClzyhz7pOPMaAMoDkGBMCMgzEgAMAMAQECAKQGBAgAkBoQoJwQZHieOvPsuA5CgQDlBF/D8yTxdUSfd8d1EAYEKCeMm5E5dl68eCGtcRynVCqtr68vLi4yxjY3N7lRYSz1T5tisfj555+XSiVcB00PCBCIAV9HdDiug1AgQLlFbR0fwb5eeqRQXPQ6osNxHWgR+gIrSJ2x7Dj4omEY9XrdPfVYEJM3kREEvYctviym3pG/LE7F+KvVvq1LXhN8GEj8TAFQPfyt/VqtRnuNRiN699q3fvLiGg6H4u7qmqkAt60xTZN/pp6ShVun02GCKZe+1wQIBXYcmSSCANFZxB0SyDCBeyRKJzMTXB3G3TFIIETtCC0sbRJ9PxT1+zoTKmomqRW7xp1baZO4F9cmcsyRrIVANCBAmSSCAKnd1CPb1+sLkLSoXzi7jusgFAhQJokgQOrzP7J9fQIClF3HdRAKUjPPC3QOS0OndHHBGCsWi61W6/Xr1zSC22g0uJuUescEWFxcbLVa5LheqVToIUYvzWbz9u3bjx49ojl+HahrCuOLwWAQIWAwESlJIRiDCFdAajf1yPb10m9GXJQ2zaHjOggFt2CZREeAxjJ19/4PadrX06UQWQXT+DR7cwaKn7pz6LgOQoEAZRIdARJPHlqjNnWPZl9v2zbtSCckTV17LdDduXRcB6HAlD6TxG5Ilox9/bw5roNQYEgGkrOvh+M6CAUCNHckZl8Px3UQCgRo7ohsXx+BOXdcB6FgDCgDwJQe5AOMAQEAZggIEAAgNSBAAIDUgACB+JmeQ75mzXDCzwoQIBA/03PIL5VKoTXDCT9LpPFANhgPzZdRZ4rp/brUNdO7bPwVkAmhN9piqUofckoLels408COA+QcOOFnCwhQrgjykz85OWm32zR0Ql7u5XJZsr/xurKHeryHwussl8vSjmrPfPVWzv7+vuiNDyf87JHStRgYA/1bsCA/ef51073JaDQSjTXcAFf2UI93BeKO3AdDfKdc4Zmv3ir+bm3brtfrvFo44c84sOPIJJoCNJafvOTEGuTKLu2l/6cllSTXHtKU0FA1O9Lv9/lKAk74Mw4EKJNoCtBYfvLSmiBX9rgESFozlme+b0e63a73WkzdqKIvcMJPBghQJomWF8xVnn6hW33XxyVAk2+VrGMjVCsuwgk/GSBAmURTgLzjLEwYjPA9OaWtkkmgd68JBYg3pw5VsyN0wyUViyZABDnhs+AcIaR6NFqkWTP1hQ/ueGPzHvOg8HIApuHzzI0bNxhj33//PS3SA7UrKyu+hWkK7M9//jMtkgfr3t4e7cWfJI4LsgS6evWqTqiaHalUKoZhbGxs8DV0ZxThSeJCoeA4TrFY3N7e7vf7lUrFt9ja2hpjTPJyU0MCtLOzQ1EdHx+Xy2XaFHrMSWFzTkpSCMZA8wpIx4ieRm1proePqrgBruxqj3c1dOJROg2a7hFvbdShKrZKIdFsER/bhhP+jINbsEyiPw2v8JOnlXxyvV6vSwOuXld26Y9q3P+tTqdDbZmmyRP76ISq2CrFQPNlfBFO+DMOTOkzSSyGZPQoXe6/bjjhzzIwJAM5B0742QICNBeI72SkG8m0gRN+toAAzQXnzp2TPkxIQUksTUQGTvgZ4hdpBwCSIPahnxkfS1pYWMjoAEpGw44MroAAAKkBAQIApAYECACQGhgDygyffvrpO++8k3YUAETn1atX0hoIUAZYWFj45JNP0o4CgEm5du2a9DAtnoQGAKQGxoAAAKkBAQIApAYECACQGhAgAEBq/D8j8KmS1rRdwwAAAABJRU5ErkJggg==;" vertex="1" parent="1">
          <mxGeometry x="80" y="270" width="384" height="191" as="geometry" />
        </mxCell>
        <mxCell id="s5Hh8r9x0Z7aiqoJIuo2-3" value="" style="shape=image;verticalLabelPosition=bottom;labelBackgroundColor=default;verticalAlign=top;aspect=fixed;imageAspect=0;image=data:image/png,iVBORw0KGgoAAAANSUhEUgAAAcoAAACACAYAAACLKCliAAAABmJLR0QA/wD/AP+gvaeTAAAdzElEQVR4nO2dT2gb6fnHv/qxh5bSOtDiHJJ4oSxeQgze09ZJoWHDwrJbRqdkEwdCL24YQQst9qUg4YSE9tAx20PARvZlMWRkOyeJZVlYG7LQ2C3sIoMdkA8BOXFhBC3SQs/v75A+k1ej+SdZ0sjW9wMCzfu+87zP+4z0PvO+7zPzppRSCoQQQgjxY///ktaAEEIIGWToKAkhhJAQ6CgJIYSQEOgoCSGEkBDeSloBQoaVjY0NrK+vJ60GIUTjs88+w/nz55vSOKIkJCH29/fx1VdfJa0GIQTA999/jydPnqDRaLTkcURJSIKcP38eGxsbSatByNCzv7+PiYkJ3zyOKAkhhJAQ6CgJIYSQEOgoCSGEkBDoKAkhhJAQ6CgJIYSQEOgoCSGEkBDoKAkhhJAQ6CgJIYSQEOgoCSHkGNRqNRQKBaTT6aRVIT2CjpIQ0nd2dnaQyWSQSqWQyWSwtbWFRqOBVCqVtGptMz8/j+npaZRKpab009TGYYeOkhDSV3Z2dnD58mVcvXoVSiksLi7ipz/9Ke7cuZO0ah2xuLjYknba2jjs0FESQvrK559/DgC4deuWmzY5OYkHDx4kpVLXGYY2DhN0lISQvnJ0dAQA2N3dbUqfnJz0LV+r1bCwsIBUKoV0Oo2tra2m/EajgUKhgFQqhVQqheXl5RYZfmVqtVpTHfo6Y6lUcus7PDwMlJVOp3FwcHDsNoa1oVaroVQqIZ1Oo9FoIJPJIJfLxbZPUH47bR56FCEkEebn59XFixeTVqPvlMtlBUABUPl8XtXr9cCyjuMowzCUbdtKKaU2NzcVAFUul90yhmGobDbrHpum2XQsZfL5fJNMwzDcug3DcHXa3t5WSilVrVYVAGWaZoss0zTdc23bds/tpI1RbfDqVi6XXZ2i7BOW306bh4G9vT0FQO3t7bVk0VESkhDD6iiVUqpSqSjTNN2O2rZtX2ciTkgHgOtEJN9xHDd/e3tbGYbhHotz8JaRenW5fnXpacViUQFQlUrFTavX677nttvGsDaIDO/5ce0TlB+nzcMCHSUhA8gwO0phe3u7yZkUi8WmfH3U4/3o+WGIfB1xbn7OSMeb5icr6Nx22xhGkPy49gnKp6N8Ax0lIQMIHeUbZATldSRRnXacTj2ojDc9jtOIK8uPTtt4nHo7yaejbHWUDOYhhPSVVCqFRqPRlDY1NYVHjx4BgO+D+34BMwBgGAaA1qAZvzJ68I5gmmY8pduknTbGaUMUQfaJm0/CoaMkhPSdb7/9tiVtbGwMwBvHAQD5fB4AsLq66joeieLUyy4tLbn5h4eHyGQyrozbt28DAF68eOGmSdkbN260pbfoE8epxW1jnDZE6RNkn6h8EpMkhriEkOGdesX/pvY2Nzfd4JR6ve4GnugRrY7j+K6vVatVN9+7DmeaZkuwjUS5SsCMbdtNkZ16PbpOkibnSVSoYRiuDhIsJHV30sawNui6eYljn6D8uG0eFrhGScgAMsyOUqnXUaH5fN7tmLPZbJODE6rVqspms64DEScgOI7j5gfJcBynqS5vBKrXkQSliT4SnGOaZtMjGOJc2m1jWBt0HfTgo7j2Ccpvp83DQJijTCmlVIeDUULIMbh37x7W19fx/PnzpFUhZOjZ39/HxMQE9vb2cOnSpaYsrlESQgghIbzlTXj16hWePXuWhC6nhitXruD8+fM9kb2+vt4TucSfCxcu4PLly0mrQQhJkBZH+ezZM9y8eTMJXU4Na2tr+PTTT3sim9emv1y/fh0bGxtJq0EISZAWRylw6bIz+rHXXC8dMXlDu48OEEJOJ1yjJIQQQkKgoySEEEJCoKMkhBBCQghcoySE9J4XL170ZV2bENI5dJSEJMjZs2fx17/+NWk1CBl6Xr58ibm5Od88OkpCEuRHP/oRI5gJGQD29/cDHSXXKAkhhJAQ6CgJIYSQEOgoCSGEkBCO7ShTqVTTZ2dnJ7Dszs5OS/njkMlkGDEYwNbWlmvjXC7nW8Z7LXplS796UqkU0uk0lpeXfXeeJ4SQQeHYjlIphWq16h5//vnngWX1PMdxjvWavMPDQywtLQGIt9v4sHHt2jXU63XYto2HDx/6OkulFBzHAXD86xGGXo8cK6Xw6NEjHB4e4uzZszg4OOhJ3YQQcly6MvU6NjYGALAsC0tLSzg8PGwpc3h4iHfeecc9Hh0dPVadGxsbKBaLAIB//vOfx5J1WhkZGcGtW7cAAA8fPkShUGgpI9fhuNcjCj/5Y2Nj+P3vfw8A+Oyzz3paPyGEdEpX1yg//PBDAPDdpuvZs2duvrCwsNA0FbewsOCb53W8jUYD9XodhmEAAO7evdtSX61WQ6lUQjqdBgAsLy8jlUohk8k0jV7iljvpWJaF6elpX2fpR61Wc69BOp3G1tYWDg8PW66XN02mb8Oun444UJkdAF5fX7kOMnXsnZ7d2tpCOp129fCbvvVrAyGEtI3ysLa2pnySI5FzTNP0Pd80Tbecnr+9va0AuPk6hmEox3Fa0m3bVuVyWSmlVD6fVwDcY10f+WxvbyullKrX665+lUqlrXLt2GFtba2tc3otX+ydzWYDbaXjOI4yDEPZtq2UUmpzc9M9r1qttlxDpV5fKwBN18vv2HtevV5vuf5ie8dx3Pr0/GKx2HS9bNtuuo5RbYjL9evX1fXr12OXb5f5+Xl18eLFnsknhMRnb29PAVB7e3stWV2PepWtifSgnt3d3cAti6ampnynbHd3d3H79u2WKbtGo4GnT59icnISAPD+++8DaJ1+Vdp629TUFIDXU5GmaQIASqVSW+VOA3NzczAMA++9917oaHlrawulUsmdtr127RoA4MmTJxgbG0M+nwfgvzb84sULAMDBwQEsy/KdcpXzGo0GLMsCAPzmN79x83/2s5/BNE2Mjo660/r6iFNG/3K9RE/LstzrGdYGcnqo1WooFArub6IdcrlcYKAbITpdd5TSIemBO0+ePHHT/ZAp2a+++spN+/rrr3HlypWWst9++22T0xWHGdehSfmgNzC0W+4kMTIygpWVFQCv2xUUbfr48WMAaJlOffjwIQDg6tWrAF5fI+C1Uzx37hwA4IsvvgAAVCoV/PKXv/SV/9577yGVSuHMmTMAgHK57Do9AHjw4AEWFxdxeHjYNB0vyE2MF/1aRbWBnA7m5+cxPT19Im9oG41GVyLNg6LKgz7dwqt/r+s7jm7HxjvGPO7Uq1JvpsKq1apyHMed/pJyfvJluq1er7tTn37IFJ/fxztNGlSXNz1uuThggKdehXK5rAAowzDcqU9v+ah269dLpsL1NNM0W6bN27FnPp9XhmGoSqXScp7oL78rObYsq6O6guDU68mgG9c6CWQJ4bjo/wU9zStb+uVu4ae/9CfSDyRFJ7bt69QrAHck+OzZM2xtbfmODL3IKOHLL7/EN9980zQVJ+zs7OD27dvu4wXyKZfLAIDvvvsuto5Bo5JOy50kJicnUSwWUSqV3KlPP8KmZz/55BMAr0f4jx8/xuTkpJv25ZdfAug8krZQKODu3bt49OgRxsfHA/U/Ojpyg31s28bs7GxbbSAkKSRgrVvIEkMYH3/8cdfqC9J/ZGTE93s/6bZtAfRmRKnUm8AR/S5fygXJlxGJYRiB+UF3KYZhtJznV5eMUIrFYtvl4oATMKIU9CAYHQmQymazrr0dx2m6lvqdYz6fb0nz3uGKHnF+W95y3uNisRh5txqnDVEM2ojScRxVLBbd37m00TTNltmUer3u5osdvCN8y7Lc6+c4Tsu18cvXg7nk/+1NEzlyvpwneum/O5Ht10aZmchms03tkvODZhzi2tK2bdeW3mMZkRiG4eoe1/5eO/ilSf/oV9ZLNpttsoEX0U8nSKZeVv4P0s7Nzc0WXUWGNy1Mf+/xINtWJ2xE2RVHKX8i/Qcv02F6lKGU85YVJAJWOl4d27ZDfyxiHL9pXkmr1+sqm80GOtSocnEYNEfpd210xG5+53g/3j+k/Mn0ayzy/DrusGuvI9Pr1Wq1qSOU8/x0kz+VlInbhjAGzVHq7YiK0I6KHBYHJzK8v4Ow/ONEPhuG4f6/JTJZnKIuQ9ooU/r6+foNc9DNXhR6PX716u30RuxH2V//7Ql+Nourd5Sj9CNKdlRUuDgq/f9kGEbTfz2oDm/6INtWp6eO0q8zEvQfeFDn5kXuEsPq8HZ2QR2ifC+Xy+7FyufzLaORuOXi2mNQHGUceyulfG8IqtWq2zmapunrYMReOnKzE6VH2G9MbrJkFJTNZpt00K+Tn7Nspw1hDJqjVMq/A/BboxWbBZ3ndWDeEWVUvt9jWXJNpKOrVCpNOklnrMuV34vfDa73/ycjEb1/0G/A2iVO5xqnTNw18m505nGJku23Xin/OUG/2bIsK3bMQZy2+6Ulbduejyi7RVgQTyfENVY3f7CD5ChPK5VKxdfpyeizW5wURxmWXq1Wm6ZABekEbdv2vSGMyhdbSwdWqVTcc6SzLRaLrtPUZeqIo9NvuILaEvSMdtKOstuyukGU7LCgSEFujvwGL2F1dNNRxi03VI4yn8+78+TdgI7y9OG39inI+lW3OOmOMixyuFKpNHWW3rXbqHyl2o98Pk5H2El6FMPsKOPWLSNP/YYnSsZpdJSJb7OVy+WaXnUW9rxlO+jPCIbtThG3HBkMHj9+jOXl5ZbX4h0cHGB9fT1W9N9pRY/QjoocHh8fR7FYRLlchmmamJuba3pmNSofaD/yWV456fc/Ow3R5SexDWFR4bVaDUdHR7AsC5cvX060f0zctl7X2e8Rpax1+AXwHAcETCd0Wq6dejmi7B0yepGRC/B6qq+bMxHCSRlRxonk9jvWp1RlLShuvlLtRz77jU6kvH79gv6LUa+rbJcoG8UtEzeSPo6sbhElO05UuHyv1+tuEFWcOuK03S8taduemKnX0wAd5elhkB1lVIR2nMjhbDbrrvXKWqZeT1i+0G7ks0S5ih5y0yP4RTUKEqCnP1YgAUKA//uig/BG4OvH4jj8IrXj2t8brSlBS7qeepRw2GNL7Ua9Rj1d4C2jf6rVqtsm/UZJbKHr4ae/3wsHBtm2OnSUfYSO8vQwyI4yKkI7KnJY70QA/+edw/L1euJEPguO4zQ93+kNFtI77aBobOkoZQ1UHnOIeuzI276wj18ZPS3K/tVq1c2X0ZBXT+81CqIdRxnWHi9BUeF+5/nJ8+ofZdNBtK1OmKNM/U9Bl/X1ddy8eROeZBKTVCqFtbU1fPrppydSPnmDvFN4Y2OjJ/Lv3buH9fV1PH/+PPY58v5K/j+TgfbvHUnbdn9/HxMTE9jb28OlS5eashIP5iGEEEIGmbeCMi5cuNBPPUgbZDIZ3/eaku7y73//G7/+9a+TVsPFG6Hd6bt0SWfQ/r1j0G0b6CgJIYPF2bNnm75z+q+VuFsrdWI72r93DLptAx3ly5cv+6nHqaEf+68tLi5yjbIPBG02nhSD1nkMIr20Ee3fOwbdtlyjJIQQQkKgoySEEEJCoKMkhBBCQqCjJIQMDblcDrlcLmk1yAmDjpIQQvpEo9HoSsCfbCQR99MtvPr3ur7j6NZN6CgJIUPDgwcP8ODBg8Tq/+abb7omy7ZtKKXcj6Cn2bbdtfqAVv2VUqjX6+5xvV5PLIK1m7b1QkdJCCF9oNFoYHl5uWvy4mwp9/HHH3etviD9R0ZGfL/3k27b1gsdJSEnBL+praDproWFBaRSKSwvL6NWq7Xk12o1t0w6ncbW1pabXiqVkE6n0Wg0kMlkkMvlUKvVUCgUkE6nAQClUsk9V98bVDos0UnOFdl+MjKZjCujUCi0pEXpHBdv/XHapNsDgNu2TCbTtJdjnGtjWRZKpVJTXhBRa6nVajVWm0dGRprKBtnQb+rUm9aO/oNs247wvia9G7uHOI6jbNv2fft/J+hvz48rO6qc7IxgWVbL2+mPA7h7yKlh0HYP8duCSrae0tMsy3J3gpCtivR8fccNpd5sVaXv2gC83jeyXC4r0zRb0vW69e2tZGcPx3Fa8nUZsi2X7DRimmao3DCd46LX7z0Oqlvy9TL1er1lq6e418Z7HES7W2vFkR1lQ9nVRXbbkPK6jYPq8KYPsm2D6Ps2W/qmut1A/9HElR1WznEcZZqmqlQqbufQzhY9YdBRnh4GzVEqFX/TWv33LB2NIBsoe2XIf0zkeW8g49Qt23mF6RYlwy8tSue4dKKPXxnZxsm7h2cnsrpFlOw4NtRvdCzLaukX4zrKuGmDZNtE9qNM8gcRVk42j9V3Wd/e3laGYXRlZElHeXo4qY5SOjvvXo+Cfrfv/QTVEbduQTZ67pajjNI5Lt1ylN2W1Q2iZMexodxUGYbRsvF2WB3ddJRxy/XTUQ7dGuXKygomJycxNTXlpk1NTeHcuXNYWVlJUDNCusMf//hHGIaB6elpnDlzBgsLC035spajtOhI+XSD5eVl/O53v4NhGF2RB/Re52Egjg1HR0dh2zZKpRL+85//JKXqwNFzR6kvHnsX6OMs0noXhYNoNBpuIEA6nW5aDNZ1mZubwwcffNCSd+PGDczNzTVt90LISWR8fBzFYhHlchmmaWJubq7FWQLw/Y8cl0KhgLt37+LRo0cYHx/vuvxe6HwcTNNMWoW2CbNhrVbD0dERLMvC5cuXE+0PB8m2PXeUL168wOzsLBzHwdHREd5++23X+I7jtJT3RnPNzMxgenravRsK4s6dO3j69Cnq9TqKxSK+++67ljL/+Mc/AADvvPNOS56kSRlCTiqpVAqNRgOTk5NYXFxEuVzG3Nycm5/P5wEAq6uraDQaAN7c0B6X6elpAMDY2NixZen0UudOEGfzySefJFJ/J8Sx4erqKmZnZzEzMwPDMDA/P993PQfStt7J2F6uUVYqFQVA5fP50HLetKjjYrGoADTNqdfr9ZZy3ug/HSmvLyB3ArhGeWoYxDVKb0SgRI0CzdGE2WzWjXyV9UJBjyLUP9Vq1TfC0HuOrHvq/zEJ+pB1sGq16v7fJd9Php6mR1uGpXl1jotXbtw2ybFEi0oksTeiPs61EftIsEwQ7Ua9+tksrIzXhtImfU1bbKHr4ae/bjO/6zpotg1ioIJ5opxenDLeYzFiJ3XF0bkd6ChPD4PoKKvVqtshFItFpZRyQ/71zkc6i6Cbv2q16t44mqbpOhy9A9U7K2/nGpQmEYvZbFY5juNGwerh/FEy/NLCdI6Ln5NoRx/98Zl8Pt8SKBXn2njtE0Q7jjKsPV7iXPcguX76R9l0EG0bRJijTP1PWZf19XXcvHnz2IvkssboleNN9ysXVSaOjHbKRencDqlUCmtraz3bWLnX8skbZOPmjY2Nnsi/d+8e1tfX8fz5857IJ92hG/0C8WeQbLu/v4+JiQns7e3h0qVLTVmJRL0O0iItIYQQEkZfHeXu7i4A4OrVq12VK4vUIj8Iy7IAwF3I9iObzXZPMULIiUaP+mREfHc5SbbtmaOUZ6j0d0jmcjlYltX0Ml8ZXUqk087OjpuXyWRajOln3I8++gjA6/cjyuMn+nsgM5kMALjh6n6OUs57//33228sISQxernV1NmzZ32/k+NzkmzbM0dZLBaxubmJv/3tb0ilUpifn8cf/vAHzM7ONpX705/+BMMw8O6776JUKmFqagqGYcC2bdy/f7/FmH7GHRsbQ7Vaxblz5/D2228jk8lgYmKiSQ4A/OIXvwAA/Otf/2rRV9KkDCHkZKB8HqD3+3RDNukeJ8m2b/VS+LVr13Dt2rXQMmNjYygWi01p+nFcA46NjWFxcRGLi4u+coDXb52wLAt///vfm97MAwBffPEFLMvC6OhorPoIIYQMB0P3CruZmRk8ffq0aYp3d3cXu7u7mJmZSVAzQgghg0hPR5SDyMjICFZWVjAzM4MHDx7ghz/8IZaWlrCyspLYpqNkePnvf/+L9fX1pNUgZOh5+fJlYN7QOUrg9RTs6uqq+xL0+/fvc8qVJILjOLh582bSahBCQhhKRwm8Hll6A4sI6Tc///nP+cIBQgYAeeGAH0O3RkkIIYS0Ax0lIYQQEgIdJSGEEBJC4Bplp2+yIL3n5s2bDADpE9evX09aBUJIwrQ4yitXrmBtbS0JXU4NV65c6ZlsXpv+cuHChaRVIIQkTIujPH/+PLdwGmB4bQghpL9wjZIQQggJgY6SEEIICYGOkpAhp1aroVAoIJ1O90R+LpdDLpfriexe0S+da7UaFhYW+lrnILCwsBC6L/CgQUdJyJAzPz+P6elplEqlpFVJhEajkUiUf61Ww/z8vLt3by9Iqm1RfPjhh7hz587Ab9jsogghiTA/P68uXryYtBpKKaUAqGHtDorFYt/bXq/XlWEYant7u6f1JNG2uGxvbyvDMFS9Xk9aFaWUUnt7ewqA2tvba8niiJIQMrQ0Gg0sLy/3vd6VlRVMTk627IvbTZJqW1ympqZw7tw5d3OKQYaOkhDiS6PRQKFQQCqVQiqVwvLysu9U2dbWFtLpNFKpFBYWFprKeNc/vcelUgmpVArpdBqHh4cd6bi8vOzqmMvlWnT0a4dgWZY75Sz5QWu2UfaI27ZarYa5uTl88MEHXbHTwsJCkz4y1erXtiibtVNvmF31dol+6XQaW1tbTfk3btzA3Nzc4E/BJjHEJYQM/tSrYRgqn88rpZRyHEcZhtEyVSZTezKFaNu2KwuAMgyjSbZ+LOdUq1UFQJmm2bbepmkqAMpxnEA5hmGobDbbdI5+7G27V+e49ojbNrFZtVoNrDOuLMuyXDn1el1ls9kmvf3aEWazdq5PlF3FRrZtK6WU2tzcVABUuVx2y4jsYrGokiZs6pWOkpCEGGRHKZ2a4zhu2vb2tgLgdnx+50maZVmBZYLO6eS+PZvNNnXgXjniuL3tMAyjLX2Oaw89zevMgsrFkeXVyXGcSBlRNotTbxy7ShmvHN2Z1uv1lt9LUtBREjKADLKjlFGHjnRqemfoVy6q4+2moxSq1aqyLCtwdBhGHH3i2iOuc+uWoxS9bNv2DYoJs2uQzeLUG8eu+ujU+4mrYz+hoyRkABlkRxm3My+Xy02jKjnu14hSKaXy+bwyDENVKpXY7Yiqu5fOrZuyKpVKk0PyjsyC6mrXZt2y63HK9RpGvRJC2kKe7fMLsjBN0/0+OTmJYrGIo6MjNzDEtm3Mzs72Rc9CoYC7d+/i0aNHGB8fb8mXduzu7h6rnrj26Dfj4+MoFosol8swTRNzc3PuCwyCiLJZHNqx68HBQUd1DBJ0lISQFm7fvg0AePHihZsmb1K5ceOGm1YqlfCrX/0Ks7OzUEqhWCzi1q1bfdNzenoaADA2NuabLx360tKSq//h4SEymUxb9cS1Rxwsy2o6/zikUik0Gg1MTk5icXER5XIZc3NzoedE2SwOceyaz+cBAKurq24Z/U1EOtlstmNd+kICI1xCiBqcqVcJAIEWnCEPxBuG4abZtt0S+SjneT+maSrHcVpk68eypiZrfXr9cZFpx2q12jSNKHIk8tKrW6VSaZHhOI6yLKtje8Rtm1/Ua6d2Al4Hx4gsWXcMaluUzeLWG8euuiz9o7ebUa+EkFAGxVF6OzLBcRyVz+fddL+AkXK5HBi0IYEmYZ+w+uMga6LZbFY5juNGdHqdkESaZrPZps7cT0an9ojbNqlDfytPp3bSnSB81ii9bYuyWTvXJ8quSr12hFLGe12UehM53O4NUi8Ic5QppZQCIaTv3Lt3D+vr63j+/HnSqnTMwcEBfvCDH7RM4x0cHODdd98Fuxd/ZPqxX2u5g0oul8OZM2cGwg77+/uYmJjA3t4eLl261JTFNUpCSEcUCgWMj4/7rnWdPXsWtm0noNXJYGZmBk+fPsXOzk7SqiTG7u4udnd3MTMzk7QqkdBREkI64vHjx1heXm55tdnBwQHW19f7GtRz0hgZGcHKygr+/Oc/Hzsi9yRycHCApaUlrKysYGRkJGl1IqGjJIR0xOrqKn784x/jL3/5S9N7Q1+9eoXf/va3HcsVWVGfk87o6ChWV1fx9ddfJ61K3ymVSrh//z5GR0eTViUWXKMkJCFOwxolIacFrlESQgghHUJHSQghhIRAR0kIIYSE8FbSChAyzLx69artV6ARQrrP999/H5jHESUhCXHp0iV89NFHSatBCAHwk5/8BNevX/d9XIVRr4QQQkgwjHolhBBCwqCjJIQQQkKgoySEEEJCoKMkhBBCQvh/sUeEzDtXk0EAAAAASUVORK5CYII=;" vertex="1" parent="1">
          <mxGeometry x="170" y="840" width="458" height="128" as="geometry" />
        </mxCell>
        <mxCell id="s5Hh8r9x0Z7aiqoJIuo2-4" value="" style="shape=image;verticalLabelPosition=bottom;labelBackgroundColor=default;verticalAlign=top;aspect=fixed;imageAspect=0;image=data:image/png,iVBORw0KGgoAAAANSUhEUgAAAWMAAAL2CAIAAAAb42DbAAAABmJLR0QA/wD/AP+gvaeTAAAgAElEQVR4nO2dzYscR57+o37MwSzMtmBBOtjWXBb5MtAsC4Psw4rRDJg1ZO1lZKkNw1yspgqsZXfVh1moQpgWM5fS7kXQTZUuQuAqtXSqwpgFVYMb1t3sjqELI0z3QVBtm6WKPVSyf0D+Dl93TCgiMzIqMypfIp/PqfMtMjI786nMyIxP1oIgYAAAoOX/5V0BAEAJQFIAAOJBUgAA4kFSAADi+UneFSg9h4eH//Zv/5Z3LQCwzL/8y7+8++67fBDXFGn57rvvnj9/nnctALDJ8+fPv/vuO3EMrins8OzZs7yrAIA1arWaNAbXFACAeJAUAIB4kBQAgHiQFACAeJAUAIB4kBQAgHiQFACAeJAUAIB4kBRgJczn88FgUK/X864IsAOSAjDGWE2hXq/3er35fJ6swHv37m1sbIxGI7v1ZIz5vi+9QXh0dNRsNmu1WrPZ3N/fV2cA6UFSAMYYC4JgNpvxv4MgePjw4dnZ2aVLl05PTxMUuLOzY7WCf+bg4EAcPDo6evfdd69duxYEwc7Ozl/91V/99re/XdGqqwySAvzIxYsXxcHLly/fuXOHMfbv//7vOdUoBN/3e72eOObx48eMsVu3btHg+vr69vZ2DjVzHSQFiISyY3d3l4/xfX8wGNDtiXpvwqfW63X1SkRaVhzf6/VofLvdFst88OABXxHdUHQ6HbqjofkZYz/88ANjbDKZ8KXW19dNVj2fz0ejUb1e932/2Wy2220+ntZbr9f39/d5Iep4sS1mNBrRpLOzs2X2cXkIQDqePn3qzG6UDonFYsEYazQafIzned1uNwiC2WzmeZ7neYvFQpzaaDRoTL/fl0rzPK/VatHfjUZD/JsxNpvNptOpuLpOpzOdTqkarVaLFyUVe3x8TGO63a5YGZHQVXueRwseHh4eHx/Temm7+v1+EATj8Zgxdnx8HDVeLCEIAqn+pYYx9vTp09fG5FUVZ3AvKejc4OcnnQbB+Rkym81o8PDwkDFGJ08QBMPhkDF2cnJCg5QyfM9QcIjLep5Hf7daLX52iYuI81MbijoPcXJyQnFD9ZHyQrNqWkScn2YWdwjFStR4qTLO/PoiKezjXlJwWq0WpQZBZyMfpCzgZ500NXj9tKGfX82qp9Npp9MRF6EC1TM/6mw8PDzkeTEcDvl4zarVovhlgohmPJICmOJeUphPlS4Blpoq0u12Pc87OTkRZzs5OeHnZ6fTMawkXTKIYaGZX1/nBOORFCCS6iQFnYH8Mp7mD71xUMfQsuIVCocu7KlJQi2EWhDEsFBPTumig9oLTFYdVWd+D2U4XlNgSVGTAs8+gCkfffQRY+zVq1c06Ps+Y+zGjRs02O122evPIETodN3d3aWlzs7Oms0mTdrY2GCMXb58WVqkVqv5vr++vr6zs3N8fLy1tRVVsa+//locpKL49Yhm1Sq0FU+ePKGZ6XmHZnyFyCu0nMGZawreBileNUgz0PMOmqHf74vt/PRL7nkeXR1Q8yc7v+igZwf8qGs0Gvz3mcZPp1N+90HlM8ZarRaVRq0Y4vyz2YzG0CLj8ZiuLBaLBV2k8IuIqFVLb5rxmaUThCoQOp6P5KvW78ASwXD3YR03ksLwJ2Q2m9GvKwtra5xOp3Sn0Gg0+GNF8fkFPUxptVriZTw95my1WjRDo9HgdyIUB+z1dgpxfpotCIKTkxNeMan8qFXzLeWNsnwraGZek6jx0u6K3XslQk2KWoAvGKdjb2/v5s2b2I3AJWq12tOnTz/88EM+Bu0UAIB4kBQAgHiQFACAeJAUAIB4kBQAgHiQFACAeJAUAIB48K1zO0DcCNwGSWEHelMTADe4efOmNAZJYQfxbTYAyo6aFGinAADEg6QAAMSDpAAAxIOkAADEg6QAAMSDpAAAxIOkAADEg6QAAMSDpCgx4ncx3cC9LXIGvKNZYu7duyd+XjhLfN+/cOHCsvZQfe+YIAisbJFYN3WN+RpPk+23IoBrihKzs7OT16oPDg4SLBUo3ysluPLfyhaJdQsEAT+ZxNOXn4Zk+60IICnA0vi+3+v1ki27tramjrx+/Xq6Gv0ZtW4XL17UrDpL0uy33EFSuAMdiLVarVartdtt+s5V7Rz+zSs+8uzsjJYaDAY0ptfrzedzmo0vqA52Op3RaMRHqjVpt9vtdtuw2lRC1K99VPVCt9ekbqGrKMh+KzQZfGXEbfL9MpD4T6Sv8sxmM/qcF3286/DwkAlfDyX4d8Do7263G5x/a8vzPLpKlz6xJX3sU3/wtFqtVqtlUmcqNmqqpnpR2xtaN31ti7PfigPDN8SsU5ykoA9wqePpM1z8c1jHx8f9fp/+pgYCfvTT6cGnSoe1rSNe/3MljtFXL2p7l02Ksuy3LEFS2Kc4SUHQJzzF8fR5PvoBDIKg0+nwo59+Tvmy1NzIv7630qTgtdWc1frqRW3vskkRVU7R9luWICnsU6ik6Ha7nufxTwHz8XRkLxaLxWIhXlHrT6oMkiI4/7Co4VpMtjdBUpRiv2UJksI+xUkK+sa3+HFdPhv9PPb7/eFweHh4yMfz74aLBUbd8K8oKTRT9dWL2l7zpKCiyrLfsgRJYZ/iJIX+iKSfR+nSnU4Sfg7QVfR4PA4tJPukMK9egqQ4PDykloWy7LcsQVLYJ8ek4M3s9ONGP3TT6ZRfRYs/etTqxu+6icViQe32NGe/3xevsekkOTk54YvzX07+o9rpdNSKaZ598Dev+CMMzRbpqxe1vVLdpIcR4t44Pj4u1H4rDkgK++SYFEwgOL9UbrVas9mM2vN5CxxBt+JSIbPZrNvtUiH9fl88gafTKR3Zw+GQFu/3+3RuiOtSKxaVFExBv0X66kVtrzheXaMIlVac/VYckBT2yffuwxypTQ4YUs39piYF3tGsCnt7ezdu3Mi7FuUD+41AUjhOu93m7yBb7F7hPNhvEuh17jiXL19mjHW73du3b+ddlzKB/SZRC/Luh1t29vb2bt68id0IXKJWqz19+lT8Mh7uPgAA8SApAADxICkAAPEgKZxlpfZaqHGrBp59OMtKfbxpCpess7YktL7vf/vtt998881oNBoOhwlKCPVQdTqdv/zLvzR8ArKiTSsCuKZwlpX6eNMULllnbUloO53O559/vrm5SQa6BARhnUT+5m/+ZnNzczAYmJSwok0rAkgKkCmSddaihHZ7e3t7eztlIVzPy6HXrj777LPYZVe3aUUASVFi5vP5aDSixgJyxjabzdPT09CZk3llTepAizSbTb6IuXU2VEIbJbMVG0dGo1GtVqvX64b1FFlKCEzw65SCb9oKya7TiaMUoS8piRKoLxM77+8cvG5DSOaVjV07rZqss+y8v/ZS1ln1OIyS2dIq+Eol0W5UaSrmQmA+hjsyc9y0LGHoS2qd4phsgvNOzdx9IE5N4JVdatUkd+AeB805oz+dEstso8YsC1NotVpip/K8Ni1LkBT2KVRSBNoDN1jSK2tx1eanU2KZbdSYZZFKIGmFeJ2V16ZlCZLCPiVKimW9shZXbX46JS42asyyqCXQHQe/Yclr07JETQq0aDoInfkSg8Fgc3Pz4cOHV65cCZ3/iy++ODg4+N3vfmd91UtBd+zit8KsFJsGeiBy//79lOUUcNPMQVI4BT34+OCDD9RJGxsb7LwztcT6+nqj0djY2Oj1elevXk226slkwhi7du1assU5H330EWPs1atXNOj7PmMsX5cMPYNIf0oXcNOWIK/LG2cowt0HtYotFgu6o6ZJ6X28eqhAElJTS75okTW3zkqDGpmt9NVyLu/lG6LX+XI0zz6kVQRBcHJy0mq1mPBEKZdNyxiGdgrrFCEpjo+P6aDsdrv8EJd+D5J5ZfWMx2Nab6PR4A57wtw6q0poo2S20hZpBvW/guZCYMYYPdcU91X2m5Y9alLAZJOWfE02Ne2Hws3xff/3v//9Sl8AByUCJhsQDryyQA+SosSI7wInKwFeWWAIep2XmEuXLvE/kt2AaLyyoV2wObhprRpIihKT/nS9fft2lHkBWQBEcPcBAIgHSQEAiAdJAQCIB0nhLDDuAosgKZzl3r17GxsbiaWSqyvc933xwYo0mJizs7Nms0n2rf39/QQl1MJ48OCBueRuRZtWBJAUzlIp467v+5PJZGdnZ7FYXLt27Ve/+lWCFAtg3I0GSQEyZUVa2oODA+qLsba2duvWLcZYsjsjGHcjyazPiavk2ENsNpsNh0PqPEr9jhqNhtjLS/wXLxYL3jeJ+ixx+RUThHp8ZKz5imbj5YhdzqSjSxykfpkcaZBXtd/v05hutyt2r+r3+7S99EUPz/NC68m0EsoEHs3Qbcll07KBoS+pdWDcDYpk3A3Ou2xTR89QYNyNBUlhnyL0OueDMO4G533h9YqK2O0SgXE3QFKkp1BJEWgP3KACxt0gCDzPo1/mZEhlwrj745i8quIMJUqKKhh3+/3+UuYuk+2CcTeAcddJKmvcnUwmL1++NPzasDkw7jI8JXWMKht35/P5ixcv+KdJJ5NJs9lMWRkCxl3G8JQ0NUW4+4Bxlz98EYl6/AHjbiwM7RTWKUJSwLgb+oMftTkw7saiJgWMu2mBcRe4B4y7IBwYd4EeJEWJgXEXZAY8miUGxl2QGUiKEpP+dIVxFxiCuw8AQDxICgBAPEgKAEA8SApngXEXWARJ4SxVM+7O53P+0NdQeykB464GJIWzVMq4O5/PX716tb29HQRBv9/f2Nh48ODBsoUEMO5Gg6QAmbIiLe2rV694L1gy7m5tbSUoB8bdKJAUJWY+n49GI2os6PV69KkL6niuQgcuXVG32+35fP7gwQPxGptm4yOpq7VJHWiRZrPJF+HFqoOdTofuWWiMNMirOhgMaEyv1xNfReWNI6PRqFar1et1WqnYWZ56c0vCW5F2u91ut022jsPvs7LftKKQVec0Z4FxNyiScXc6nUqdxFVg3I2Fode5dYrQ65wPVty4y89bcScsC1OAcTdAUqSnUEkRaA/coBrG3ePjY7qsSCbUlMqEcffHMXlVxRlKlBRVMO4S6jaaoy4I424A466TVNa4y1G3MQ0w7jI8+3CMKht3RWgp/l2/lMC4yxiefaSmCHcfMO7S2qmFhfaD5ukGjLuxMLRTWKcISQHjLn31l+h0OvpviMG4G4uaFDDupgXGXeAeMO6CcGDcBXqQFCUGxl2QGfBolhgYd0FmIClKTPrTFcZdYAjuPgAA8SApAADxICkAAPEgKZwFxl1gESSFs1TNuCtCdq9ll4JxVwOSwlkqZdwVmUwmm5ubCRYMYNyNBkkBMmXVWlrf958/f554cRh3I8msz4mr5NhDbDabDYdD6jxK/Y4ajYbYy0v8Fy8WC943ifoscfkVE1xyfGSs+Ypm4+WIXc6ko0sclES40iCvKu8w3u12xe5V/X6ftpe6hHmeJ9Wz0+mo1wUSCTyaoduS8aZlCUNfUuvAuBsUxrg7Ho9pkvWkgHEXSZGWIvQ654NVNu5Sh+7Q2ZaCKcC4GyAp0lOopAi0B27gtHFX1PCkTwo+COPuj2PyqoozlCgpHDbuDodDMeAsJkUA4y6NyasqzlDApAi9y6CGNDqdpKXosqLf7w+HQ70tKtmqg2VOCbG9w7xYFoHhtui3y7z+q9i0XFCTAk9JnaKyxl31QGf2usPCuMsYnpKmpgjXFDDuhu6WqJrDuBsLw92HdYqQFDDuhu6WqGrDuBuLmhQw7qYFxl3gHjDugnBg3AV6kBQlBsZdkBnwaJYYGHdBZiApSkz60xXGXWAI7j4AAPEgKQAA8SApAADxICmAKe12u91u25rNFhmvrrIgKUDJWKnG1vf9o6OjXq8H7bgEnn0AU7a3ty3OlhhJY2t3dSTvuH//vsUy3QBJAcrEqjW2lDtIChXcfZSY+Xw+Go3q9brv+81mk9+uz+fzBw8e1Gq1er2+v7/PXv+Qz2g0qtVqzWaTOlMPBgNxkJ2fjfTuZrvdphdAxRLU0ur1Oi1uOBuxv79fr9fpmxqGr5l2Oh36yAhVT786zTaG7iWgI/Neaq6RY19SUdN6fHxMXZipAzj1QydxI+9pSn8Hgmg31O8a6ublJQRaPazhbMG5gZomcV21yZ4UZwtdnck2hu6l0FVUE4Ze59YpQq9z0QdLZ504A/Wwlo5+zWCUmzfq7/Sz0aCot4jdZMMyowaj9lLoghUESWGfIiSFOIb/tIqoc+oHgzA3r92kkPSz5ienlaSI2kvLVsZV1KRAO4Vr0G28+o9fil6v98knn4SeTragpKCv+JFZT/xS0aqxspcqBZ59uMnp6emVK1eSLTsYDDY3N6fTaah00xbr6+vD4fD09LRWq1GTwa1bt1a3ulDS7KWqgWsK1yD52pMnT0joSi38S5WgcfNaZDQa/d3f/d3du3eDIBgOhxnHRPq9VDlWerdTBfL9Lqn6T+QjOdPpVBK6SjJeEzevOI9GD2s4WxB2qd9oNEwEs6LGVrM6/TaG7iUqn9dTbCeuGgwtmtYpwndJuY+bmE6npJPmWl3xlIgdDHXzqid26OKGs9Fa1HYQk+8SidUzX500GLqXQrfF1j+rXDAYd62Tr3G3vJyenr7xxhviPc7p6ek777yDPVkEYNwFhWAwGFy5ckVqCrl06ZL4ChYoFHj2AXLgs88++7//+7/333+fh8Xp6emXX34ZpeoDuYNrCpADT548+elPf/rHP/6R9y75/vvvKSZqWvKueHXBNQXIgbW1tVu3bt26dUv9FhHaKYoJrikAAPEgKQAA8SApAADxICmAKTDuVhkkBSgZKzXunp2dNZtNEmRBhPUaebwq6hT5+ikqCMmyVlHyYrEYDof0B70DRoMVhMFPAUrNSo27BwcH1BWFHuIyxuDy5yApSgyMu3aNu6E91pb8n7hLXpc3zgDjrnvG3eC87znuPv48Jq+qOEMRPJow7sZOkgb1xt0gCMbjsed5lVVUICnsU4SkEMfAuGsyp964SzPQxUg1UZMC7RSuAeOuCfq9NBgMPM+7evVqZvUpPugh5iYw7poQupcmk8nLly9X/XXV0oFrCteAcdeEqL00n89fvHjBY2IymTSbzSwrVlxWerdTBWDcdca4Sw9EpPHVfPzB0KJpHRh3oybFrqVoxt3QtydOTk4s/svKAoNx1zow7iYDxt0iA+MuKAQw7pYOPPsAOQDjbunANQXIARh3SweuKUAOwLhbOnBNAQCIB0kBAIgHSQEAiAdJAUyBcbfKIClAyVipcXc+n7fbbXrOQv1cwY/k8aqoU8C4mzGrM+7OZjPupKB3wAzlOu7B4KcApWalxt1Xr15xJwX1bd3a2lrRukoHkqLEwLhr17grqmuoNzp1IQOM4bI5NTDuumfc5d1Mq9mRNECv81VQBI8mjLuxk6RBjXFX7GKPdoo/j8mrKs5QhKQQx8C4azJnrHH3+PiYLiu63a5JrRwDSWGfoiVF1Cm3VFJ0u13P87jzSp0nfVKQkIau/+nvLK8pTIJJ2vxKoSYFeoi5CYy7Juj3UuId6CR49uEaMO6aYLKXaBLkOj+S09WNO8C464xx1/O8TqdDTs3FYtFqtaQPi1UHhnYK68C4GzUpdi1FM+7Sg1ui0+ngG2LiGBh30wLjbjJg3C0yMO6CQgDjbunAsw+QAzDulg5cU4AcgHG3dOCaAuQAjLulA9cUAIB4kBQAgHiQFACAeJAUwBQYd6sMkgKUjJUad0VI/JXBikoBnn0AU7a3ty3OlpiDg4MMVjeZTDY3N1dRcknBNQUoEys17opref78+arXUi6QFCUGxl27xl3Oo0eP7ty5k+A/4jJ5dFRzChh3HTPujsdjWqTKJwhDr3PrFMGOB+Nu7CRpMGovzWYzLs5EUrw2Jq+qOEMRkkIcA+OuyZxRe0n06yIpxDFop3ANuo1X//FL0ev1Pvnkk9DTyRaUFPTtz8lkwhjjwZQBoXtpNBq9//77mdWhXOApqZvAuGuCtJeoNVSiVoPtiTE8+3APGHdNCN1LoRdiiIkfsXt7U0Fg3HXGuCutqMonCEOLpnVg3I2aFLuWohl3Q3dvmn9QeWEw7loHxt1kwLhbZGDcBYUAxt3SgWcfIAdg3C0duKYAOQDjbunANQXIARh3SweuKQAA8SApAADxICkAAPEgKRxEdLowrZNWmrNQuLEVzoAWTQe5d+/e7u6u3TklfN//9ttvv/nmm9FoRE6aZBwdHT1+/Hh3d7fRaNy4ceNv//ZvL1y4QI2aGWwFWIIc3hR1i3z9FFGY/3OTHQatVotehU6z7aSlIvFUILzfnaBuOJjtwuCnAFbY3t5OL8V+/PgxY4z3Il1fX1+11xskBklRekgb2+v15vO5+m6Seg/v+z4ZaOv1+unpqTq/ausN9foaomlf+OGHH9i5xoZYX18PnTP3rQC4YEtLvncfnU6H+kEuFgu6HaDx/J8rOmkJz/MajQZ1zeb9LGiS3tYren2ltWig+5TQSdQrlDHW7XZFFaha/kq3Aqgw9Dq3Tu4eTe50oF7YfHzo39T6eHJyQoPcGUGDeluvejKn/7E5OTkhTR5jrN/vS6vIZiuACpLCPvkmBZ1m5ueY5LmVphraekOXTcPh4SHPi+FwmPFWABUkhX3yTYqTkxN+YogW/KhzTD1b9FOTjU/G4eEhbQsPi2y2AqioSYEWzXJz5cqV4XBIN95bW1vLKjNDURsIV0StViONJXH16tWHDx+yCPPtsmS2FRUBSVFu6GRbX1/f2dk5Pj7e2trSz0+mWfFxgzo1ja13Wb7++mtxkHQVsV8PKNpWVIK8Lm+cIfcWzVarRY8/6Fs+wet2Wck0S0ZMz/NoEXo0wM4Flnpbr7Rq3o6obyPUPPugxcfjMVfyUmMkffgvm60AoTDcfbjHnTt3nj17VqvVnj17dvfuXcbYpUuXaNKlS5fEvxljly9fnk6nb7755s9+9rNms/nzn/+cHih++umnjLGLFy9KHtrLly/zEsSbglqtduHCBfr7woULiR0zQRC89dZbe3t7VODLly9PTk7orYoMtgKYA+NuWmDcBe4B4y4AIAlICgBAPEgKAEA8SAoAQDxICgBAPEgKAEA8SAoAQDxICgdxw1XrxlY4A5LCQe7du7exsTEajSzOKXF2dtZsNmu1WrPZJKlUMo6OjsRyfN/nr3tmsBVgCXJ5q9wlKmjcXSwW1DGc99QQpRLmwLhbWBj6fYD0HBwc0ClNnxdlSTtTwLhbIpAUpSd7467aK5wbq1Rg3HWEvC5vnKHKxt3gvO+55u4Dxt0ywmDHs07ufoocjbtBEIzHY8/zEmtsYdwtJkgK+1TZuEuLHB4eptwKGHeLBpLCPlU27vb7/W63a2VDAhh3i4SaFGjRLDc5Gncnk8nLly9v376deEUw7pYIJEW5ycu4O5/PX7x4wR9qTiaTZrOZoP4w7paGvC5vnCH3Fs3sjbv0cEGaM+rxB4y7ZYShncI6uSfFbDbrdDpMaKfQ/ypMp1NqEWw0GvyBIn+AIrlqxdI8z6N5Qt+e4E8iJPRJEQTByckJXQUwxlqtFi9n1VsBNKhJAeNuWmDcBe4B4y4AIAlICgBAPEgKAEA8SAoAQDxICgBAPEgKAEA8SAoAQDxICgdxw1XrxlY4A5LCQTJw1c7n83a7XavVarXaYDBIVE3GYNwtEfm8LOoQFTTuzmYz7qSgnhpih3dzYNwtLAy9zkF6Xr16dfXqVfqbfLmxfVhDgXG3RCApSk/2xl0eE1QaY4y6Y4UC464j5HV54wxVNu7yLptRHUkDGHfLCUOvc+sUodc5/Z2xcZckEUSydooAxt2igqSwT8WNu8fHx3RZkUaoCeNu0UBS2KfKxl1eBysnIYy7xUFNCrRolpscjbtiHZKtCMbdEoGkKDd5GXdFaGberLgUMO6Whrwub5wh9xbN7I27nudJz1yinm4EMO6WE4Z2CuvknhTZG3fp0QPR6XT03xCDcbeMqEkB425aYNwF7gHjLgAgCUgKAEA8SAoAQDxICgBAPEgKAEA8SAoAQDxICgBAPEgKB3HDVevGVjgDksJBMnbV9no91bVlCIy7pSGfl0UdooLGXRHurUqwLIy7hYWh1zmwiO/7z58/T7w4jLslAklRerI37vKZHz16dOfOHX31YNx1hLwub5yhssbd8XhMvUj1BxKMu2WEode5dYrQ65z+ztK4O5vNuDgzzU8OjLvFBElhn2oad0W/bpqkIGDcLRpICvtU0Lg7HA7plke/1LLAuFsckBT2KcJTUrrxZor2Sv931FT1Mz/SUuovdrKTkEV/QySDrQAa1KTAs49yk4txVz2qmHB5vxQw7paG7GLKUXJv0czeuKvWQTMVxt0ywnBN4R537tx59uxZrVZ79uzZ3bt3GWOXLl2iSZcuXRL/Zoxdvnx5Op2++eabP/vZz5rN5s9//nN6oPjpp58yxi5evCi5ai9fvsxLWEXHiiAI3nrrrb29vVqtduHChZcvX56cnNBbFSXaiioA425aYNwF7gHjLgAgCUgKAEA8SAoAQDxICgBAPEgKAEA8SAoAQDxICgBAPEgKkBB4bisFkgIkRPLc+r5/dHTU6/WSZcf+/n6tVqvVaqqNqvY6aeutUDPA+kpLB5ICJGRnZ0cc7HQ6n3/++ebmZjJH9vXr16nfx/3796WwCM67clCnjzR1joJbfwOlGwsXalUcvM2dliq/zU0/tuK2q2OSldnv97mJl49f0U6WSpY2wff9CxcuVO3/i7e5HSTKuMudtHwqjZeuqMVBselhNBqRsfbs7EwtM9Rza4jGwUt0Op2NjY3BYKCZJ2rrYjdBlfFyKUYoa2tr//iP/8j3Eu/AToXUarU//elP5PJl558+aTab0s5RV1o+Vtp3tQoU07gbBIHneeSwIwOt53nUuVvqfy3KY0QtLZ8kymk1nlvC5KDS9EOnEmgedt79XBwfu3X6TQiV8aoVUDeBPk0ieXo9zxN7uNMaF4sFWYW4SsdkpY4T1xQAACAASURBVEWDwXllndz9FKHGXToi+STpGzzSySAOaibpPbehiyfbIiqcznm+OrHYxFsXJeM12YROp8MY41rA4+PjqDWSc5z7x0xWWjSQFPYppnFXctLSWe15Hg0mSwq95zZqzLLwxSn46Hc7eD0pEm9dlIzXZBPo/OeqYX41F7rIsistGkgK+xTfuKuOSZYUJrlgMSmC85OT7iyiapVyE0IrEDUPJdRisaBbjGT1KQVqUqBFs9xcuXJlOByScXdra4u3t1F88HY+gpvyy8L6+vpwOByNRnTlz0m5dYnbYmkVX3zxxcHBwe9+9zuTmdOvtCjkFVrOkHs7Bb/voF9g+pvujamNLTi/Ph+Px3wptvw1BZlspVZGtsprCnFbxPGJt442odVq8cZd8ULMZBPo/Od3OqGLnJycMOFbBCYrLRoMdx/WyT0pVONucN4iyG/y+/2+eLUsNs5TcyBjrNFo8JZ8rsClQRPPrTi//jtdmmcf4htW0iLiTtZsnX4TQmW8agVC60DQ7hI/jBScJwU1cNJDKDFKYldaQJAU9sk9Keg3ir3eThGcfxCQH8Ti2TudTsVv8NAzPOmADl5/14gvSClDscIXlGbW/yxHJYV+celnPGrrTDZBlPFqKhC1CZ7nSR8ToZn510/Vz6xqVlpM1KTAO5ppqfI7mhXE9/3f//730pvs6d9MLRp4RxOAVOzt7d24cSPvWuQAkgKAeNrtNr27fXZ2dv36dXGS+CJ5HlXLiJ/kXQEASgB9BrHb7d6+fVuaJH61yKUbEAkkBQDx3L59W80IwuF0EMHdBwAgHiQFACAeJAUAIB4kBUgIjLuVAkkBEiIZd8/OzprNJhmfEmidYNwtOEgKkBDxPUXf9yeTyc7OzmKxuHbt2q9+9atlvbsw7hadDN4hd5t8+33kCz+EeL9JaXziMsVTl49PVqDJGtUK8EFJjVERmNLv47X3Kb7//vuvvvoqg3gqDu+9995bb72Vdy1S8eDBg62trW63+w//8A/iyz++73/xxRcbGxuMMZp68eJFdt5JgZ2/CCAOzufz/f39zz77jKwQ9Xrd87yHDx/Se0dimZ7nic4IVeuksUXQJcP29nbUDGTcZYxJem6RqK2L3YT5fP7kyZOtrS3P8/7pn/7p+vXrhsZdXre7d++y893OGPvv//7v//mf/+n1esPhsNfrbW5uNhqNf/7nf75y5QovRF2pZo0FRYwN+nmsFFJwJgDGXalK9CMsXWWIwLhbeuNu1S6kHUgKVjDjLq2an7fJtiiAcTdvkBSv4UBSFM24GwSB53ncRpUAXiCMuzmCpHgNB5KiaMbdfr8v+aCWhSk/zjDuZo96auApabkplHF3Mpm8fPkyqidVAmDcLRBibOCaIgG5t1MUxLgriWQpvJJtkTQGxt3sUU8NJEXpk6IIxl1q3pd+hKIef8C4W3yVJpLiNdxIiiIYd0Ov/CUtLQfG3dBiCwWS4jUcSAqQMVJbJqGJlZKinhpo0QRgCWDcBQBEAuPu0kkhdsU9OjpSZzg6OkrcXZe6LS9bJQBWDTfuqt1VRONu1tXKkKWTIhB6Cjx+/FidgY9cto/w2dnZ7u4uY2wymSxbKwBWyu3bt4MgCH1VRLq9d5Ukdx+Ur51OZ3d39+zsTJx0dnb213/91/Q39e0z59mzZ9Sz4L/+678S1AoAsDqSt1P8+te/ZoxJvdS/+uorGk88ePCA34bw1wf5SDFlfN/nnYI2NzfFMufzOXUfZoz1ej2yKvE33vRTAQB2EK+dzB/40WxqlyF6gCSWrOmuK47p9/v08l/Ui4AsolevfmrsVuApKQAq6qmR6tkHPS7i7ZqTyUR9gHT16lXpPmUymXz00UfivYnv+19++eX6+jpj7Be/+AV7/QYkOI+Dq1evMsbW1tYoC8i/pp8KVgeMu5UiVVLQ4yLehPn8+fNQmQ/dj/zHf/wHDb548eK9994TZ/j66695xFBe6M9zmoeMQ8tOBbaQjLvz+Zw/ShwMBsuWBuNu0REvMJa9+wjO++pMp9PZbBYl9giiu+sSoR34xdsHtUBxjH6qfitw95EGvp9nsxnvr0WHRIJOUGTcZWGil6j+IFZgBsbdVay3yKinRtqkoCem/X6/3+9rxB7UzbHf7w+HQ0lzcnh4KOlV+czi6tQs4Imjn6rfCiRFGviel/6nhkmtKRPG3XxRT42072hevny51WptbGz88MMPXGqqsr6+3mg0NjY2er0eNShwHj9+/Pd///fSzJ7nffbZZ1Gl0aONDz74IMFU96BnSb1ebz6fi9fJvu8PBgO6eKapNF66ohYHxaaH0WhUq9Xq9br0iIrKrNfr4gMm8X/q+z5jjDpEhdJut9VbDBEy7upvYaK2LnYT5vM57bF6vU7fJTE07kY9wvvTn/4U+/RNXWn5EGPD8OdRuhSkSwD+tCKq325od91+vx/arZCOM+l2JqpXr36qBlb+a4qiGXd5p0nNsycYdyth3A0NGulGICqJpO664mxiV1ypBH4oR/Xq1U9danckoAi9zunv3I274o9zYlkLFQjjbr5YSIrEhLZlGhL1zzOZqi+27ElRQOPu8fExXREkE2ryAmHczZE8k6Lb7XJ/2bIgKaIomnGX1yrNP4X/DeNuXqinxsp7nWu66xqi79VbkT6/URTKuCvWyko5MO4WCDE2VvHzSG9npzG7R9XWZGpsyWW/pmCFMe6K0OrUJ52GWySNgXE3e9RTI7u7jwLiRlIUwbhLnykVn8JoGu1g3C2+ShNJ8RpuJEURjLv0WITodDr6b4jBuKvZOQUBSfEaDiQFyBgYdwEA8VTWuPsTddTbb7+dfT0AKDLtdvv+/fuMsVarJTnyxKdvy3reSkRIUgAAJLhxV1VpisbdIKyxww1CkuK7777Lvh65AO8AMOT27dtRX2Z2OB1E0E4BAIgHSQEAiAdJAQCIB0kBEgLjbqVAUoCESMZdEVI/LVUajLsFB0kBErKzsxM6fjKZSN92MuH69etk3L1//74UFsHr/UGS1VZPrHEXICmATXzff/78ebJl19bWbt26xRi7f/++JNGkN5pW914TrTcUSfJaWZAUpacIxl3Oo0eP7ty5o68wjLua1RUXsRNIgs5O9JkPQ8OtBO9TqC8kair1oex0OobWTBVW/h5ihTLujsdjWlA9tERg3K2EcVeCi30S1IYfMfpCQqfOZrNGo3FyckJdfZN9M8aBpGCFMe5SN/DQQpbdogDG3byxnxSBpS63+kKkqXQYcQnC4eEh/0lZdqVlT4riGHdFuUv6pAhg3M0VR5Ki0+lIqdxoNBIYxxxIioIYd4fDofodhmRbJC4I425erDApuHlJtPpICSoOSq0P0t7kn6gkv5A4lX5qJM23dDlqXvOyJwVBxl0xLCg+xB3Cor/PmD4pWAQJtkVaim551CaYNFun+WpR6GZyoj6aGbpnpProV1o0VpgUtOOo8YYp2kKaM7TxTCyEl6lpOaNDR1KMUcnccWpe87InBSukcTdxTARKUgQw7ubBCpOCD9Juimrcijoo1SyIajmTfl7EeZb9B7iRFEUw7qq10uwTGHeLr9LMIikC49+oqL/1LWdRR6H+6IyquQNJUQTjrlqrBEkhnU7SVBh3s0Q9NYqYFEsVqKmGSc3LnhQgY2DctUxmn6sCIEsqa9y1nxSTyYQxdu3atcQl0FUllaNCV9q+76uT6AIPAOtoPppZke9dWkgKujejt9nn83m73e50OrzLDV1c0GvwR0dHNLLZbIr7V9rX77//PmOs3W7T6/r8Pflms8nOv3kpJQXN+Ytf/CL95gCgwo2729vb0iTRuJt1tbJEvBVJfMs9Ho8pLxqNhvSmg0njmVofTcsZLSt9pYpapCv7PgUAdlFPDTsW/+vXr0d9x/zy5cvip+j430H06zq01M7ODjcgiCVcvHix0+n853/+59WrV/nIzz//vNPpOPy1BQDypZS9zj/++OMvv/yS38tMJpPJZPLxxx/nWysAHKaUSbG2tvbo0aM//OEPk8nk9PR0d3f30aNHa2tredcLAGcpZVIwxi5evPjkyZMXL16MRqNPP/0U9x1ErCRmdZgIeJNJeouj9i17/dNQ4q8Nrq2t3b17N+9a5Izv+xcuXNA3+mTDvXv3dnd3088Tu5Tv+99+++0333wzGo3EBixzVIOu4Q60Uv+yIjZvVq0Zn5X/2QedKnmtXUI9opLNo1+KXgZPVg5H6h6SrCarXipH1FOjxNcUwPf9Xq+Xdy2yht5ooC+PJ4bfrqJ5y5CytlMAxlin06HPbdDrg+L9sCqebTab9H4aiWr5IKEqYefzOYlkfd9vNpvLNn9QivFPeEjvL/LVSdUIrUli0rTaFKH+xUK8wKAL6UpR9rsP2gr6W1R+8L9JJ8GFseYeWlFdS6acpSpDL87NZjNpXbzMQLGZRNUkiOs0GEWs2ldTwqrrX3DUU6MWCG0533///VdffZX+9CsR77333ltvvZWmhL29vZs3bwY5tSlS4xxfuziomSQNDgaDjY0NcVKr1dre3qZ5FouF4SW6WGa73f7f//1fendOU6vT09N33nmn2+3evn07tibiTlbHLIu+hFXXv+DUarWnT59++OGHfx6VSUK5THGuKaRBzaQg4mJERF1k2coE53IdTa0S1yT90WtSwurqX3BYZr3OQYmgxg71WElJr9f75JNPQk+ejGuSjLLX3y5ICvAjod8ES8xgMNjc3Hz48CH1/dUj2Uzs1mRZqMtyeeu/IpAU4EchyJMnT6gvP7XepyxzY2ODnXfW1iDZTFZRk6U4OjqiypS0/ivE+h1O1ci3nYK3vXc6HdEWK71ZJIlkowY50+lU8qrHIpVJFZtOp/wjDOJ4UhPQkwJR/6mvCX/EwD26+vemYtW+0tbREyJ6WrHS+hcfpvdoggTkmxRk7m+1Wnrlh34wCFPC8hkMPzorlSlWrNVqiaZZjc1EXxO18urZLmKo9pWg9Fld/UsB0z8lBQnI9ykpAKtAfUqKdgoAQDxICgBAPOghBkxRO2uL4P7LbZAUwBRkQZXB3QcAIB4kBQAgHiQFACAeJIVTwLi7Uspe/1Tk8QKYU+T7jia918wH9e6WlcJ7SaWcJ3Yp8fty6iuSJiQ+C6zUvxQwvM1tHRh3OSbnQ7Jzhi+1WCzos5WLxaLf77Pzr1guC4y7etSkwN1Hiamgcffg4ID6XKytrdFXspNd1cO4uyxIihJTQeOu6pWR3BAiMO7aJK/LG2cojh2vUsbd4LyNRnP3AeNuYhjaKaxTnKSQBjWTpEG64Rcn0QlG85jfyYtlUk/t2FqR/aHb7ZrURFod9f5etqEhtLYqGdS/yCAp7ONAUpTRuEsz0297Mky2DsZdDtopQCmNu4PBwPO8q1evpq9nFDDuiiApwI+UyLg7mUxevnxJn9iwDoy7oSApQMmMu/P5/MWLF/R1UiqBzm0rwLgbifU7nKoB4y6RjXGXP24QiXr8AeNuYhhaNK0D4y4hlbkiY23o2xMnJyehVYJxNzEMxl3rwLgL3APGXQBAEpAUAIB44NEEpsC4W2WQFMAUZEGVwd0HACAeJAUAIB4kBQAgHiSFU8C4u1LKXv9U5PECmFPAuEtkZtyllyZpDDljliXxWQDjLkgOjLsck/Mh2TnDl5rNZtxJQdoYsduFOTDu6lGTAncfJaaCxt1Xr15xJwUZd7e2thKUA+PusiApSkwFjbuiuoZ6dvM7ERUYd22S1+WNMxTHjlcp4y7vshnVkTSAcTcFDO0U1ilOUkiDmknSYOmMu3T2EsnaKdQyJWDcRVJYxoGkKKlx9/j4mC4r+Im6FCZbB+Pun8fkVRVncCApoo7jlEnR7XY9z+POqKgy09REKnwpYhfMoP6FRU0KtGiCHymRcZdjUviywLgbCpIClMy4K0KzUeuAFWDcjSSvyxtngHGXyMa4S/OTn3KxWOifbsC4mxiGdgrrwLhLSGWuyFhL76QSnU5H/w0xGHcToyYFjLtpgXEXuAeMuwCAJCApAADxwKMJTIFxt8ogKYApyIIqg7sPAEA8SAoAQDxICgBAPEgKp4Bxd6WUvf6pyOMFMKeAcZfIzLgrQv0slqsojLsGMLzNbR0Ydzkm50OycyZ0KXrhOtnmw7irR00K3H2UmAoadzm+7z9//jzx4jDuLguSosRU0LjLefTo0Z07d/R1gHHXJnld3jhDcZxX1THujsdjKkF/DMO4mxiGdgrrFCcppEHNJGmwXMbd2WzG509zBsamDIy7r43JqyrO4EBSlMu4K/p1V5cUq6t/KVCTAu0UgFFjh3qspKTX633yySehJ0/imoxGo/fffz993UxYRf1LjPU0qhoOXFPQ3+ondpY9QsT56TpclD5FlcmUVgBNTSwexlELUmVWVP+ywHBNAVRKZNxVD2hmtZMrjLuRZBdTjgLjLpGNcVdaqb6GMO4mhqFF0zow7hJSmdkYa5MlRdSOImDcDWDcXQUw7gL3gHEXAJAEJAUAIB54NIEpMO5WGSQFMAVZUGVw9wEAiAdJAQCIB3cfdtjb28u7CgCsECSFHW7evJl3FQBYIUgKO6C1D7iE+pwL7RQAgHiQFACAeJAUAIB4kBQAgHiQFACAeJAUAIB4kBQAgHiQFACAeJAUmXJ0dNRsNukrdSRrLQtpvtynochOWvGLjVE8ePCA5LrOg6TIjv39/Xffffdf//VfgyC4du3aKk48Pb7v6x0TiWdOxnw+v3fv3lIf1MiSe/fubWxs0Cc8ovj1r3/929/+VvpqqZtkL/N0DHPjLn3qctX10TAcDs0rsNTMCVgsFp7n0Qc+C4vJOXJ4eOh5nvk3GUsBw/c+cmR3dzfHtdPHu1cxczIePXq0vr5+9erVla4lA65evfrmm28+evQo74qsFiRFFtRqNX4lL/7t+/5gMKAxvV6PX8TO5/PRaFSv133fbzab7XZbvGcejUbU0nF2dsYYoxL4IDs/z6lYWpYx1ul06EJarEAU0szi2peqCTtviajVavV6fX9/n4/c2tr65S9/Ka6UZqP9INYwtAR174lFaXasVPl6vS7Wli9Yr9dPT0+l3RJVwxs3bmxtbTl+D5LX5Y0zmN99qDvc8zz6Hi99Y4ZfxPJb98PDw+Pj40ajwcfQd2voGzaNRoOu3qfTKRO+eUe3ObPZTBq/1H9cnJmvXfzbpCa0Xf1+PwiC8XjMl6JbG/4FjSAIOp0ODS4WC/pehr4Eqgn/nEej0RA/7WGyY9Xa0gyNRoNmpg8O8ppE1ZCXMxwODfdt8WH4MpB1EicFHff8u1J0ytEpwWcW736lxTWD9CUbdXzipNCXoxmkk02cROezdKbRJL4r6CtH+hJovLj3+BeMTHZsaG0pv/hXRReLhbTVoTXkc4ofEys7SAr7JE4KqYGTjjZ+uKtntfn5SUyn006nk29ShD7XCK0J7Y1+vy81DUaVQONDa77UjhUH1SZndapaw9Biyw6Swj6Jk0KfBSmTotvtep7Hv6kZVWay2prXJGqN6viTkxMeCuKPs3kJmkmGldcvGFXD2PqUESSFfRInBf/4sDiDpk3B/PykK3Pxo5hRZZrXNk1S8Ov5qEU41CgjnopRJdDe420W6iTDHWueFFE11G9RSUFS2CdxUtD5zF8ooItk/kXcNElh8veytU2WFN1ulzHWarX4J9fpBKPbIqkVhg/S14P1JdB43vo4nU55Fiy1Y9XaiukjbXVoDfnUqO+qlxEkhX0Mk4KOLfZ6gxk1y9OvX7/fFx8ZSAc0H8NPGBqkZaVB+lGdTqf87kMcz082PeLMYvlL1UT9Ajtd6ajPPuhMozHUwiJtuFQCPdTgIxuNxlI7lirP2yxpTnqE4XkerYJaRtn59UhUDQM8+wAmmCQFU6Dxs9mMfsfY601lfDapHY4vqx+kVGq1WrPZjJ6D0PEtjo/dLnFmtf6GNQmCYDqd0pMOXo3g/IwVX9Bk56nElAv70BKoEBrfarWk25PYHaupLd1cNBoN/oCWdpemhvR4xWSvlgWmJEUtCDuOgTl7e3s3b97EblwW6hh29+7dvCtigXa7feHCBTe2hajVak+fPv3www/5GLyjCfLh448//vLLL4+OjvKuSFomk8lkMvn444/zrshqQVKAfFhbW3v06NEf/vCHcvW+lzg9Pd3d3X306NHa2lredVktSIqKUtOSTR0uXrz45MmTFy9eZLO6VTAajT799NOLFy/mXZGVg2+IVZSCNKysra2V+va+1JVfClxTAADiQVIAAOJBUgAA4kFSAMbM7LLZVIPes1iR4Hd1OK/eRVKUG1teXBO77KqxKODNQBcs4b56N5d3RV3CvIfYKrDoxc33eLAr4F21LjgUl9S7DMZdl8jAi5sZFgW8ee0Wt9W7SIrs2N/fr9frtVrtwYMH0mVqlCFWT6hEN1lRItyjKy5r7rBNL+DVC34lR65qwVV3S6iC2Ny+qxp9oyTALqt387q8cQbDuw+6Hqara65y5QtGGWJjUf+JKYuiGlJ3dUlFq3fYWhTwhgp+QwuMsuBKuyVUQWxi3w01+mokwM50P2fodW4dw6SQjl0m9FzWG2KXKtZiUeJgYoetNLiUgDfqtJcmhVpwpUUMFcRqVUONvlFbETik3kVS2McwKSSbq3hQ6g2xekJ/PK0UZV5D86QwF/Aans9RFly1wMBAQaxWNXRHRW2FZtWlA0lhn6WcV/Q7TH9LqkhxZvOjLfYwtVJU4jM5tpyU5Zt7ek0UxCZV1U+KnVoWkBT2MX9KOhwO6TeN3+USekOsHum4tFiUOJjYYRuEnX4mAl7zJAqiPb18BkMFsbrJoUbfqK2Iql4ZQVLYx7xFM6plUW+I1RN6SlgpShxM7LCVBpcS8JqczyzCghubVoZVDTX6Rm0FL8QB9S6Swj5LtWiKkKkx0BpiY5EkuomLkky5korW3GFrRcCrEfxKFWMRFlxpt4QqiPUla4y+UVsR4NkH0GDeTqG2hInnW6gh1qRY9rpEN1lRYq3UQU2x+gXVckwEvCyC0PJDLbjSbglVEJtscpTRN0oC7Ix6l8G4ax1D4+7p6ekbb7xx+fJlccw777yD/U+4IeB1Rr0L424+DAaDK1euiDHBGLt06ZL4ClbFcUDA67Z6F0mRBZ999lmv1xPfFD49Pd3b27t161aOtSoUZRfwOq/eRVJkwZMnT37605/+8Y9/5F0Pvv/++9u3b8cuaNGLWwTFrp5SC3idV++inSIt+DIQcA+0UwAAkoCkAADEg6QAAMSDpACMKcZdLrzN3cQLB29BQFKUm1Ubd/M18cLBWyByeFPULZw37uZ1nMDBmyMMxl2XcMm4qwIHb6FAUmRHWYy7oW0T3DErGnTn8/loNKrX677vN5tNakeI0tuKc/7FX/wFf+mLmiHYuTu3VqudnZ3BwVs48rq8cQbHjLvB68JbPp5qzvtiU3dJUVpLOpnAQG9Lc3I3r1R5KhkO3nxh6HVuHSeNu1F/B+fabgojPlUMI73eVpyTeovzODg+PuZVhYM3X5AU9nHSuKs5eWKnErF62+BcG8FDh18OLLtSdWfCwZsSJIV9nDTupkwKE70tQSf2YrFYLBbidX7ipICD1wpICvs4adyNTYoo3W5grLcleIAOh0PxgWjipODFwsGbBiSFfZw07mpOHvHiSJ1qXg6HTmnpFgkO3nxBUtjHPeOupMmlVVDcUCM/Pw34nGqVovS26qqp2ZW3VhBw8OYLksI+7hl3RWjqeDymyjcaDfEKhc8mXhHo9bahzavUXiCOgYM3X5AU9jFMipOTE/EACs4fN66sXqVBasvkdDqd0j1cVGm1WmXcCjUp8I5mFsC4q2Fvb+/GjRvqeDh4CwWSIgtg3FVpt9v83e3r16+rM8DBWyiQFFkA464KXWF1u93t7e2oeeDgLQ4w7qYFxl3gHjDuAgCSgKQAAMSDpAAAxIOkyILcvbVRwGcLDEFSZEG+3loW4ZuFzxYsQT6vgDlEMpNNxqi+WfhsgQaGdzQrSKhvFj5bsBRIinzQe3ETuHmld6jEQdU3C58tWJq8Lm+cIdndh8aLm8zNK3Xr5j0jQ9cOny3Qw9CX1DoJkkLvxZXOOmbs5lUXjDqT4bMFepAU9kmQFHovbmI3r3lSSIPmM8NnWxGQFPZJkBT6EzWxmzeDpIDPtiIgKeyTIClivbjJ3LwZJAUBn63zICnskyAp9F7cxG5e86SAzxboQVLYxyQpJIet3ovLFAzdvPQ7T7+91NjJXn/uwM8x+GyBHiSFfUySQjzKaYzGi5vYzTudTmlBOnPozkUVzAbw2YI41KSAySYt1k02p6enb7zxhijdPD09feedd+z+p6hj2N27dy2WmT3tdvvChQtl34oCApNN0cnMzQufLVgKJEWxyMzNC58tWAokRbFI7OZNAHy2wBy0U6QFxl3gHminAAAkAUkBAIgHSQEAiAdJ4QirlvoWVhqcJVUWFCMpMmLVTtpVS31zlwavGt/3j46Oer1eVBpWXVCcw5uibmHYQywDJ+2q/6FuHzCtVoteGA/dxqoJihmMu7mQl5MWmLO9va35ljIExUiKLFCdtCyFdFczSSTKUquZfzQa0bU3+XKbzebp6WnozKpTl9ZF0M08O9fz1mo18a3TBKsOVfhqJMPi2kU5cOI9A0GxsxeTmZH4ex/JpLuaSeIqNJZafQ154YvFQuzGLpUf6tSlnp1iR3jazNi+nrGrDl2dXjIcJQfW75nQk6KCgmKGXufWSZYUiaW7hpM0llrzSmrcfFFOXeqQzk+q4+Nj0dmVeNUJFL4sQg6s3zOhSVFBQTGSwj7JksKWdDfqwNJbag0rqSmfUJ26dIbTtVIg/KimXHXU6jTnUpQcOIG/d6ndYlKH0LUUSlDMkBTWSZYU+oNPI9019PEaHhD6SurLDHXqBuenx2KxoJsIK6uOWp1mr5rLgfXViK2blToUTVCMpLBP4i8DsUTSXc0k9UiKstQa+iCzlQAADbhJREFUVlKqlTg1yqkbCFk2HA7NHyvqV51A4csrEyoHXsrfmzgp9HXgMxRQUIyksE+ypEgs3dVMEleht9QaVpJ+4ngDWNRBrB58dGLwmykTrKxamhQqB47196r/zQoKipEU9jFMCslJm1i6GzVJkvpqLLUaaE66TqHmen62S+WHOnV5OdRAy1srTNCsWrM6jWSYRciBNXuGS4ClLK6goJghKaxjmBSSkzZIKt2NmiQOUiFRlloNtDhfRbfb5bWSyg916opF0V23yUpjV61ZnUYyzCLkwFF7hinw+SsoKGZICusYJsVSnJycSCce/droJ6VHOkMSs1Rbpt1Vr4hOp+PA109brZbhVqhJgXc0C4dGupuZjzcle3t7N27cyLsWNoGgGElRODTS3ZX6ePlLvol7HLbbbf7u9vXr17Nc9aqBoBhJUTg00t2UPt6alkuXLtFs/I9loYudbrerdrVa9aozoOKCYhh30wLjLnCPGoy7AIAEICkAAPEgKQAA8SApHAHG3QyAcResHBh3C87Z2Vmz2STdVqgIC8ZdkAoYdx1gsVjQ++CLxYJeY5M6R8C4i2uKLIBxt+AcHBzQxcLa2hq9xibdZ8G46+ZPRJaYXFNwPby4z/nPF2Os2+1K/XbG4zEdu51Ox3CS9A/lfZM8z+P92TXMZrPhcEg9OHmnZrHrkVR53r2NujZxXxMTekPxkfouarGrVlcXCC+wiNUT9wCtnfbtUnuGve4KocX5nLPZrN/vU23Fv+lKwfM8cWPVOqgHQ+jWxZYsHT/S/gzdQMnJqIGhh5h1YNxlDhl3g/P+3eLdB4y7AZIiPTDuSucnK7NxNzi/ZBPv52HcDZAU6YFxVxxfduMuzSC1XC61W0zqEPrvgHHXcWDclcaX2rjb7/dVVVfipIBxF/wZGHelpcpr3D0+Pg69R0ucFPo68Blg3K0EMO6qB18ZjbvSLqLTm/6GcTdAUqQHxl1xPFE6464ksCV4TsG4GyAp0gPjrgPGXWkHEtK5B+MuSAWMuyow7hYTGHedAsbdAgLjLpKicMC4W0Bg3EVSFA4Yd4sJjLuRLTTABBh3gXvAuAsASAKSAgAQD5ICABAPksIRYNzNABh3wcqBcbfgzOdz/pR3MBiEzgDjLkgOjLsOMJvN+Mva9Bqb9C4jjLu4psgCGHcLzqtXr7hNl15j29raEmeAcdfNn4gsgXHXMeMu9doUu2bDuBugh1h6YNxlDhl3eS9MMadg3A2QFOmBcVc6P1lpjbtiX2+xnQLG3QBJkR4Yd8XxDhh3yZEnbsVSu8WkDqH/Dhh3HQfGXWl8qY27fFn9zrReBxh33QfGXWmp8hp3o+qTOCn0deAzwLhbCWDcVQ++Mhp3RejfwVMYxt0ASZEeGHfF8UTpjLue50nPKcTTCcbdAEmRHhh3HTDuUhYQnU5HummCcTdAUqQHxl0VGHeLCYy7TgHjbgGBcRdJUThg3C0gMO4iKQoHjLvFBMbdyBYaYAKMu8A9YNwFACQBSQEAiAdJAQCIB0nhCDDuZgCMu2DlwLhbInq9nvrPgnEXpALGXcegd6ulLYVxF9cUWQDjblnwff/58+fqeBh33f+JWDUw7rpk3KVdqu5JBuNu7DJAD4y7zBXj7ng8pgpI/ywYdwMkRXpg3JXOT1ZO4y5JAEKLhXE3QFKkB8ZdcXx5jbviBbym2NjdYlKH0H8HjLuOA+OuNL6Mxt3hcCgm2lL/LCt1gHHXfWDclZYqo3GXRaCpW/o68Blg3K0EMO6qB1/ZjbtSsTDuBkiK9MC4K44nSmfcDa0MH4RxN0BSpAfGXQeMu6GV4YMw7gZIivTAuKsC424xgXHXKWDcLSAw7iIpCgeMuwUExl0kReGAcbeYwLgb2UIDTIBxF7gHjLsAgCQgKQAA8SApAADxIClKRu7mW6kCGvfsSqvK5bfmK01vna00q3jBo1Ks4s0rDfx1TP1s9PJvBhVotVpR/QgMq6qyWCwODw+pe2XoDLPZTJJiRa1U3A/0AqjJG4qA4R1N62ScFIHZ64wrdbqan//JkoLSJ2rZWPmtuKC0H5ayzlYZNSlw9+EgZRf8bm9vq29kcMzlt+p+SGudrTBIiizgrxipg/P5fDQa0X01fWai2Wyenp6Ki/u+PxgMarVavV5XJ9FS9CIWvePY6XTowxziSunGngrZ3983rDkt0uv15vN56CcwpEYBTVVD68A33/f9ZrMZ+7md+Xy+tbX1y1/+0mT/hO6HGzdubG1tFfZl0OKS1+WNM5jcfWjcsPwfESWbDYLA8zxuIuBdPGhSqKw1COsNuayANzAQxoru2diqhtZB9MqS8YUXFXp8Sh3AY1eqFmLe87rKMLRTWCe9HU+aJDnv6NzgwcE9BTRoKGtNLOCNFcaKf+urGlUHmkdtOwhNClV+q1+pWoi5dbbKICnsYz0ppDGSYjd0/lhZazIBr4kw1ryqUXWIqkzoeHWkfqWGhQAJJIV9Vp0U+qnB8rJWc0yEsWk2JMH42L1hslIkRSxqUvyEgUIiaayiGAwGm5ub0+lUklaEcnp6euXKFfM6XLlyZTgcTiaT3d3dra0txtjdu3fNF7dSB1AQ8OyjcFDr/QcffECDZNCL0iJsbGyw8+7eGqiQJ0+e0EuKUS84StRqNd/319fXd3Z2jo+PKSxi1xJV1WR1kKCbLPFVS/1Ko5A++QfiyevyxhkM7z70blgWLZultnr+TUp6asBe/yadqqKVnK6JBbyqMDbUN0sr1Vc1tA7qR0AJ3jApNZGozz5M9o/op8azDxMY2imsY5gUejcsi5bNBueOdnau4RaXjVLRqoLfZAJeVRir/8nRVDW0DnxxMRyjCg8U+e1S+4dmNrfOVhk1KWCySUt6kw29FIR/hCF0z5K4xaTdbl+4cCF9g4vbwGQDSk8a+W1K62yVQVLkTPFls0Ujsfw2vXW2yiApciZH2azegptxZZYimfw2vXW2yuB9ipzJsXmi1C0ja2try7Y1oG0iDbimAADEg6QAAMSDpAAAxIOkKBkw7vLCYdzNlBze/3ILGHetG3fFdy7H47E6A4y7q4bhbW7rwLhrZU7OYrGgF94XiwXJb6Q+GjDuZoCaFLj7cJBSG3cPDg6o/8va2hp9w126lYBxNx/yCi1nMLmmkPa2ODibzYbDIfWPog7U6nU1/3VVjTWLxYKWYkI/KKlLNc3J+3p5nhd6SR8KLdLtdkPteLPZrN/vi527NFUNrQPffBKIqjcyTJCDBuc9xKT6R600dD9QZ1Pcg+hhuPuwDoy74oosGneD81YG8e4Dxt1sQFLYB8Zd/rdd424QBOPxWGpWgHE3G5AU9oFx17Cqyxp3aRGp5VKdGcbdVYCksA+Mu4k3RD++3+93u93YmROsFEkRi5oUePZRUJYy7j58+NBEY6t+1EsPGXep+WBrayuB9jJxHSaTycuXL2/fvp1+jcAKSIrCAePufD5/8eIF/zTpZDJpNpv0N4y7uZHX5Y0zwLjLrBp36RGJNCd/VAHjbjYwtFNYB8Zd8VRPb9wNve3ijzZg3M0GNSlg3E0LjLsZA+NuBsC4C0oPjLu5gKTIGRh3lwXG3VxAUuQMjLsJgHE3e2DczZkcmydK3TIC427G4JoCABAPkgIAEA+SAgAQD5KiZMC4ywuHcTdTcnj/yy1g3LVu3KX3TWlZesldnQHG3ZXC8Da3dWDctTInZzab8Ze1SX4jWWdg3M0ANSlw9+EgpTbuvnr1itt0ybgr9WGFcTcf8gotZ4Bxd3XGXbp3EEfCuJsNDHcf1oFxV1yRReMu73gq7goYd7MBSWEfGHf53xaNuzxM2evtFDDuZgOSwj4w7hpWNYFx9/j4mKKBCzXVmWHcXQVICvvAuJt4Q0zqpt+uZCtFUsSiJgV6iBWUpYy70+k0VqXJGDs9PTUR83LIuDuZTHZ3d+kBRPpOVgnqkHKNwAp4Slo4YNwVoZl5OyWMu7mR1+WNM8C4y6wadz3Pk565iI2vMO5mA0M7hXVg3BVP9fTGXcoCotPpSO9iwribDWpSwLibFhh3MwbG3QyAcReUHhh3cwFJkTMw7i4LjLu5gKTIGRh3EwDjbvbgfYqcybF5otQtIzDuZgyuKQAA8SApAADxICkAAPEgKUoGjLu8cBh3MyWH97/cAsZd68ZdEerWIY2EcXfVMLzNbR0Yd63MGQq9iy2VAONuBqhJgbsPBym1cZfj+/7z58/V8TDu5kNeoeUMMO6uyLjb6XTUnqYw7mYDw92HdWDcFVdky7g7Ho9ph0jlw7ibDUgK+8C4y/+2ZdydzWZR4kwYd7MBSWEfGHcNq2pu3OUxoU5VZ4ZxdxUgKewD427iDQkdPxwOxZuL2A1JsFIkRSxICvusKCmiWhykMXRJL/qjNKsLfQEhFmo+YIr2ynBDpKlqHUKrqmKyCpMqRY0EImpS4Clp4ai4cVc9ZJlwkwLjbm5kF1OOAuMus2rcVevAXr83YTDurh6Guw/rwLgrnszpjbtqHcTdC+NuNqhJAeNuWmDczRgYdzMAxl1QemDczQUkRc7AuLssMO7mApIiZ2DcTQCMu9kD427O5Ng8UeqWERh3MwbXFACAeJAUAIB4kBQAgHjQTmGHGzdu5F0FAFYIrinS8vbbb//mN7/JuxYA2OQ3v/nN22+/LY7BO5oAgHhwTQEAiAdJAQCIB0kBAIgHSQEAiOf/AyeESFEX+7QoAAAAAElFTkSuQmCC;" vertex="1" parent="1">
          <mxGeometry x="320" y="-640" width="355" height="758" as="geometry" />
        </mxCell>
        <mxCell id="s5Hh8r9x0Z7aiqoJIuo2-5" value="" style="shape=image;verticalLabelPosition=bottom;labelBackgroundColor=default;verticalAlign=top;aspect=fixed;imageAspect=0;image=data:image/png,iVBORw0KGgoAAAANSUhEUgAAAbgAAAGOCAYAAADl6RYDAAAABmJLR0QA/wD/AP+gvaeTAAAgAElEQVR4nO3df3AjZ30/8PeGhFwaDl+aYIckvQAHPtoyY9qBxAck+YYkHAldpe2c72xmjg7gOyQSmtzZkB9IdcMdOUhk8uuIjeQZmvHMSbZL20gQEohNL0Bk8oORO1OolSbNumeolJBKTQg/Anm+f1yevd3VrrQrS1pZer8ynpz2x7OffVbaj57dR/soQggBIiKi9jJ3kt8REBERNQITHBERtSUmOCIiaktMcERE1JZO9jsAWj8GBgb8DoGIXNi2bRv279/vdxi+Y4Ij1/7xH/8R/f39OO+88/wOhYgcLC4u+h1Cy2CCI0/27duHnTt3+h0GETnglZYTeA+OiIjaEhMcERG1JSY4IiJqS0xwRETUlpjgiIioLTHBERFRW2KCIyKitsQER0REbYkJjshHhUIByWQSgUDA71AaqlP2k1oLn2RC9BpFURznRaNRvPGNb8SePXvqus3h4WGk0+m6ltmKxsbGMDk5WXW5UCiEyclJcBxmqge24IheI4RAPp83vZZ/f/Znf4a9e/cimUzWdZupVKqu5bWqiYmJqsusrKzoSXBpaanRIVEHYIIjMuju7rad/sEPfhAAcOTIkWaG01Hm5ub0hP/YY4/5HA21AyY4Ig+slxNLpRLi8TgURYGiKIhEIigUCmXLJJNJfZl4PF5xGwsLC/qyxsumCwsLCAQCUBQF4+Pjpu0UCgWk02kEAgGUSiWEQiFEIpGKMRjXt9uedZr1Plo6nYaiKAgEAlhZWXHc50AggFwuV3GfS6USisUiVFUFAOzdu7dsGeM+AtDrPRQKmcp3uxx1AEHkEgAxMzPjdxgNB0DYfTQAiEQiYZoWDAYFAJHP54WmaQKACAaDpmVUVRXhcNi0jvG1dXuapolYLCby+bw+LZVKCQAik8kIIYRIJBL6egCEqqr6vzOZjMhms6Y4VFUVsVhMCCFEPp8XqqoKVVVFsVjUp9nFYZxm3YZxGbt9DgaDevnGeO0kEgmRzWaFEELEYjEBQH9trSfj9ovFon4MlpeXPS3Xrnbs2CF27NjhdxitYJYJjlzrtARn/QuHw/oJWwqHw6aTu/UkLk/sxmSVyWSEqqq262Sz2bIkaleunBaNRsuWscY4Pz9vG4M1YTttwzjNzTIyGRsTSbFYdExwMvlI2WxWANATcrV6kMvb1UW15doRE5yOCY7c67QEZ5TP50U4HBaqqpoShaRpmohGo2XrylaPm+1lMpmylpAkWx+V4nRKIHbryoTjlGi9bMM6zW57leKbn58X8/PzZcsaY6tWhtu6qNSKbBdMcDomOHKvkxOcECcu4xkvLwpx/JKaqqpieXnZ9YnWbnuytScvqxnJ1odscblttXiZXq8E5zUO46VP65/1ciITXHVMcLpZdjIhckn2sDx48KA+LZlMYu/evTh8+DB6e3vL1pGdJtx0ex8cHEQ4HMa2bdvKOqr09fUhlUphdXVV78ySSCQwMjJStVwZg7VMAAgGg1XXb6TFxUV89KMfNf0kQwiBbDYLAPjxj3/suiy3++L3PlPzMMERuSR7ChpPkENDQwCAzZs3264jk8vk5CRKpZJeTigUsl1+dHQUqqpibGzMND2dTuPiiy/GyMgIhBBIpVIYHBx0FfdHP/pRAMAzzzyjT5OxDAwMuCrDi1gsBsBdUr/vvvtw5ZVXlk3v6+uDqqqufpYhe0ZeddVVdVmO2oivDUhaV9ABlyiNvQmNnTWWl5dFOBwuu2wmL69pmma6RCnv08keizBcdgsGg3oZdtuTPRONnSzgcAkvGAyKfD5v2wtSKhaLeq9JGVcikSi732ftZSg7ohi3Y43V2HlEli3jV1VVaJomhDjR0UWWJWOwXu41kvVt1xFGTisWi/q9USO3y7UjXqLU8R4cudfuCc4piciTdSwW00/YkrwXFg6H9Y4owWDQtJycLpczJkjrdoQwJwM5LZvNOt6rkonJGKtVPp/Xu9/LE7+1t6Wmafo2UqmUEOJ4Ak8kEqbkZozLbposS8Ylk2Olsqz1arefxp8tGOsjFouV7Yvb5doRE5xuVhGCD30jdxRFwczMDHbu3Ol3KB0nl8thw4YNZZdCc7kctm7d2jHPbpQ/Oq+2v26Xa0fysvPc3JzPkfhujvfgiFpcMplEb2+v7X2+np4eJBIJH6Iian1McEQt7siRI4jH42WPw8rlcpidnXXd2WS9sz6abK3LUftjgiNqcdPT09i4cSMOHTpkeublsWPH6j58Tyvr6emx/Xety1H743hwRC2uq6sLg4ODGBwcdDXsTLtyez+tE++7kT224IiIqC0xwRERUVtigiMiorbE38GRa8bBMImode3YsYO/gwPm2MmEPLn++uuxbds2v8MgIgd33HGH3yG0DCY48mTbtm18kglRC2PL7QTegyMiorbEBEdERG2JCY6IiNoSExwREbUlJjgiImpLTHBERNSWmOCIiKgtMcEREVFbYoKjlhCJRBCJRNZNudSaCoUCkskkAoGA36FQC2CCo4ZaXFxEKBSCoigIhUJYWFhAqVTicy1bSDsdo7GxMQwNDSGdTpumt9M+kgeCyCUAYmZmxvXymUxGABCJREKfls1mhaqqgm+91tCOxwiAKfZ23MdKduzYIXbs2OF3GK1gli04apj77rsPADA4OKhP6+vrw4EDB/wKiSw64Rh1wj6SPSY4apjV1VUAwNLSkml6X1+f6bXTfZOFhQUEAgEoioLx8XEUCgXHddLpNBRFQSAQwMrKiu0ybtZxq1AoIJ1O62XF43H98lculzMtWyqV9PmKoiASiZj2pdq+Grc5Pj6ux7ywsFAxRjf3H90eI7cxlEolJJNJfV/j8XhZGXbLeD22dmUFAoGyuq9lHyvtg/G4l0olhEIhUx1Xqx+n+fV8b5KB321IWj/g8RJlNpvVLxfFYjFRLBZtl5OXioxvx1QqJQCITCYjhBAikUjoywAwrSOX0TRNABDBYNC2XDfreKkLa1nFYlEEg0EBQCwvL+vLymn5fN52e9X2VQgh8vm8UFVVv8w2Pz8vAIhsNusYYzgcFuFwuOJ+uD1GbmNQVdW0zWAwWBaDqqoiFouZylRVVd+2l+OkqqoIBoP6usa6q2Ufq+2DNbZsNqvHVK1+Ks2v53uTlyh1s0xw5JrXBCeEEMvLy/oJHq/dB7E7wVhPStbXclo0Gq26TKVy3Kzjlt168mRqjDMcDptOUrXsqzxxW5eplsDccHuMqsUg5+fzeX1+JpMRqqrqr+VJ3bqM3K6x3GrHSX4xMH6ZKBaLtut63cdK+yDLsK7vtn6c5tfrvckEp2OCI/dqSXBSJpMxnWBSqVRZ2cYPsly20jKtmOAqTdc0TUSj0Zr21fgN3/pXL9WOUbUY3HTasNtXmZTskoiRm3pzWtfrPlbiVL7b+nGazwRXd0xw5N5aEpwkvw1bTy7WD7JsCclv9XYto/WU4GKxmFBVVSwvL9dtXxvF7TGychOj2zqr5dh6iaPWfVzLdmuZzwS3Jkxw5J7XBAeUX8YR4sS9hWonq1Qqpbd4jPcuKq3TKgnOeElSXprSNM1xPbf7arwcVw+1HCOnGGTCqHRfUC5jvAQoy650Gddumpdk6XYf3exDte061Y/b+W62VQkTnI4/E6DGevLJJ8umbd68GQCgqqrjeul0GhdffDFGRkYghEAqlTJ1825VshffVVddpU8bGhoCcGK/rdzsaywWAwBMT0+jVCoBONEjb63cHqNqMchlJycn9fkrKysIhUJ6GR/96EcBAM8884w+TS47MDDgKW4Zj7V3pB23++hmH6rF41Q/jTyG5MDvFEvrB2powQEQ8/Pz+jfoYrGot2iMvcvksvKbvXxt/QsGgyKfz5vWMZZtLMdarpt1vNYHDJcWi8WiCIfDpntJQpxoFWiaZrpE6XZfrXVk/JOtQjtuelG6PUZuYpC9BK37YO0EIntNyn1LJBKm1pvb4yRbYKqq6jHITixy27XsY6V9MMZm5aZ+nObX873JFpyOlyjJvVoSnBDHe7DFYjH9wxoOh00nPesHXghR1nXaesKxW8cpUTj9OW3by/7JE6SM1a4burynFg6HRT6f13tVyhNftX2VNE0T4XBYn14puQnhPsEJUf0YuY1B7l+lMvL5vGlb1h6NXo6Tpmn6+0F+IZCXeI1fILzsY6V9MMZg/SLjpn6c5tfzvckEp5tVhBACRC4oioKZmRns3Lmz4dvK5XLYsGFD2WW9XC6HrVu3ohXetvI5hmuNZT3sK60f8lLv3Nycz5H4bo734KjlJJNJ9Pb22t6z6unpQSKR8CGqxuikfSVqtpP9DoDI6siRI3jxxRexfft204k/l8vh6NGj2LNnj4/RHWd9tFR3d3dN5ayHfSVar9iCo5YzPT2NjRs34tChQ6bnNx47dqzhJ3y5vWp/PT09+jrGf3vl574StTvegyPXmnkPjohqw3twOt6DIyKi9sQER0REbYkJjoiI2hITHK07bgbyJCJigiMiorbE38HRunPgwAG/QyCidYAtOCIiaktMcNQQhUIByWQSgUAAwPEhYRRFQSgUwsrKCoDjj6myTgOOD58Sj8dNP3yWTw6xluu0nUAgYCrTi/HxcSiKgng8jkKhoD9z0hifjF0uZ9zvdDqNQCCAUqmEUChkul8oh0eRMS4sLJTVm938RuwnUdvz8UnPtM7Aw2gCxqfjy+FIMpmM/hT1TCYjhDgx5Inxqfny6fD5fL5svrFc6+tKZboVjUb1J7zL4W+sHxNVVU1P6Q8Gg/prazzZbFaPw/ikeyFODO1iHDbIaX6995PaF0cT0HG4HHLPS4KTy1uTg5tpcjgZp/nVXjtNcxuzcewtOU6XJMcQMy6TyWRMQ6fIbVuHzZHrWrcnk2O1+fXcT2pfTHA6juhNrefAgQOYmJjAyspK00c7DgaD6OnpQTKZRKlUQnd3t2m4miNHjgCA6eHK/f39SKVSZWV1dXWZXst1jc+0BICDBw+6mk9E3jDBUUuKx+O49tproapqU7e7b98+qKqKoaEhbNq0qSzBptPpmsuW6wohyv7czCcib5jgqOUkk0ns3bsXhw8fRm9vb1O33dvbi1QqhWw2i2AwiNHRUVOSkwl3aWmp5m3kcrk1zScid5jgqOUMDQ0BgO0goI2mKApKpRL6+vowMTGBbDaL0dFRfb5McJOTkyiVSgCAlZUVhEKhqmXHYjEAx4fIkevKXpNu5hORN0xw1BDGAUGNJ2vrfLtpMomsrKyYWjOFQqFsebvtyP9by3crGo3qXe/POOMMRKNRfd7VV18NVVUxOTmJTZs2QVEUHDp0CPv27au6vauvvhrA8Xtqct2enh59eJNK8xuxn0Rtz6feLbQOwUMvSrzWuw+GXn5up2WzWb33YD6f13tVym7xlf6cyvSyj/l8XkSjUQFARKPRsmVkTDLG5eVl2/029qyUNE3T15X75GZ+vfeT2hd7UepmOeApucYBT4laHwc81XHAUyIiak9McERE1JY4mgC1PeuzJJ3waj1Re2GCo7bHxEXUmXiJkoiI2hITHBERtSUmOCIiaktMcOSbSCRiGgyUiKiemOCIiKgtsRcl+ebAgQN+h0BEbYwtOCIiaktMcNRQ4+PjUBQF8XgchUJB/9F1oVBAMplEIBAwLb+wsIBAIABFUTA+Pl42eoBxnXQ6DUVREAgE9Kf/W0fDtptWKBSQTqf1cuLxOBRFQSgUWtNYbE77KpVKJSSTST2WeDxu2jcZU6lUQigUMt2flMPmyP1dWFgwle00302dEbUtfx/2TOsJPIwmIIQQ0WhUfxp+sVjUn5IvhBCqqpY9BT+VSgkAIpPJCCGESCQSZU/nl/+Wy8gRBoLBoBDi+JP+reUaRyGQ+2Etp1gsimAwKACYRgeox75KqqqKcDisvw4Gg/pr675ls1nTPqmqKhKJhBBCiPn5eQFAZLPZqvPd1Bm1F44moJtlgiPXvCY4vDb0jCSTj3F+pddymnHIGqdl3JRTbRk5TI/dEDnVVNtXmayNy2QyGdOQOjKmYrFoKluua92eTI7V5rupD2ofTHA6Jjhyz2uCky2iRCJRdtKW5RlPsnL5Sss0MsFVml5NtX2VLalKnLZtbIVZ/9zMZ4LrLExwulneg6OG2bdvH1RVxdDQEDZt2oTx8fGKyweDQQBAMpkEACwtLQGAaUTtVlVtX9PpdM1ly3WFEGV/buYTdSomOGqY3t5epFIpZLNZBINBjI6OVkxyfX19SKVSWF1dhaIoiEQiSCQSGBkZaWLUJxKtF9X2VVVVACeSdi2qdYBZSwcZonbEBEcNoygKSqUS+vr6MDExgWw2i9HRUcfl0+k0Lr74YoyMjEAIgVQqhcHBwabFKxPEVVdd5XndavsqE9zk5CRKpRIAYGVlBaFQqGrZsVgMADA9Pa2vK3tNuplP1LF8ujZK6xBq6GQSDof13oWapukdOIy9HWXHCzjcRwoGgyKfz5vWkfe5isViWTnW3pCZTMZUlnFbsueh7Plo7PThtW6c9lXur/VeWTAY1GO06/1pXNeuXuS2Ks13W2fUPngPTsdOJuReLQkun8+LaDTq2BvSeFK3dmu3JgO7deymaZqml5NKpYQQQu9Gb02mxm3GYjHbDiJr3Vcpn8/rPx8Ih8OmnyMY98EuyWqapq8bDAb15FZtvts6o/bBBKebVYTgnWhyR1EUzMzMYOfOnQ0pP5fLYcOGDdi8eXPZ9K1bt9a104T8ETbf/tRuBgYGAABzc3M+R+K7Od6Do5aQTCbR29tbltwAoKenB4lEwoeoiGg948OWqSUcOXIEL774IrZv325KcrlcDkePHsWePXvqti3r47+6u7vrVjYRtQ624KglTE9PY+PGjTh06JD+rMZIJIJjx47VNbkBx1uEdv+2Mj7DstIfEbUmtuCoJXR1dWFwcBCDg4OYmJho6Lbc3nfj/Tmi9Y0tOCIiaktMcERE1JaY4IiIqC0xwRERUVtigqOOsri4iFAopI/gvbCwgFKptK56Q1p7cS4uLjouu7i4yF6f1LGY4KhjLC4uYtu2bbjkkksghMDExATOPPNM7N692+/QPBFCQNM0/fV9993nuKxxXj6fZ89Q6ihMcNQx5MneOEJBX18fDhw44FdINZM/ho9Go5icnMTKykrZMisrK3j729+uv+YP2qnTMMFRQ42Pj0NRFMTjcRQKBf0SWaFQQDKZRCAQAHB8qBx52VCerJPJZNk0J5FIBJFIpOIyq6urAMrHZOvr67NdvlQq6THIfZAKhQLS6TQCgQBKpRJCoZBp+3K4GkVREAgEsLCwYCrbab5TvQQCAds6uPzyywEAjz76aNm8Rx99VJ9vt2/xeNz0o3r5hBe3MVQqQ1pYWEAgEICiKBgfHy+bX60uKtUxUVW+PeeZ1h14HE0gGo3qT7WXw9HIt5xx1IBsNiuEODGsTTAYFJlMRghx/Cn5clol4XBYhMPhistks1l9m25GDlBV1VRmMBjUXxvjz2QyIpvN6jHKoXHkUDzz8/Om/aw031pupTqQdSlHWrCyDg1knYfXRkCwlu82hkplCCFEKpUylZFIJMpGMfBSF8Y6JmccTUDH4XLIPa8JTp78JDk2mXG+9cTrdlqtlpeXTUPvJBIJ20QnT8bG+DOZjGkoG1mGdX25rnUfZHKsNt9LvQhxIinIRCLE8WQ+Pz/vuG44HDYlC+sybmKotQzjUEJu66LWYYw6EROcjgmO3POa4GQicUoifiQ4KZPJmBKdHDdOkq2HSpzichrTzq71ajffa4KT/zYmG2PLs1L9yYFZa0lw1cqwa1lal6mlLqgyJjgdExy55zXBLS8vm05g1kFA/UxwkmyVWZOcm206LVNt3VrmV0twsiUkR/GWl/wqbS8WiwlVVcXy8nLNCa5SGfKSsIxFvrYb+NZLXVBlTHA6Jjhyz2uCk+S9Ezcnt0YmOKdLXfL+kV3LQt43cyqvUoIzjthdy3w306z7kEgkRCKRMI34bbeuMSHaLeMmhmplCHH8Ppxs3Rnvta2lLqgyJjjdLHtRUsMoioJSqYS+vj5MTEwgm81idHTU15iefPLJsmmyy72qqvo0+e/JyUmUSiUAx7vdh0KhqtuIxWIAjg8BJNeVPQXdzK/F5s2bEQ6HMTQ0hNXVVduBY42Ghob09WpVrYx0Oo2LL74YIyMjEEIglUqZfqIBNKYuiHR+p1haP+CxBQcc7ywgv+HLezVCnOhwAkOryjhNdu6wm2bHTS9KWc78/Ly+zWKxqLdEjK012btProPX7nHJloYxLivjPOOfrIdK8+3qpVgsOtaLsU7kJUDrftjVn9w3TdNMlxfz+bzrGCqVYaxv618wGLQ9vpXqgtxjC07HS5TkXi0JLp/P65eo7C5PGk9gbqfZcZvghDh+bzAWi+llhsNh20tk+Xxe/2mDdRljTMaelZKmafq6wWDQdMmw0nw3dWD3J9n1arRbVibDcDis76eMw+1xqFSGnO/UicQYp5u6sKtjsscEp5tVhOCze8gdRVEwMzODnTt3+h0KrQO5XA4bNmwou4SZy+WwdetWPjasQQYGBgAAc3NzPkfiuznegyOiuksmk+jt7bW9P9fT04NEIuFDVNRpTvY7ACJqP0eOHMGLL76I7du3m5JcLpfD0aNHsWfPHh+jo07BFhwR1d309DQ2btyIQ4cOmZ5VeezYMSY3ahq24Iio7rq6ujA4OIjBwUFMTEz4HQ51KLbgiIioLTHBERFRW+IlSvIkk8n4HQIRVXDs2DGcd955fofREvg7OHJNDlZKRK1tx44d/B0cMMcWHHnCH3oTtTb5Q2/iPTgiImpTTHBERNSWmOCIiKgtMcEREVFbYoIjIqK2xARHRERtiQmOiIjaEhMcERG1JSY4ohZWKBSQTCYRCATqUl4kEkEkEvFUdrXlCoUCxsfHMT4+jlKpVJc4ieqBTzIhamFjY2OYnJz0texKyxUKBYyNjWHfvn341a9+hd27d2Nqagrd3d31DpfIMz6LklxTFIWP6vKBfAZoIz6qbsu2W65UKmH37t24+eab0d/fDwBYXFzErbfeiunpaXR1ddU9XqpOPqqLz6LEHC9RElFNpqam0NfXpyc3AOjv78e5556LqakpHyMjOo4JjmidkPe6FEVBKBTCysqKPk9RFP3PaZrbe26lUgnJZBKKoiAQCCCXy9nGMjo6iksvvbRs3sDAAEZHR1EoFGrdVaK6YIIjWieeeeYZjIyMIJ/PY3V1Feeff76eRPL5fNnymqaZXg8PD2NoaAjpdLridnbv3o2jR4+iWCwilUrhxz/+cdkyP/rRjwAAb3/728vmyWlyGSK/MMERrRPyUmB3dzei0SgA4P7779enWW3evNn0OpVKVd1GOp1GOp3Gvn379HtoV155Zdlyjz32mO02AOjr2bX8iJqJCY5oHert7QUA7N27t67lPvDAA6byAdh2Fjl48KBjGXL50dHRusZG5BUTHBHpGvWTBCI/MMERrWPBYNDvEIhaFhMc0Tq0tLQEALjkkkvqWm4sFjOV70TeA6z05JJwOFy/wIhqwARH1OJUVQUALCwsADjeRT8SiSAajWJwcFBfTrbmZOeOxcVFfV4oFDJ12y8UCmWvAWD79u0Ajj/SS/4MQW5XlgOcuEdnl+DkehdccIH3nSWqIyY4ohaXSqUwPz+PO++8E4qiYGxsDNdffz1GRkZMy910001QVRVbt25FOp1Gf38/VFVFIpHALbfcgp6eHn3Znp6estfA8V6Rmqbh3HPPxfnnn49QKIR3vetdpnIA4MILLwQA/OxnPyuLV06TyxD5hY/qItf4qC4yGh8fB4CyRBuJRLBp06ay6dQcfFSXjo/qIqLaDA8P4+jRo6ZLoUtLS1haWsLw8LCPkREdxwRHRDXp6urC1NQUbr31ViwtLSGXy2FychJTU1N80DK1BA6XQ0Q16+7uxvT0tP5w5VtuuYVD5VDLYIIjojXp6uri/TZqSbxESUREbYkJjoiI2hITHBERtSXegyNP7rjjDv6+hqiFLS4umkZZ72RswZFrO3bswHnnned3GOvKq6++ihdeeMHvMNatY8eO+R3CutPf349t27b5HUZL4JNMiBrkG9/4Bvbt24d3vetd+jhr5N7Pf/5znHPOOejv78c999yD97znPX6HROsLn2RCVG8//vGP8YEPfAA7duzAsWPH8NRTT/kd0rqkaRoA4PHHH8cFF1yA3bt3Y3V11eeoaD1hgiOqk+effx6f+cxn8N73vhePPfYYAEAIwZNyjZ599lkoioLf//73EEJgZmYGW7ZswY033oiXXnrJ7/BoHWCCI1qj3/72t7jrrrtw/vnn42tf+xpeffVVvPLKK/r8X/3qV/jFL37hY4Trk6ZpeP3rX6+/fuWVV/Cb3/wG4+Pj2LJlC2KxGF599VUfI6RWxwRHtAYzMzN461vfitHRUbz88sumxGb07LPPNjewNqBpmm0C+93vfofnnnsOwWAQF1xwAZ588kkfoqP1gAmOaA0+/vGP4+c//zl+97vfOS6jKIp+P4nce/rppx2/MAghIITA0tIS7rvvviZHRusFExzRGrz5zW9GtY7Ip5xyChNcDf7zP/+z6jInnXQS3vKWtzQ+GFqXmOCI1mDLli2ulmOC885utHCrV155Beeff34ToqH1iAmOaA22bNmCU045peIyv/3tb/HMM880KaL28Nxzz+HXv/511eWEEGzBkSMmOKI1eMtb3gJFUaoux9/CeeOlxcsWHDlhgiNag/PPP9+xIwQAvO51rwMA/Mmf/EmzQmoLZ5xxBt75znfipJNOqvgFYsOGDTjrrLOaGBmtJ0xwRGtw/vnnO3YyOemkk3D++ecjnU7jG9/4RpMjW9+2bNmCf//3f8fXv/51nHHGGTj5ZPvnwvPZqFQJExzRGtjd/znllFPwxje+EV/5ylewvLyMv/iLv2h+YG3gpJNOwsc+9jFomobPf/7zeP3rX192v9NtJx/qTJvjDtIAACAASURBVExwRGtw9tln60/bOOWUU3DyySfjmmuugaZpuO666xxbHuTeG97wBvz93/89fvKTn+DKK68EAJx88sk4+eST8ba3vc3n6KiVMcERrYGiKOju7gYAfOhDH8JPfvIT3HHHHdi0aZPPkbWfLVu24P7778f3vvc9bN26Fb/73e8q/sCeiMPlEK3B448/jgsvvBD33nsvgsGg3+F0jFdffRUXXXQRnn32WWiaxpYy2ZljgiNag4985CPI5/N4/PHHXf1cgOrn6aefxjvf+U5MTU3hb/7mb/wOh1oPExxRrZ588km8973vxQMPPIAPf/jDfofTkT7xiU/gkUcewX/8x3+wFUdWTHBEtbrqqqvw3HPP4bHHHmPrzSdPP/00/viP/xhf+9rX8PGPf9zvcKi1MMER1eKJJ57ABRdcgG9/+9vYvn273+F0tE9+8pM4evQofvrTn1Z9bBp1FCY4olp8+MMfRqlUQiaT8TuUjqdpGnp7ezExMYFPfOITfodDrYMJjsirxcVFbNu2DQ899BA+9KEP+R0OARgeHsbDDz+MXC5nGgWcOhoTHJFX27dvx4svvohHH33U71DoNbIVd++99+KTn/yk3+FQa2CCI/Iik8ngfe97H77zne/giiuu8DscMtizZw+++93vshVHEhMckRcf+tCH8Mtf/hI//OEP/Q6FLFZWVvCOd7wDX/3qVzE8POx3OOQ/Jjgit2Tr7bvf/S4uv/xyv8MhG3v37sVDDz2Ep556iq04YoIjcuuKK67Ayy+/zNZbC5OtuMOHD2PPnj1+h0P+YoIjcuPRRx/F+9//fjz88MO47LLL/A6HKvjUpz6FBx98kK04YoIjcuPyyy/Hr3/9a/zgBz9o6HYiiAAADuBAQ7fTzmQr7p577sHevXtrKoPHoS3Mcbgcoip++MMfYn5+Hl/4whf8DoVc2Lx5Mz7+8Y/ji1/8In7729/6HQ75iC04oiouu+wy/OY3v2l4643q57//+7/xjne8A3fddRc+9alP+R0O+YOXKIkq+eEPf4gPfOADWFhYwKWXXup3OOTBpz/9aXzzm9/EU089hVNPPdXvcKj5eImSqJJIJIL3v//9puRWQAFJJBFAAACQRhoKFIQQwgpWAABJJMumAUAJJcQRh/LafxFEUEDBtlyn7QQQMJXpxTjGoUBBHHEUUIAC8ygIJZT02OVyxv1OI40AAiihhBBC+r0qOV+WH0AAC1gwle00vxH7CQA33XQTCoUCvv71r3uqC2s80gIWEEAAChSMY1w/bm73QTH8J1mnGesYgP5eCSGEHHI110UnHXcTQUS2vv/97wsA4nvf+55puipUgdf+y4qsEEKIjMgICIigCIqMyAghhNCEpk+TgiIoICDyIl8231iu9XWlMt2KiqjQhCaEEKIoiiIswvq2jPsWFmFTvPK1NZ6syOpx5EVeqEIVCZEQQggxL+ZN9VNpfr330+jTn/60+KM/+iPx61//2nVdWI+DEEKkRMoUX0Ik9GUg4Gof8iJfVq5cRk4zlinLKYqi/r5ZFsue66ATj/trZpngiBz8v//3/8Sll15qO896onI7LSzCpg+vdX61107T3JCJVZInXEmetI3LZERGqEIt23ZRFE1ly3Wt25MnyWrz67mfRqurq+K0004TX/3qV8vKrlQXbo9DVESrLuP1eNotkxXZsu251YnH/TVMcER2FhYWBADxr//6r7bza01wkiY0ERXRpiY42QpIiETZiUqIE9/UK3HatvHbuPU/N/MbeaK75pprxDnnnCNefvllfVq1urBuWy5faZlGJrhK06vp1OMumOCI7F1yySXigx/8oOP8tSS4mIgJVahiWSxXPbnV8wSwLJZNJxxra8BNubWefGuZX68T3c9+9jNx2mmnicOHD+vTvNaFbEHJS212LapWTXCdetwFExxRufn5+YqtNyFqT3Dyko28J9LMBCfJeyjWk508Ccr7J3aqneic7hG5ne9mW7W49tprxZvf/GZTK04I57qw23ZKpPRWt/G+kpd9WGuCW8u9qQ487kxwRFaXXHKJuOyyyyouU2uCW+trp2luQJjvochWiBQTMf0kKpfThFbxnqF13bAI6+vmRV4/kVab3+gEJ1tx99xzj152pbqwbjslUraX96rFW68EJ1v7KZGqtqu2cXXocWeCIzJ6+OGHBQBx9OhRx2WMveGMH1o5Td6st5smvy1rQjNdosy/9p/Ta7mdoiiWlemWPNHI1qO8D2jcL+s9k6AI6t++7XoB2tWJ8T+5rUrz672fTj7zmc/orbhKdWF33Oxil/Xj5VhZe0PK3reyLOO2ZAtR9nw0dvrwooOPOxMckdHFF18sLr/88orLWD+sXqbJb89hERZ5kdd7VRq7izv951SmW/KkIS+z2fXIkzHJGI2XlozbtTvZakLT15X75GZ+vffTiWzF3X333RXrwum4OXWYkEnLzT5oQtPLka0xebnTmkyN24yJWNUWpJMOPu6zfJIJ0WsefvhhXHHFFXjkkUdw0UUX+R0ONcB1112Hubk5PP300zjttNNcr5dDDhuwAZuxuWz6VmyFQP1Oo/JH2PUss0PxSSZE0he+8AVcccUVTG5t7KabbkKxWEQ8Hq++8GuSSKIXvWXJDQB60IMEEvUMkeqICY4IwHe/+118//vfRyQSqb4wrVtnn3029u7di0OHDuFXv/qVq3WO4AjiiJc9PiqHHGYxi0EM1i0+6+O/aG14iZIIwMUXX4zTTjsNDz30kN+heGJ9pqATXu464X/+53+wZcsW3HrrrbjuuuuqLl9CCd/Gt3EURzGJSQBAGGFcikvxQXywrrFZj6fTceNxd4WjCRB95zvfwfbt2/H9738fH/jAB/wOh5pg//79SCQSePrpp/EHf/AHfodDjcEER3TRRRfh9NNPx4MPPuh3KNQkshX3xS9+Eddff73f4VBjsJMJdbaHHnoIP/jBDxAOh/0OhZro7LPPRjAYxJe//GW8/PLLfodDDcIWHHW0iy66CBs3bsQDDzzgdyjUZPl8Hm9729tw4MAB7N+/3+9wqP7YgqPO9eCDD+IHP/gBxsbG/A6FfNDT04NQKITbbruNrbg2xRYcdaz+/n6ceeaZ+Na3vuV3KOST559/Hm9961vx93//9xgZGfE7HKovtuCoMz3wwAP40Y9+hL/7u7/zOxTy0VlnnYVgMIgvfelLeOmll/wOh+qMLTjqSP39/TjrrLPwzW9+0+9QyGeyFTc2NobR0VG/w6H6YQuOOs+3vvUttt5Id9ZZZyEUCuHLX/4yW3Fthi046jgXXnghuru7kU6n/Q6FWsTzzz+Pt73tbYhEIvjsZz/rdzhUH2zBUWf55je/iccee4ytNzKRrbjbbrsNL774ot/hUJ2wBUcd5cILL0RPTw9SqZTfoVCL+cUvfoG3vvWtCIfD+NznPud3OLR2bMFR50in03jsscc4YgDZOvPMM/HpT3+arbg2whYcdYwLLrgAb37zm3H//ff7HQq1KNmK+/znP48bbrjB73BobdiCo86QSqXw+OOP85mTVNGZZ56Ja665BrfffjtbcW2ALTjqCBdccAHOOecc/Mu//IvfoVCLk624m2++GTfeeKPf4VDt2IKj9nf//ffjiSeeYOuNXDnzzDPxmc98BtFolK24dY4JjtqaEAIHDx7EX/7lX+I973mP3+HQOrF//3688sorOHz4sN+h0BowwVFbu//++/Hkk0/yd2/kiWzFjY+P4//+7//8DodqxARHbUsIgS9+8Yv4q7/6K7z73e/2OxxaZ0ZHR/H73/8e99xzj9+hUI2Y4Kht/fM//zNbb1SzTZs24dprr0U0GkWxWPQ7HKoBExy1JSEEvvCFL+Cv//qv0dfX53c4tE7JMeJ4L259YoKjtvRP//RP+Ld/+zc+tYTWZNOmTfq9OLbi1p+y38EdO3YMjz76qF/xENXFgw8+iKeffhrXXHON36EQgPe9730477zz/A6jJqVSCW95y1uwf/9+fmFaX+bKEtzs7Cx27drlV0BE1IZmZmawc+dOv8Oo2djYGO6++27813/9FzZt2uR3OOTO3MlOc/iAEyKqB0VR/A5hzfbv34977rkHd999NzstrSO8B0dEVEVXVxf+9m//Fl/5ylfwv//7v36HQy4xwRERubBv3z6cdNJJuPvuu/0OhVxigiMicqGrqwvXXXcd7rjjDrbi1gkmOCIil66//nq87nWvw1133eV3KOQCExwRkUuyFXfnnXeyFbcOMMEREXkgW3F33nmn36FQFUxwREQevPGNb8T111+PO++8Ey+88ILf4VAFTHBERB5dd911OPnkk9mKa3FMcB0oEonwkUNEa/DGN74R+/btw1133cVWXAtjgmsxiqKY/hYXFx2XXVxcLFu+kRYXFxEKhaAoCkKhEBYWFlAqldriSRVEXl1//fU49dRTcccdd/gdCjlggmsxQghomqa/vu+++xyXNc7L5/OuH6924MABHDhwwFNci4uL2LZtGy655BIIITAxMYEzzzwTu3fv9lQOUbt4wxveoPeofO655/wOh2wwwbWgzZs3AwCi0SgmJyexsrJStszKygre/va366+7u7sbGpNMpoODg/q0vr4+z4mSqJ1cd911OO200/i7uBbFBNfCLr/8cgCwHb7o0Ucf1edblUolxONx/bJlJBJBoVAAABQKBSSTSQQCAdvX6XQaiqIgEAiYEuvq6ioAYGlpybQtp8FES6USksmkHkM8HtfnFQoFpNNpBAIBlEolhEIh0z3BQqGA8fFxPY6FhQVT2U7z3e4LUb284Q1v0O/FsRXXgoTFzMyMsJlMTSaPQTAYtD0ewWBQX846X66Tz+eFpmkCgL68qqqmdYyvM5mMEEKUrSOEENlsVl8uFouJYrFYMX5VVUU4HDbFJF9bt5nNZvVt5fN5oaqqSCQSQggh5ufnBQCRzWarzne7L9RcAMTMzIzfYTTMSy+9JN70pjeJm266ye9QyGyWCa5FyWMgT+DyhC3E8WQzPz+vL2c9XuFw2HRCty5T7bXTtOXlZT15AhCJRMI20SUSCT3BSplMRqiqWla+dX25rjUWmRyrzXe7L9Q87Z7ghBDi0KFD4vTTTxeFQsHvUOgEJrhWZU1AxoRlbBlVOnlrmiai0WjdEpyUyWRMiS6VSpnmy5ZUtf2zW8bYCrP+uZnPBNd6OiHBvfTSS6K7u1vceOONfodCJ8zyHtw6kEgk9M4mhUIBf/qnf1p1nXg8jmuvvRaqqtY9nv7+fkxMTCCTyUBVVQQCAaTTaX2+8d9eyXWFEGV/buYT+eH000/XB0WV97vJf0xw68D73vc+AMc7liwsLOivnSSTSezduxeHDx9Gb29vXWJQFAWlUsk0rb+/H4cPHwYAvWMHAD2pWjukeJHL5dY0n6jZrr32Wpx++un4yle+4nco9BomuHVg8+bNCIfDGBoawurqqv4zAidDQ0P6evX05JNP2sYGwNRSlP+enJzUk+LKygpCoVDVbcRiMQDA9PS0vq7sNelmPpFfTj/9dIyMjODw4cNsxbUK60VL3oPzXz6fL+ukIXsxyt6ExuWsy8r7VJqmieXlZdMy1nWMr2WHj2KxWFaufD0/P29aTnb6sMZlvVcWDAbF8vJyWdxO+2790zSt6ny3+0LNhQ64ByfJe3Gf+9zn/A6F2Mmk9didvCW7npF2y8pkGA6HRT6f13tVyi7zlf7sypbThDjekzIWi+nzwuGwnriM5HbtljGWbexZKWmapq8r43Yz3+2+UHN1UoITQojbbrtNnH766fxC5b9ZRQjz3fnZ2Vns2rWLN+2JqC4URcHMzAx27tzpdyhN8ctf/hJbtmzBxz72Mdx2221+h9PJ5ngPjoiojk4//XSMjo7i3nvvRT6f9zucjsYER0RUZ9dccw26uroQjUb9DqWjMcEREdXZaaedhv379+OrX/0qfvazn/kdTsdigiMiaoBrrrkGZ5xxBn8X5yMmOCKiBtiwYQNGR0fZivMRExwRUYOEQiH84R/+IR9E4BMmOCKiBtmwYQM++9nP4t5772UrzgcnO80YGBhoZhxERG0pGAwiGo3i9ttvxx133OF3OB2FLTgiogaSrbjJyUmsrq76HU5HcWzBzc3NNTMOImpTiqL4HYLvPvWpT+H222/H7bffjjvvvNPvcDoGW3BERA22YcMGfO5zn8PXvvY1tuKaiAmOiKgJ9u7di7POOovPp2wiJjgioiaQrbhYLMZWXJMwwRERNYlsxX35y1/2O5SOwARHRNQkp556Km644QbEYjEcO3bM73DaHhMcEVET7dmzB29605vYimsCJjgioiY69dRTceONNyIej7MV12BMcERETbZnzx6cffbZ+NKXvuR3KG2NCW6dikQiiEQiAIBCoYBkMolAIOBzVETkxutf/3rccMMNiMfj0DTN73DaFhOcR4qiuPprprGxMQwNDSGdTq+pHLf7Vu99LJVKpvJaoU6dYiOql+HhYZxzzjn8XVwDMcF5JIRAsVg0vTb+LS8vNyWOAwcO4MCBAwCAiYmJupWbSCRM+yMZpyUSibptDwAeeeQR02trHReLRVMszWSNjaheTjnlFNxwww2YmprCs88+63c4bYkJrgZdXV2O83p7e5sYSf0NDg5WXebKK6+s2/ZKpRLi8XjZdGMdV6rvRnKKjahePvnJT+Kcc85hj8oGYYKrI3kpS7Y2rPfG0uk0FEVBKBTCysoKACCZTJZNA06cXOXluUgkgkKhYFuuW8b7dnbc3gvo6uoyLVsoFDA+Pg5FURAIBLCwsACg/FKj3bRoNKpfWq12KdKpPgOBgF53hUIB6XRaX0bWYSgUQi6X08uyu/RpneYlNqJanHLKKbjxxhvxD//wD/jFL37hdzjtR1jMzMwIm8lkAcBUT5qmldWbqqr6ctlsVgghRCaTEQBEMBgUmUzGtG4wGNTXDQaDAoDI5/Nl843lOsVjJxwOi3A4vKb9tMrn80JVVZFIJIQQQszPz5v2NxaL6fthXF7Or7QN63TjfjvVnZxvXKZYLOr1uby8rMfhdAy91itVBkDMzMw0rPwdO3aYjjv/OvPPxqzy2htQNzs7i127dvl2z2O9cPo2b603a6vO7bRIJILnn39ev79mnV/tdb1UKzeZTGJoaKhsX8LhsH6PMBQKYXJyEvl8HtPT09i9eze6u7urbqPWurNbZmlpCe9+97sRjUYxMjKyprLIG0VRMDMzg507dzak/IGBARw7dgz79u1rSPnU2jKZDO688067z+gcW3A1guVbg10Lzm45L9NkudFotGx+tdf1Uq1cY6vK+ifJ1pKqqnoLys02aq07t+WtpSxyD2h8C27Hjh0NK59aW4WcNct7cHWyefPmupcZj8dx7bXXQlXVupddL/IelbD0JhWGb1Pd3d1IJBJIp9N44YUX/AqViDqM44je5J2o42WsZDKJvXv3QtO0hiTPesvlco49SAuFAlZXVxGNRrFt2zbk83nTJcpmCgaDvmyXiJqPLbgGWFlZqdhb0Y2hoSEAjWkZ1lMsFgMATE9Po1QqATjRq1Kanp7GyMgIhoeHoaoqxsbGmh6n7EF51VVXNX3bROQPJrgayBO5nZWVFRw6dAgf+chH9G79xnWM04zd/q3T5GXJlZUVU/f2QqFQtrzd+naq/UzAyk25V199NQDg4MGD2LRpExRFQU9PDwYGBlAqlRCJRDA8PAzg+M8LpqenMTk5aYpD7qsxMRrr2K7u5DTjctYYk8mkvsz09DRUVTVd7pWtOVm/i4uL+rxQKOQYGxGtEx5u2JEQjh0qrH/FYtG204XbadlsVgAQ4XBY5PN5EQ6HRTAYNHVld/pz4uVnAl7K1jRNhMNhAUCP0VqGU7l2++q2jqvVZzab1TvBxGIxUSwWy+KW81OplBBC6D95kD9rsMZG3oGdTKiBKnUy4c8EqO2wa39racbPBABgbm6uIeVTa6uQs+Z4iZKIiNoSExy1Fbf3I4mo/THBUVvp6emx/TdRrbx2zqLWwQRHbUU4/NicyGpxcRGhUEh/GPfCwkLTxv+rNuZhPcZD9HP/WgUTHBF1nMXFRWzbtg2XXHIJhBCYmJjAmWeeid27d5ctaxx7sV6EEMjn8/rrfD5fNv6inG+d54aX/WtnTHBE1HHuu+8+AObxD/v6+uqeyCoxPs3H7sk+clotT/1phf1rBUxwRNRxVldXARwfZcKor6/P9Npp7MWFhQUEAgEoioLx8fGyzk3Vxi2shduxDr3sn1QqlfSxKRVFMQ30a9xuqVRCKBQy3ZN0Gg+y2vxG1ZOJhx/N0TqUz+dFIpEQqqr6HQp1KLTgD73lD/jh8BAAyW7sxVQqJYAT4w0mEgnTwwbcjFsoWcu2Ms4zbqPSWIde9s+4n8aHQASDQf21dX+y2ay+H9XGg6w030s9VVLph95McB4Z32TWN3UsFmu5p13IN/9aj6nTfjv91Yt8Iky1OPxgjY3stWKCE0KI5eVl0+cjkUjYJgLre8zuPQdARKPRqsu4mWadX215mcyM2/eyfzJBG89dmUzG9KVYlmFdX65rjVEmx2rza6kTKya4OnMaDVo+rspuzDM/1SvByW9hlcq1e0Ovhfy2bGR8DFq1b6aNZBcblWvVBCdlMhlTIpCPbZOs73O5bKVlmpngqpVTbf9kS6oSp/KrjQdZbT4TXIuyOwgy8XlpXjdDvRKcm3Lr2aopFouOHz4/W25CVI6NzFo9wUmy1WJNAtb3mmwxyS98di2oVkpwXvfPKY5atlvL/HomOHYyqSPZ22lyctI0Xd5gjcfjKBQKUBQFKysrpt+4jI+Pl02Tv1eR6yuKgieeeKLiDV/jzeJAIFB289lJtR+zaprmqpyuri7Tsk43mO320zotGo3qA6pW+y2QmxvWbm/SV/tdEgBPsVHrURSlbFSQ/v5+HD58GADKOpUY9fX1IZVKYXV1FYqiIBKJIJFIYGRkpO5xehns2DjWoZf9k9uwdkjxotp5xu15qO48ZEMyQIXWi7EFF41G9afrF4tF/TKmEMI0MoCR/JZlvCYuX1e64SvXDQaD+qU74w3wSryMNFCpDoyq3YCOxWKm/ZTLy/mVtmGd7uaGtZxvXMbuJr3TJWjrNDf1Sq3ZggMg5ufnHefZ3X+SUqlU1Uvjdu8Nu2nyM2B8z0vLy8siFotVLWN5edm2VeZ2/2QMxvOGpmmm84rTe12uGw6H9XXz+bzemq023209VcJLlA0gD4J8YxqTlzx5yuWMiUqePCW7N7g8WctylpeXbS9/WD9k8p6Q8R6g8X5VvVUrt9oNZiFO3M+Qb3prJx23Cc7tNLtlar3ExATnTqsmOJkE5OeoWCzq71ljL0C5rHxvGr8oGf+CwaDI5/OmdYxlW8sxlq+qqv5FWIjjn3m7IZpkGfJLozzvWHtJu90/GYP1XlkwGKz4hc8av/VP7kul+V7qqRImuAawO2jhcLjsm5g8gTv1YJLfvuTJ1djzSSaCVCpVljTtjpHdze9Ky69VtXKr3WAWwvwBt+uc04wE53Y5JrjatGqCE+JEK8n4GTa+D+3et9Yu7tbEYLeO0/tfiOOfAWMMABx7ZMv51cY6dLt/xhjkF/RKdWD3cyOn8SCrzfdaT06Y4BrA7QFYXl42fRisXXmFOJGY5DcsedlRTpPfDKtt2+v0tapWrtvtym+VxiRerQwmuPWjFRPcWiwvL5edxOX0Rr8f+J4rx04mPurt7UUqlUI2m0UwGMTo6CjGx8dNy1x11VUAgCeffBJHjhxBX1+fPu3b3/42gNoe19MqKt1gLhQKWF1dRTQaxbZt23wd4sZ4k57ITjKZRG9vLzZv3lw2r6enB4lEwoeoyAkTXIPJ3kx9fX2YmJhANpvF6OioaZmLL74YAHDZZZfpPZrktKGhIVxyySWuthWLxQCsrTdUPcl4pqen9R5dslelND09jZGREQwPD0NVVYyNjTU9TpmA5ZcKIidHjhxBPB4ve5RULpfD7Oys6dmP9caxDr1jgquBsfutmzdaNBrVPxBnnHEGotGoaX5XV5c+7YILLtCnhcNhAMCf//mfu9re9u3bARzv8i+3Z3wuXCgUclzX65hXbj5sV199NQDg4MGD2LRpExRFQU9PDwYGBlAqlRCJRDA8PAzg+P5OT09jcnLSFIdM+MbEaKx/Y+K0Tqt0nJLJpL7M9PQ0VFU1dcmWrTmZ/BYXF/V5sh7tYqP2Nj09jY0bN+LQoUP6z0MikQiOHTuGPXv2NHTbHOuwBh6uZ5Lw/qgo4EQPQTjcgxPixI1ro0wm43gfCBVu+Mr7d/LeneyqX6lXkpefCXipAzc3mJ3KlfWC1258O/XIcoql0rRqN+k1TSv7Uay1Hq2xkT202T04ai2V7sEpQghhTHizs7PYtWsXLJOJ2oL8QTbf382jKApmZmawc+fOhpQ/MDAAAJibm2tI+dTaKuSsOV6iJCKitnSy3wEQNYv1vuF67plKZktLS9i3b5/fYZAPKvXSZoKjjmG9Sc/LlO3jqaeewp133ul3GNRieImSOoYQwvRH7WPHjh1lx5d/nfE3MzPj+L5ggiMiorbEBEdERG2JCY6IiNoSExwREbUlJjiPrKNOVxr52a+Rnp1irBb7WpVKpap14dfI19bYiKj9McF5JIRAPp/XX+fzeVOPPON867xmSiQSpp5GxvjkX72ffP7II4+YXgshUCwW9dfFYtG3+rDGRkTtjwmuBsYfCNv9WFhO8/OHxG6ean7llVfWbXulUgnxeLxseldXl+2/m8kpNiJqb0xwTTQ+Pg5FURCPx1EoFPRLZoVCAel0GoFAAKVSCaFQqOKT/as9+V/TNFfxdHV1mZaVT8VXFAWBQEAficDuEqN1WjQaRTqdNs1zUigUkEwmEQgEAADpdFrfphwFwVgnABCPx6EoCkKhkOnJBdUuEwPwFBsRtQ8muCYZHx/HwMAAhBDYuXMn7rnnHn3e2R86EQAAEJhJREFU8PAwAoEA0uk0fvrTnyIYDOL555+veVt2gzFWW7ZQKGB4eBjnnnsuhBC4/vrrcdlll2FpaQlCCH1sN+PlV1VVkc1mIYTAgQMH9DKtl0WthoeHMTQ0hHQ6jcXFRaiqCk3TkE6ncejQIQDHnzQi62RxcRF79uzRL3du3bpVT3LGy8WSNcF7iY2I2oiw4HA57sDFMDnW18YhVeTQL9byrMO21Eu1eBOJhG3MxiF05DA8cvgf6xAxTtuwm+5mmt0ycoga47BDtZZFzQEOl0MNVGm4HLbgmiQYDKKnpwfJZBKlUgnd3d22LQm/7lMdOXIEQPnlvYMHD+rL3HLLLQCgj77txz3Gvr4+ACgbFZ2IyIoJrkn27dsHVVUxNDSETZs2tdwI0PIelbB51pvU3d2NRCKBdDqNF154wa9QiYhcYYJrEFVVTa97e3uRSqWQzWYRDAYxOjrackkOqDz0RKFQwOrqKqLRKLZt22YafqbZgsGgb9smovWBCa5GstPF0tJS2bxcLleW4BRFQalUQl9fHyYmJpDNZlvqMpvcn+npaZRKJQAnelVK09PTGBkZ0S9Rjo2NNT1OmYCvuuqqpm+biNYXJrgaXX311QCOd9mXXduB4yfg6elpfb5RNBrVlz3jjDMQjUYBwHNLqNrPBKysA33akfEePHgQmzZtgqIo6OnpwcDAAEqlEiKRCIaHhwEcv084PT2NyclJUxwyqRsTo0yWxn8bY5DTjMtZY0wmk/oy09PTUFXV9AVCtuZk8ltcXNTnhUIhx9iIqM156JFCFvl8XsRiMb2HHgARi8XKehcKIUy9D+HQCxCAUFW16nbD4bCpd2MlxrKNf3Y0TRPhcFgAEMFgUGiaVlaGU7lCnOjhGA6H9V6ibv6cypP/zmazQlVVvX6tPU01TdPnp1IpIYQQqqqKRCKhHwtrbNQ8YC9KaqBKvSgVIcxd+WZnZ7Fr1y7+Voh8J3ty8r24vimKgpmZGezcubMh5Q8MDAAA5ubmGlI+tbYKOWuOlyiJiKgtMcFRS3Jz35CIqBImOGpJPT09tv8mInLrZL8DILLD+25EtFZswRERUVtigiMiorbEBEdERG3J8R4cB4UkIqL1zDHBzczMNDMOImpTu3bt8jsE6lCOCa5RTx0gos7CBEd+4T04IiJqS0xwRETUlvhDbyJa9xYXF/WHLlNnOXbsmOM8JjgiWte2bdvmdwjko/POOw87duywnccER0Tr2v79+/0OgVoU78EREVFbYoIjIqK2xARHRERtqSkJLhKJIBKJNGNTba9ZdVkoFDA+Pt7UbbaC8fFxlEolv8MgojpgC66FlUolX54JWigUMDY2BlVVG7YNv/atmssvvxy7d+/mKOJEbaApvSgPHDjQjM20nUceeaRsWqPrslQqYXh4GDfffDN6e3sbtk27fWsFfX19uPnmmzE8PIzp6Wl0dXX5HRIR1YgtuBZVKpUQj8ebvt2pqSn09fWhv7+/Ydvwa9/c6u/vx7nnnoupqSm/QyGiNahbghsfH4eiKIjH4ygUCvrlp0KhgGQyiUAgYFp+YWEBgUAAiqJgfHzcdEnIuk46nYaiKAgEAlhZWfEUl6Io+p/TtEKhgHQ6rW8vHo9DURSEQiHkcjnvlYETJ3G5nUgkUnbZq1QqIZlM6ssYT/rRaBTpdNoUr1Nd2pVTS30WCgWMjo7i0ksvdVzXy7Fxek/Y7Vu1OvOy3Ur1atwvGV8gEMDCwoJp/sDAAEZHR3mpkmg9ExYzMzPCZnJF0WhUaJomhBCiWCyKcDisl6GqqgBgKjOVSgkAIpPJCCGESCQS+jIATOvIZTRNEwBEMBj0FFs+ny/bvixLTjNuW26vWCyKYDAoAIjl5WVP2xRC6Ovm83nH2FVVFeFw2LSO8bU1bru6lNNjsZi+v6qqClVVRbFYLFuvUn3K4yKPpd023ZZV6T1ht2/V6szLe6Javco6SiQSQggh5ufnBQCRzWb1ZWTZqVRK0NoAEDMzM36HQZ1nti4JTp6UJJlUjPOrndwAiGg0WnUZr7G5LctumWw2WxaXW+Fw2HTitZYvk7qx3jKZjFBV1VPc8uRsLQeAfgJ3W5Y1CTkt57Y+vbwn5PYr1Zmb7bqpV7mMtRxjEiwWizUfezJjgiOf1CfByW/eiURCbzUYWU9CcvlKy7RCglvLNiVN00Q0GnVsja01bru6lCdnr8nSbR14icvte8LIqc7cbNdNvRpbg9Y/tzGSe0xw5JP6JLjl5WXTScP6rdd6opAtI9nCsGsptUOCi8ViQlVVsby87Hp7jYq72WV5fU9IXuusXvW6luWoMiY48kl9EpyUzWb1b+7VklUqldK/pRvvh1Rax68E5/W+nxAnLoPJ+1BOLQ3jfZ9a4pblGC/J2cXd7AQneXlPVKszL/Xhpl6r3VtlgqsPJjjySf3uwRkvQ8kWmXG+8XUqlbK9bGUt0+8EJ1sRtXQ0qFZ+LBbTk5CsC03TPCclmRRkxwshTlyinJ+f91SW/MJhPTa1tqS8vCfcbMfNOm7qVS4TDof1ZfL5vG0r03hfjmrDBEc+qV+CC4fD+jdveQ9FCHMvRtnKkK+tf8FgUOTzedM68gQkT9p2rZVqrL0hZScMYytHvpYtSdnzz3gfywvZktA0zXS5TcYue/JZ99/YqjC2zqLRqG1dFotFvdeknJZIJEwndLf1adeL0rpNt2VVek/Y7Vu1OnO7XTf1aizL+Gfcb/airB8mOPJJfXtRyhaA3aUo4zftbDbreKNfJiPrOnbT3NI0Td+ePGHJy6LWpGuMLRaLVW1pOpEtlnA4LPL5vN5D0Jo8ZM/FcDhcdsnMWoZTHeTzeb1VIpO0MW639Sm3YWwNOn0ZqVZWpfeE3b5VqzMv74lq9SrE8feEXMZ6XIQ48SXI65cpKscERz6ZVYQQAgazs7PYtWsXLJPrKpfLYcOGDdi8eXPZ9K1btzZ0207kj4392HYrkQ9YHhkZ8TkSf0UiEWzatKnj66EeFEXBzMwMdu7c6Xco1Fnmmv6ormQyid7e3rLkBgA9PT1IJBLNDokMhoeHcfToUSwuLvodim+WlpawtLSE4eFhv0MhojVoeoI7cuQI4vF42eOVcrkcZmdnMTg42OyQyh5r1cm6urowNTWFW2+9FUtLS36H03S5XA6Tk5OYmprig5aJ1rmmJ7jp6Wls3LgRhw4dMj1z8NixY9izZ4/rcozPk6z050ZPT4/tvxu5zVbW3d2N6elpPPzww36H0nTpdBq33HILuru7/Q6FiNbIl3twRNQ5eA+OfNL8e3BERETNwARHRERtiQmOiIjaUssmuEgkgkgksqYynAYIJXusr8rkIKlAfd6f68X4+DhKpZLfYRB51rIJzqpUKnnuoTg2NoahoSF99Gg/Ymhl1v2pd321k0KhgLGxMaiq2rBttOr76/LLL8fu3bs7/ic0tA5Zn22yltEEGkk+J9Er1PBor3rH0Krs9qee9dUu5PM+jY8wa4RWfn/JQWNreXQd+Kgu8sfsumjBlUolxOPxjo+hntptfxppamoKfX196O/vb9g2Wv149Pf349xzz8XU1JTfoRC5VrcENz4+DkVREI/HUSgUoCgKVlZWTD+AHh8fL5smL8nI9RVFwRNPPGG6FxSNRvXLZtYfU5dKJSSTSX16pZNEOp2GoigIhUKeL7d4jaHWyznyRGf8Ebwsy3qPTO5PIBAoezJMtZgq7Y9Uqb7k/Si5/YWFBX16Op1GIBBAqVRCKBTydK/KuD4AvS5CoRByuZzrupIWFhYQCAT095/dcXHaFzlvdHQUl156qWma8Th4OS52nxPA+Xg08v3gpR4AYGBgAKOjo7xUSeuHtU1XyyXKaDSqP41dDjMjyzA+Cd7IbqBO+do40oBxnl1cqqqaxuwKBoOm13I9eXlJDsNSyyCmlWKIxWJCiBPDtdR6OUeOppDP5/W6k7Ea60Xuj3UZLzHZ7Y+b+pLlyaGF5ufny0ZikGXIAU/dkusaYygWi2VDHlWrKyFOXPKT5cix84z7XWlfjGUYRxuwvj/dHpdKnxOn41HP90Olz0m1ejCW7XUIIfASJfmjvsPlSHLYFUkO5WL8sMgPp/FEWmnEZ7sPvzxhGbct7xVUWs8pUbnZT+t68kRgjQFA2SjlbsghYpy26WZ/3Mbktm6s02S9W5eRJ0y5fK1DDdnFIIfSMb5Haq0rYxnV9sWahLxuy7pMpc+JXRn1eD+4+ZxUqwchToy/Zx36qBomOPJJfRKc/JZpHYdMkq0A+cFYXl7W15EfoFQqZTsOmdNrIU4kyUoaneDkfhjJE0Gtg6UKcWKA0FpOaG5jqjXBOY3lJ5eptX4rxVBpulNd2dVDvfZlLcfF6XNSqd7W8n5w8zmpVg9uYnTCBEc+qU+CW15eNn1A7L7hyQ93sVgUiURCv3Qlp8nRvKVaPsh2Gp3gvJ6M3YjFYkJVVdOo1l5iqOdJ2Uv5budX46VOK9WVbPXJVqtdK7DWfamlLqt9Tpy21aj3g5tt17qcdR0mOPJBfRKcZExa1g+vvJcxPz+vtyLktEQiUXbPwM2HVJ4sjJc+rRqd4OzuJcpla7nPJy8VyXs1a/nGXi2mtSY4u5GyncrwolJSMcZfra6EOP4eky0f4z2mte7LWr6AOX1O7Jav5/vBzefEqR6q7VO1dZjgyAf1uwdnvOQivykbyUtkAPTOD8ZpTicep9dCnLi3FwwG9e1rmlbTSdztfjqdgIyXV+V+zc/Pr3kbtZzQ3MZUa4KT9R4Oh/V6z+fz+sm6EQlOtl6MHRyq1U0qlap6H7DavsjkaC2nluNS7XPi5cuFl3XcfE6q1YOxbON9OTeY4Mgn9Utw4XBY/5Yp7xdYyZOF8ZukvIlv/OYob74bWyHGVoks29rjUn6IZVl25RiTqrWFU41dDPJHwKqq6uXZtUi9bkPTNNMlqXw+b9ofeRKy2x+3MVn3x219GZcz/mmaZppXK+uXHtnj0HpPs1JdGcux/hkvh1faFyHse1Fa68ntcan2ObF7f9Xj/VDtc+KmHmS81i8Zbo8nExz5oL69KGUCc+plJbuRG8nefdbyjH9yXXmCsPZEk0kyHA6bPrR25dhNc6tSDPIbsDwx19qD0LoN2YvO+HMLN/vjJibrtryUr2maXu8yPuvytXaykesbf3YQi8Wqxm+sKznfqfOEMdk77YusRwC2HaCc/pzqrdrnxO79Vc/3g9PnxE09CHHis+r1iyETHPlklgOeUsuRP3Je63swl8thw4YN2Lx5c9n0rVu3ui5fPmB5ZGRkTfGsd5FIBJs2bfJcDxzwlHzCAU+pPSWTSfT29pYlNwDo6elBIpFwXdbw8DCOHj2KxcXFeoa4riwtLWFpaQnDw8N+h0LkGhMctRTjY6DW8kioI0eOIB6Plz2yKpfLYXZ2FoODg67L6urqwtTUFG699VYsLS3VHNN6lcvlMDk5iampKXR1dfkdDpFrHZ/grM/FdPpr9W20Ord10NPTo69j/LdX09PT2LhxIw4dOmR6juOxY8ewZ88ez+V1d3djenoaDz/8cM0xrVfpdBq33HILuru7/Q6FyBPegyOihuI9OPIJ78EREVF7YoIjIqK2dLLTjNnZ2WbGQUREVFeOCW7Xrl3NjIOIiKiuyjqZEBERtQF2MiEiovbEBEdERG2JCY6IiNoSExwREbWl/w8y8p/x4KZLewAAAABJRU5ErkJggg==;" vertex="1" parent="1">
          <mxGeometry x="790" y="250" width="440" height="398" as="geometry" />
        </mxCell>
        <mxCell id="s5Hh8r9x0Z7aiqoJIuo2-6" value="" style="shape=image;verticalLabelPosition=bottom;labelBackgroundColor=default;verticalAlign=top;aspect=fixed;imageAspect=0;image=data:image/png,iVBORw0KGgoAAAANSUhEUgAAAc0AAAGRCAIAAACIa3/GAAAABmJLR0QA/wD/AP+gvaeTAAAgAElEQVR4nO2dUYgbSX7/S38OEgLBc/cwA3Fu/LLMcpuA8pKNTcIuay/kstDaF4+9YzB+0ZoWbOA2Mw+OkRiWMQ4EzXKQhRk0fjETLNm+J4nLvqwG1hBLm9wFzUNu0RAM0sUHEvugJpDcW/8ffnGlXN1dqu6uVrek7+dJ3V39q1+VWj9VV1f/vjnXdRkAAIDE+H9pOwAAAAsO4iwAACQL4iwAACQL4iwAACTL98SNTqfz+eefp+UKACCD/M3f/M2lS5fS9mK+eW08++tf//pnP/tZWq4AALLGz372s1//+tdpezH3fM+76+nTp7P3AwCQQXK5XNouLAKYnwUAgGRBnAUAgGRBnAUAgGRBnAUAgGRBnAUAgGRBnAUAgGRBnAUAgGRBnAUAgGRBnJ0DKpVKpVLJpjWR8XjcaDQKhUISxgGYXxBnDZAT6Ha73gLdblcsM9Wg4zgG38Mxa03B7u7u1tZWq9Xie7rdbqlUyuVypVLp5ORkZp4AkC1cgcePH0t7gCaDwYD607Zt71HbtunoaDTSsdZsNg1+EWatqREvqk6nwxir1+u02ev1LMvCBTZfMMYeP36cthdzD8azZlhfX2eMVavVw8PD4XAoHhoOh2+88QZ9Xl1dnWrKcZyjoyNTjpm1FoqHDx8yxj766CPazOfze3t7qXgCQLogzprk/fffZ4w9f/5c3Pn8+XPaL+E4TqPRoJmEo6Oj8XhM+6vVKt160yE+6ek7+bC/v0+bw+GQQiptVioVMhhkbaobYslWq5XL5QqFAv8L8a1L4uXLl4yx09NTviefz6s7gVfdarUKhYLjOKVSic8mj8djam+hUDg5OeFGvPvVzgMwa8TBLeYN4kBdR1ME4n6aSfD2tmVZtVrNdd3RaGRZlmVZk8mEm+KF6V6bNtvtNmOsXC6Ldsrlcq/X41WPRiOaxOAzGEHW1G7wkp1Ox301McJt6tTV6/Vos1ar8aZJWJbFm2PbNn0Wq+71emSc3KNZCOoHarXvfrXzQB+GeQMTIM4aQwyF9PN2XbfX67XbbdcTZ6kYn66VpjKlwuJmuVxmjPGwNZlMeJwql8u+8U5hLY4bOnX1+30+N12v16VoW6/XpdotyxLtiOWpsOgMNTxov8J5oA/irBEQZ40hxhoeg3gQlH7n0rB3MpkwxqQoI1qWBok8FLbbbRrWcQaDQbVa1Yyzkd3QrIvodDo82jabTb5f8VjMa4cPUUUU+xFnjYA4awTEWWPwrqMR1mAwGI1GOmND7x51Ybq7p8/SHEKtVrMsq9/va1qL44ZOXSI0XBVDraKw2rEI+xFno4E4awTEWWPwrqPZwHq9Xq/XB4MBPyrFSvb6Mi8WMMvp3aQ43ul0BoOBODzk8d3VDpeR3dCpi71+4+8Kq9/E2qXxuG/VfE+/3/ctGbRfYRDogDhrBKw3MM/6+nq5XN7a2nr58iWt9/Jy48YNxtiLFy9o03Ecxtjm5qaO/cuXLzPGHj58+Pz583feeYfv39raYq9WmGkS2Q3Nun75y1+Km1Se3+nTh8PDQ6p3OByWSqUgU7VajTF2fHxMhWmNgWI/ABlCDLoYz0ZmNBoxYWBIs6h8pEZHxQKTyYRu/2lPvV4Xn4bzYWa1WvWe6756GlatVkUf6KzBYMDv5ekUhTWFG7wkjUlp6layKdUlGafP7XabW6BRsNgt4uyqbds0LOV2vD0sQqNp3/1q54E+DONZEyDOGsD3r0u6+/YWGI1GNBZjnmfxFKbL5bIURKQC0s2yeBatB6BIpLYW5IZUUtr0rct7iuu6/X6f2y+Xy5LPdLp0iBvh09DEYDCgwrxpQfvVzgN9GOKsCXKucBU+efLk+vXrrl9oAAAsIblc7vHjx9euXUvbkfkG87MAAJAsiLMAAJAsiLMAAJAsiLMAAJAsiLMAAJAsiLMAAJAsiLMAAJAs3/PugoITAAAYxCfO0lthAABw/fr1tF1YBHziLN79AAAQiLNGwPwsAAAkC+IsAAAkC+IsAAAkC+IsAAAkC+IsAAAkC+IsAAAkC+IsAAAkC+IsAAAkC+Ls4jAejxuNRqFQSNsRAMBr+LwPBjKL4zgrKytBAm67u7uHh4czdgkAMBWMZ+eJZ8+eKY4eHBzMzBMAgD6Is3OD4zhHR0dpewEACA3ibFwcx2k0GrlcLpfLSXFQOjQej2l/7hXeTXGOtdVq5XK5QqEwHA4ZY9VqtdVq8fJSFYVC4ezsTO0bOTAcDnmN+/v74iaZ3d/fp8+/+MUvgpwBAITAFaCMiC4Ig2VZ5XKZPtu2zT/ToVqt5rruaDSyLMuyrMlkQpti5w8GA75pWRZ97nQ6/JBt21TS+5VZlmXbNpmt1+tSgSAHxBp5ScbYaDTiFdEpCmfAMsAYe/z4cdpezD2Is7Gg0MbDU6fTsSyLPrfbbekQY6xer9OmFObETf1DzWaTMdbv92lzMpmIBdQO1Go1xliv16NNCqkUT/v9frVaneoMWAYQZ42AeYNYPHr0iDG2urpKmxcvXqTYxxh7+vSpeOhHP/oRL2+Kf/qnf2KMbWxs0Oa5c+fEo2oH3n33XcbYV199xRg7Ozs7f/48Y+znP/85Y6zf7//5n/+5QT8BWHbEoIvxbFi8fag4JO6RjsY/NLWwd49t24yxyWRSr9d7vR7ftG1bnEBQ1wgWG4bxrAkwno0F3W6fnp4GHeLPvgiKZbNhqgMffPABY+yXv/zlo0eP8vk8bX755ZdMGAUDAOKDOBsLimWHh4eO4zDGhsNhqVSiQzdu3GCMvXjxgjapwObmpsHaaY7VN8rrOPDOO+8wxq5cuUKtoM2trS2aUgAAGEMc3GLeICziQ3nGmG3b4lMpesRP9+D1el18Uk/jSipMT6jodL4UgRYG8EdbZISvCqDnVLQAwLKswWDgvnrwxV4tCVA7QFSrVSY8DSuXy0x4sKZ2BiwDDPMGJkCcjctoNKLwVC6XeYTih2jIyRir1+sUrYjBYEBBs9lsuq5rWVa9Xudxjf8FSpu9Xo8q4pFuMBhQyKYYze1MdYDo9Xp8gYT7KuLzTbUzYBlAnDVCzhV+P0+ePLl+/br7+i8KALC05HK5x48fQwM7JpifBQCAZEGcBQCAZEGcBQCAZEGcBQCAZEGcBQCAZEGcBQCAZEGcBQCAZEGcjc7i6R4uXosAyALQYYxOirqHakHGILgKgy+u6xppkeibt8Z034KJ1m8AxATj2eikqHuoFmQMwvXkAid4YgQjLRJ9cz1JEuLbj0O0fgMgJoiz80ccQUYpFzhx+fLleB79H17feIpF36pnCYQsQVogzhqDfsakYFipVMbjMRc0JMVDKsZ3kqBhBK1GX0FGkUqlUqlUNN0mC0EjzSD3fNur45tvFRnpNwCSQrx/RL6usIh9SHmzRqORqFdIGbCkhIQ8V6EbSavRnaZrUC6XRTlIhc9kNuiowr2g9vr6pvY2O/0GvDDk6zIB4mwsxN9tuVz2jTWU45VSxLqu2+v1uBiiKa3GCD4H/deKe9TuBbU3bJydl35bThBnjYA4Gwvv73YwGFCA4PspaSwNvlzXrVarPHbQUI6fSw+peELYROMs91YRE9XuBbU3bJwNspO1fltOEGeNgDgbC+l3W6vVLMvq9/vSfi5xSCqHQae7yqCQRJylTU0HvHt82xshzs5Fvy0niLNGQJyNhfi7rdfr7NV9rvR7pqFZvV5vNpudTofv5zo0osGgic6E4qziqNq9oPbqx1kyNS/9tpwgzhoBcTYWQb9h7++ZhmbSTTeFGB5B6P633W77Gpl9nNV3L0Kc7XQ6NKM6L/22nCDOGgHruqLD1xLRBxpkDYfDs7MzqQBj7NatW7wM56/+6q8sy7p//z6V/PLLL23b5qtZKcSQtW63SztJT5drhvNlTyKKdV2keit+ULRI7V5QeyXfJGFzotvtXrp06Uc/+lGm+g2ApBCDLsazoZC6URRJpGfo/LkNQVOQkpEIWo2unyCjSNC6LvW3722R2r2g9or71dceWctOvwEvDONZE0CHcUY4jnPnzp0UX9WdU9Bv6QIdRiNg3mBGPHnyZHNzM20v5g/0G1gAEGeTpVKp8LdFDaYRWHjQb2CRQF7EZFlfX2eM1Wq1jz/+OG1f5gn0G1gkMD8LAAgE87NGwLwBAAAkC+IsAAAkC+IsAAAkC+IsAAAkC+JsFnEcJyMJ/7PjCQDzC+JsFsmOXGB2PAFgfkGczRzZkQvMjicAzDWIswZoNBqFQqFQKHS73VarRTfaCkFAIkhJ0FcukKsTFgqFk5OTqS6Nx+NWq1UoFBzHKZVKPH1XkB3JGYUnAICwIM7GpVKpPHr06MGDB81m87//+78LhQLtl7JVcUFAzs2bN//rv/7Ldd3RaNRqtYrFIuUq3NvbowKU6YcxNh6Pi8Xi+fPnXdf9yU9+cuXKldPTU7VXxWKxUCi0Wq1vv/3Wtu3vvvtObefmzZv//u//TjX+27/9G8VlrycAgCiIybuQFzEsJAjY6/X4HrFXpR4WN0MpCVJaa9GOQs5Wqk5MGBhkh/aLzgRpbYFlgyEvogkwno3F06dPGWP5fD7aiaurq7RJGa8fPXrkW5j2izMP9+7d06zo3LlzU+3Qfu7MxYsXm81m2BYBAIJAfoNYULQSe0zcIx1VHNI/0ZRv6pI6h8AygPwGRsB4Nh24gIq4kwRXguCyLjHx2iFnps75AgCigTgbi2q1yiJFqBs3bjDGXrx4QZv0BCwooTUJtBwfH1OxyPJWQXYozh4eHtL+4XBIaloAADOIk7V4DhaWfr/PGLMsiySt+LQmHaXxKWlb0ZMu9kr+ejKZWJZlWRY9farX61wW2xV0s6vVquu6XqEtSUHLCz/Fd6dkZzQaiUKHtm1zPS7JE7BsMDwHMwHibFx6vR7F01qtRgLXvA8VgoCutsQhN1UulykITg2yrjCdKilyB9khDUSqVBQ9hHDhkoM4awQ8BzMMHhyBRQLPwYyA+VkAAEgWxFmT8PUD0kICAMAyAx1Gk6ytrfEPSU8dqBMOYOICgOyAOGuSWUY3RFIA5gXMGwAAQLIgzgIAQLIgzgIAQLIgzgIAQLIgzgIAQLIgzgIAQLIgzgIAQLIgzsaFZA1JSFF8d8CreBikjQgAWGwQZ2Oxv7+/ubnpuu61a9f+4R/+ge/3VTz01UYEACw+YvIu5EUMCxPkCym7K30OUjykPhdTIAKQZRjyIpoA49lY2La9trbWaDQcx1ldXXVfRVK1cqKojQgAWHgQZ2Px6aefWpa1tbW1srIiasm0Wi3muTNIz00AQJogzsZiY2Oj2WySpMLOzo4k22VKOREAMNcgzsYil8s5jpPP5w8ODnq93s7ODu03pZwIAFgAEGfjUq1Wh8MhY+z73/8+yd8yxj788EPG2L1791ZWVnK53Nra2ubmJpJ/A7CcIM7G5a//+q+fPn2ay+WePn26vb1NO1dXVyXFw/X1dZ4FvFAopOYuAGDmQIcRABAIdBiNgPEsAAAkC+IsAAAkC+IsAAAkC+IsAAAkC+IsAAAkC+IsAAAkC+IsAAAkC+KsSSqVSlrZu8fjcaPRUL8BoVPG1FmRmQsnAQjF99J2YL5xHGdlZSULb3bs7u4eHh7GL2PqLFFagtDspVk6CcBswPtgsSAdmoz0GIU2tTM6ZUydNR6P6VXjyWQSKuXuLJ0EavA+mBEwbxAdx3GOjo7S9iK7rK6u0gfkNQdLDuJsdKrVKuXzJtEEcYpQ/NxqtXK5XKlUorRejUZD3CSMizbSfwA5VqlUpFRhvDrJDV9P1MSZkp6ZkwCkjJjwH/pgYRH70LIsvsk/93o913U7nQ5jzLbtTqfjuu5gMKBNOnE0GlmWVa/XXddtt9t0FrfQ6XQoj3goZ2zbZoyNRiOpLm6T18telzjzeiJZliiXyyR9NtUlLzNzEkSGQR/MBIizsZB+2+Km4pC0aUq0UbRZLpelsOXrRr/fZ4zVajUdTzTdCHLJS0acBAoQZ42AOBsLI3GWD11FvKeEdcZ13cFgwFOPB5VJwhOFS15SdxIoQJw1AuZn0ych0cajo6NPPvnENyrN2BMFc+EkADFBnM0KZkUbG43G7du3v/jii42NjamFaZ40IU98KZVKLPNOAmAKxNn0SUK0cWtrizG2vr6uLnZ6esoYe/fdd5PzxEu326Uas+wkACYRb74wPxsW/ii8Wq2ORiPq0tFoxD/TUyzxkGKTMxgM+E5NTySb5NhgMKCHSNL+drvtvnpwX61WvUZ8PeFP/EUU6w18m0BLL2iFwMycBJFhmJ81AeJsLHq9HmOsXC57f/ziP5l603VdSbRRLGNZlo4nkk3RMXqsT2Zd12232xTIbNumWCai8MT32giKs0G9QdDfz8ycBJFBnDUC3rsFAASC926NgPlZAABIFsRZAABIFuRFnBu8mQZFMNsDQGZBnJ0bEEkBmFMwbwAAAMmCOAsAAMniM2/w5MmT2fsBAACLik+cvX79+uz9AACARcUnzuJ5CwCAUK9yAZpgfhYAAJIFcRYAAJIFcRYAAJIFcRYAAJIFcRYAAJIFcRYAAJIFcRYAAJIFcRYAAJLFZJwdj8eNRqNQKBi0mS6VSqVSqaTtRRYh9cP9/X0SQwQAKDAZZ3d3d7e2tlqtlkGbwCyO48R/w2c8Hu/u7lqW9f7779+8eXM8HhvxDYBFxWScPTg4MGgtC+zt7e3t7aXthUmePXsW04LjOMVi8datWxsbG/l8/u7du8ViEaNaABRgfnaJcBzn6OgoppEHDx7k8/mLFy/S5sWLF8+fP//gwYPY3gGwsESMs47jNBqNXC6Xy+UUP12axcvlcoVC4eTkhJ97dHRE51YqFbrrHI/HrVarUCg4jlMqlabOivLyjDGyViqVzs7OpKOSNcmfbrebE6AyVCCXy/3iF7+QppulVvP7ZcmCtMlt0imhbtvJgUKh0O12W60WnTu1uiA/q9UqzeqI5X2/oyCfx+Pxzs7Oe++9Jzq5ubm5s7OD2QMAgoioW3Pz5s18Pk+ZvSiQee+vx+NxsVi8ceOG67onJydXrlzp9Xr5fP7OnTuHh4ej0ei3v/3thQsXvvvuu4ODg2KxSCHg22+/tW378PBQ7cDa2hp96Ha7H3/88bVr1+7cufPmm2/2+/2NjQ1fa77+tNvtK1eulMtl7v/29vZkMrl69WqlUpHmmm/evGlZluu6ZKrVah0fH587d240GnF/GGODweDChQt8c39/f3Nzc3t723GcarWq38mVSuX09PTBgwerq6snJyc84qurU/i5t7d37949JqRkC/qOgnz+5ptvGGNvvPGGWB1tfvPNN5Zl6bcOLBVvvfVW2i7MlB//+Meff/4538yJWRCfPHly/fr1qXkRG43G1tbWaDRaXV1ljHW73fv37zebTfYqixpZoGLcWi6Xo3BWqVQotkrl6fNkMjl37pxOS8RzGWOnp6d/8id/Uq1Wt7e3fa0p/Ll37x4vSZGFwq5YBYUhsdWXLl2q1+sfffSR1xmpXfys8Xi8tramk3lSjHq+NoOqC+VnUJ8E+Ux9JfnvOM7KygrvebBI5HK5x48fX7t2Lb6dq1ev/tEf/ZERrzLO06dP33rrradPn/7fLlfg8ePH0h5faNjie0i06Tu64SUHgwEfKHnP1cFbXm0tyJ9er8cYq9frVKzdbvd6Pa8R27ZFg5PJhDFGw0Zvdd4T6/X6ZDLRb51Unbp1kf0M6pMgn4O+o7DfHZgXGGOPHz/Ojp254OrVq1evXhX3RImzih+VZtys1WqWZfX7/VnGWYV9y7J4JCqXyxEMKgJfv9/n4axarSbROiN+igT5jDi7bCDORsAbZ6M8B6Nf4OnpqU5h/myK02g0bt++/cUXX2xsbESoXQ0NxEL5wxi7ceNGq9XqdrvD4fDtt9/2PZFaLT3tmVodY2xjY6PZbPZ6Pdu2d3Z29vf3p54Shwh+evtkxj4DsNhEj7OHh4e0anI4HJZKJW+xWq3GGDs+PqZi9FybMba1tcUYW19fj+G2DxQsPvjgg6ACQf4wxi5fvswYe/jw4fPnz9955x3f02/cuMEYe/HiBW2Skc3NzamO5XI5x3Hy+fzBwUGv19vZ2dFpDk2qaP6ZRfYzqE+CfCavfFfLlsvlsK4CsCyIg1vNeYPRaCTO69m23e/3aT/tGY1G4iZnMBi4r+YEB4MBnzcYjUa8sP7gnMrTvOpkMimXy/ze39dakD8EhQnxHllqzmQyoekF2qzX67Zt88I0YKR+6HQ6vGfIz3K5THXRrLRO66hzLMuiE+kxI2+Rojq1n9T5o9GI3AjqkyCfyQ2x36gAY6zZbOq0C8wXDPMG4TEzP+u67mg0osBULpfp1+6+/gya9gwGAypm2zb/cdJzp3K5TEboED+Rx8qpUPler0exo1ar8Yc2QdZ8/RG94m3xbc5oNKIBIPM8IxoMBuQGhRvLsur1OkU6HtdYmPlZconiKTVN6tig6tR+ip2v6JMgnykudzod0U8K9NwgWCQQZyPgjbNR1nVlBGmJ0sKTkfbSxIK4hKtSqaysrGBR10JicF2XETtzAU3Tieu68N4tCEexWPz666+73S5tnp6enp6eFovFdL0CIMvMa5zlz9OX5HXP7LT33LlzDx48uH///unp6dnZ2eHh4YMHDzRfLQFgOYn43u0M0MwDoPl6VdZQt87bIv6ibRbau7q6enx8TLljPvvsM3ptDAAQRHbHs/qzzml7GoWwLcpae8+dO7e9vb29vY0gC4wgZnTis1IivlmfNCmVSvHTLschu3EWALA8uK8WCDLGHj586C3Ad/JlPJoMh0PKJBVhNbopEGcBAJmA3l2qVquHh4fD4VA8NBwOeZa4sLdQT58+pXXf//Iv/2LI09AgzgIAMsT777/PGHv+/Lm48/nz57Sf4Emic7kcf6uT7xRjtOM49OYOY+z27duiTc0c1r5HQyNO/Om/pyAyGo3q9bqYh0VMxRLT2qLC38gCy4DBq7parYZK/BYTNtv3FJiQLk7cz1+t5Pvp7RjxXUfXdflrkJx6vU7p9+jNHZ6KzxVmHui9m8lkIr5mqT6qxkweGQmz8otzKuYYSt+Q6xhmxJ/kjBhxIyZp+SDWa/CqXgbtS1rnL67R9ibouHjxojTDcHp6euPGDXFWwXGcr7/+mjI4U34oceqAB1MSYTp37hxFUvqa1EdDIwbdaONZ9/X/mfiYtTYbaAJIpyTdxUivrqboT6JGjLgRk7R8kOo1eFV3Oh3LsmYzqmVpjGfpAx+r8vtjqQ/pJfJarUab1WpVepm+3W63223RuHRL4f1SxD3qowoSGc+CUPqGko5h6v4kZ8SIGzFJy4dE610G7ct6vU5j1fF4HKTCkM/nbdu+ffu24ziO4/zHf/yHlAXwpz/96ZUrV8SlYK1WK/ocaxzEoKs/np1MJvV6nTEmpev2zkNRLpJarUYpSKhMs9mkMjRpwjN+ef80JpMJT4lC2U9EuSo+xcl3Sn9oQZCTNK7k4w6pT7xdxFvNW0T7pZSAtJO7alkW/1OlThD/Y9P1R4GmEamMuOlrYSoZ7ArX7zpUe+Wtl3+gRtm2Lc4kBvnPfyw0P8hHdu12m80kdw9LaTxLa7zq9Xq9XhfTG0kXEhdDaTab3vRGXCRFKixWxzwjVj6OVh9VYCxfl2VZtm3TnQu/PlxBB4WK8ZE85S2UfjNBE8yiBTo0Go2o36mRmlPgQVAGRSpM1yt79QcgVs1X84lV0E0KZYYU792kklSAvlGqgibgffMKpuiPGk0jFIB4MkzLsnyFf3TIbFf4Xodqr6R6xWuehiZSvkpf//kPqtPpUP42sa4Z5KJkKcVZ1y9Vqe/lRF+N9xkjD1AionKK1yB9L7xX1UcVmImzFCx4WJRS9kmfxX/moEuQ/md4h4pHKXGidz+NR8Rci9J/VxDen9bU34Z4Im8OxXpeqXQi/feIdmgkwv9sMuKPGn0jPAxVq1Xx3873hxFElrsi6DpUeKU4FMF/KWTQj24GS1bYDOMshQjeDxQW+PUg5YPmUHfxWVqiXq/7fq30A5T61jeH9dSjCszEWX2JQH05P8UF6vqJNk6dAo/vvG9b+KFo+obepqXrjxp9I/QboEkkhQU1We4KYqp4qOahOP4HGUwINqs46/uNSP9tQV+ZdOGJxcSwIFng9x++Oax5+aCjCpLSYQy6vPTl/BQXqK9oo/vq6pxMJjTzMNXtCFUrDumfqF/77P1RE8oIjROlObJQ9Wa5K1w98VD9eiP7H78hoWCZz/Md6ucvoe7DyD086/UGoeT8fLUCFaKNVP7LL7989uzZrVu3DLrtixF9wwXwx9fIeDx++fJltVq9dOnS7Jd2zqArEhUPjSzxCRhjT5480ZHpS5cocZaee+gkZdCUIFRIKCpEG2lVx9bW1tHRkf4yqXT1Db06hun6EwqFkePj4+3t7WKxaFnW7u5uWMtElrsiIfFQIrLE5zJrX1YqFf6WLemohkWd09lwxmdxcKs5b0DzGlwikD8XpqUq9JkvfPGV86MyaglFsuAr2sg98Z0CV5OuvqF3vUG6/qjRMUJfH5+3orlF/ghCskCRNOj5fva7wnsdKrwS6/VqekqbQf4H6ZMu6noDfej/MtRv3+sSJ+xRNcbWdQ0GA7rCKLZyHUDJORYg50cF1BKKZMFXtFH0xPvsZSop6hv66him6M/UjppqRLoWFV+f++qpveKh7Vx0hXgdKrwST/H+LqR+C/KfF5M6bWbalyyrcTbLGIuzMRGvsDjEmQI37owm1WpVvRxnxv7MHv10KgvfFZEpl8uzyUOEOBuBRXvvdi6mwCUkHcNlo9vt3r17N20v5htoX84dKeiDiRPM0VRPKpXKvXv3GGPlcvnjjz9O15mwkI5hsVjc29ujTELp+jNLTk5O/vAP/1Dzkf1id0Vk5lf78l//9V9/53d+J20vZsFvfvObP/iDP3htlzi4nc28QVDt+iimwNXtT8KZaLcNsQkAAB48SURBVEwmE9/7vln6E7avZgy6whfpjbukYebmDZYKad4ghfFs/E7/+OOPg4axYY2ndQWQjqF3/yz9yfjVj67wxfeymQt2dnb+4i/+Im0vZsHf//3fS3uyqysOAFgk/vRP//TDDz9M24tZ8I//+I/Snvl+DgYAANkHcRYAAJJlAePseDxuNBokVJmuG/RCZ6VSqVQq6ToTiv39ffHNYABATDIUZ03p5WVBydGg0uLsZQSXQekPgFmSoTj77NkzI3YODg6M2ImM4zjFYvHWrVu0UHRvb29vby+yNVPdok8+n797926xWMSoFgAjZCXOZkGzzxQGlRbT6pZlUPoDYGZEjLMnJyeFQiGXy+3v70s3mI7jNBoNSll2dHSkeftZrVbpTp8rU0Y2JdJqtXK5XKlUEs8NMitO7PITSR2eyvNNXn5/fz+XyxUKhZOTE75zZ2fnvffe89r02i8UCqJBskYuUSd4u4UiL21WKhVyfqplqcliF/m2gjG2ubm5s7OD2QMADCC+tBBKH4ySTnERRn6iQhFP540RcU9MU5E17yhxH1d7JDuiAJ+rrbQoClOKmnpeg76ald5u8RUEVFumAqKWF/+sECWcWeY9kGUY8siEJxHdGibkPFQryoUya9CUuBlKs0+xqa+0KJ6lMMj0NCsjCAKSq2KTecYshSjhzJT+QJZJK86ORiNSmI9QV7lcpstYbSToKKVyrVarmqM6L4noMIo/abWinBrfgZsRU/oe6sdZfaVFzWior1nphhQEJFd9O0otSuhbNVgq0oqzXLYnQl08zqqN+B4djUa2bff7fcqOHS2VhJk4SwmMaQyokAQP2hPE1B+5EVOR4+BUOzHt62tWxhQEVHurfxQsA2nFWdfQ5RfqCidhC56Gn+78IoxqzeSfzefzzWbz5cuX9CimXq/z3BYGFeUSEqcza9ag0qKmZmUEQUBqskJ3K1G9SADmBWmlkMlVN2LQ1X8OFhTjJXFpuitvt9s6fwKSPwZNiZtqs4oTpU3KzcilsSQJLK8K/FSD4ll0l6Bzik4xctW2bbJPmkPqVnAjfLoWLCcs7fEsF74SRYak8CVuSrOu0u9iMplQBPDeEdJDESnCSI9zNDH5HEyEVMLcaYp4aiS9vMim4mve8aAjnhi0yfFVWhTPkuxLjrEAzUqpW3wFAdWWaVGB+GVxRTWFKCHWGwA3A3GWhkT8GpZ+fVSSrlX2+qoe0Qi3aVkWH3DwtVJ0yKuR6kb9FRibn/U+PxGjVZAi3lSz7HW9vGimRK+8mwqz6hO9dnSUFlkAvvZ9NSulbvEVBNRpMrlaLpcl2cogUcKZKf2BLMPSjrN8kwYWPLu/dFTcDPpMkZRf/5LQp3elkBt11Y2ZONvv96WoT10QypUFZqrS4lwwM6U/kGWyE2fd4ACqOCR+ltYaqQ0q3JiKgedgjUZjY2NjfX1d3Lm2tia+sLDkLIDSIpT+wOJxeHiYVtWh4+yjR4+Ojo7EdzrPzs6ePHny0UcfGXVsjiGlxfv37yse8WeZ+VX6AwtP/BVHqRA6zh4fH//+7//+3/3d3/FX7P/zP/9TR3Q2pySUDwZNJcTq6urx8fFXX32VtiNRaLVan332GSRmQaagUcu7774b2QI9lQka/dCjEd8cdTR1G4fQcfbcuXMfffTRwcEBzTvs7e1dvnxZ50T1jEYoHwyaSo4gpcXss729jSALUocetlNuo/F4XKlUqtUqv2+mgS0t/eZzdGLGqPF4LH5mjP3lX/4lY6xSqdDtOM+aVCqVGGO0IF2Ks1Ty7bffjtmWrORFBAAAkWaz2W63f/rTn+Zyud3d3Z/85CfiwOVv//ZvLct68803W63WxYsXKR3SZ599tra2RgXW1tbEz4yx9fX1wWBw/vz5CxculEqlP/7jP+ZnMcb+7M/+jDH2m9/8RvSBNulQHKB3CwDIKJcvXw66XV5fX6d1WgT/rL6jXV9fPzg44FIAooXV1dVqtfrP//zPYubon//859VqNf7tHcazAADAmGelkMFVNwsYZyUdRi6DmLo+I5QZAcgy4kohs6tuMjRv4DjOyspK/AdZu7u7vgvlgvbPBlJm/PTTT+ObMtVR+pAy44MHD/B8DCw2tFKIcseYXHUjPqnXfB8sIWiuxIgpb9PU+5NGyrcWE4MdpU/kHHFgrmHQUwiPmbyISbBIOoxeoMwIwDKz4DqMvnOyXHlQ1FUcj8etVqtQKDiOUyqVaP40SPRQLPl7v/d7/BUJnjSW7OdyueFwCGVGAJacKPOzFGU6nU6z2Ww0GnyRmuu6jLGbN29S8sfxeFwsFlut1vHx8dS55L29vXv37rHXl2VEMyVCZ0k7X7x4sb29ffPmzWKxeOHChdFotLq6ykt+++23tm3TTO6dO3cODw9Ho9Fvf/vbCxcufPfddwcHB1JJxtitW7cuXbpk2zZf37e9vf3111/ThCYVfuONN7wu8c/dbteyrMFgcOHChfPnz9O6k/39/c3Nze3tbcdxuEqNt6PUTvpapr7N5/NkhP5X9vb2GGPU1Tdu3HBd9+Tk5MqVK71eL5/P8yZ88803vmo3AKh5+vTpr371q7S9mAW/+tWv3nrrLXFPToxrT548uX79ujvtAQsNo3ixXC5XrVYpxNAvkyIXY6zb7V66dKler+tkP5DMmjIV9JkxdnZ29uabb9ZqNXpvmI5OJhMeyiuVCoUtXztiyf39/Z2dncFgQBl2Tk9Pv/32W3K1Uqncu3dP7FWFS9Ih3vzxeLy2tuZ7itpJX8uNRmNra0vs2/v379O0Lx0SzyqXyxSC6fkb/67BMpDL5R4/fnzt2rWYdqS4s/D8+Mc//vzzz/9vW5ysXUgdxqDPOkeJqaKH7qu0sDw5JhcJD1uptzOhzAhShC3T86vkiJjnm82PDmPMOKsjekhQWJxMJpPJRJR+iBxnocwIUgdx1ggR13U1m00aPdELwny/qC3xvxUIUgtTXHn9N2zK1NQ4y216j1JSXRqZTo1T/O+n2WyKS7gix1luliJ40J+ZppPiJvVtr9dzPVAxSXNB4R5YbBBnjRAlzs6XDqMi9IgDc+9RfTscCojS5AaUGcH8gjhrhChxlnnIrA6jJJ5IVVCwJmU3HkQkZTfRpSDRQ2/VpKnFZ2kJKDOC+QVx1ggR52fnRYdRhI62221y3rZtcXTMi4mjUbXooe9DOZonFfdAmRHML4izRoiyruvs7Ox3f/d3RYkwWiA19cSFx3GcO3fu8DWqHHp/Yd6XQ1UqlZWVlXlvBQiFqXVdSw50GE3y5MmTzc1N734oMwKwzECH0QCVSoW/ZeublhjKjAAsM9BhNACN7mu1Gr035QuUGQFYWqLMzwIAlgTMzxohK3kRAQBgUUGcBQCAZEGcBQCAZAkdZ1NXMwwCKocAgGwSOs7u7u5ubW15k2fPDMdxvIsKSOXQSP5pX/uJQiqH0CkAYFEJHWe9LzvNmGfPnkl7HMcpFou3bt3a2NhgjO3t7SnWV0WwnzT5fP7u3bvFYhGjWgAWkjmbn/VVIYTKIQAgyxiIs2q1xAiKjdIbB+KmV4UQKocAgKwjJpUJlReRb1qWRZkAKdueZVk8sRalBKRUVWICBPWJUuJBnn3Kt3Yp6yCfohU/kwNkh+cV49Iyk8mE0lP52qeUsqPRSDxdbZkK8Dyttm3zz9RSynjbbreZkGwbWQdBBmHI12WCuHGWggXPlUep84IyZzMhv1/YE4PioBgipxaWDokJGBX2fQUXFJbpH0VsGs+gSIfEs3gIphSxYv5DAFIHcdYIceOsWi0xsmKjfpyVNvULQ+UQgKkgzhohbpxVh7nIio0ziLNQOQRgKoizRoj7HIxClfT0hoaKjLF8Pt9sNl++fEkPker1Os8SrT5xBmxsbDSbTVI53NnZoXccvDQajdu3b3/xxRe0aEwHapoiBeLZ2VkEhwEA84oYdCOMZ9VqiZEVGyXfxE3pEFQOAUgOhvGsCULHWUnZUK2W6A3rmoqNNLAl3Sp6RMZef9bPIxRUDgFIDsRZI4SOs2KMoD0KtcTIio2DwYBOpLhDa6G8soMuVA4BSBLEWSMkm+d7NoqNUDkEICGQ59sICb53OzPFRqgcAgCyTIJxdmaKjVA5BABkmQTjbGTFxghA5RAAkFmgwwgACATzs0aYs7yIAAAwdyDOAgBAsiDOAgBAsmQrzmZW5DEIfYfNqkNy0UmwDBj8XUD0MxWyFWdDiTzOXjDRSyqqlAZFJ4Mw0rfxjWThK07LB7Feg5cZRD/TQXw5TDOPTKJ4vQqCMhsk7c9U9B02AuWF4O8ZJ4SRvo1vJAtfcVo+SPUavMwo8XxQgicJhvduTZCt8aw+aQkmpo5B0ckgjPRtfCNZ+IrT8iHReiH6mQJi0NUfz1L6lVqtJiq+uK8S/THGLMuiJIej0aher5NQAv1FW5Yl5k+ZTCb0Jq43l7YCSsUitYKb4r7ptIVO5BltxAw1zWaT/vlFja8ghyVnxE2xE/Q7xNsK6m2ePZJDBmmcy8dBCn/UFfn2rfebVaNpRCojbvpamEoGu8INuMAUXnnr5R+oUTzvndr/oGtYUo1SwDCeNUGUOBukYOgrMqgjWchTtfJrRct1T0mFIqSaqWKLlA5c7bBCPlJfHVLdCikJJFEul3l6Ser2qf5MrUgqqZCPVKBphAKQmFKSG9e/GDLeFb4XWCi9UfGaoX93nWsm6BrWT8KJOGuEiHm+fRUMg0QGfa8Y+kyBg2cO5IlctVx/vaRa2FGNWmxRDNZqhxUt1SymboVXdNL7UzdSkXSiQj5Sgb4RHoaq1ao4yNK/GNxsd0UENU/FoQj+SwMOfdFPhjhrgihxNkjBMEhkUHGJSGqM3sIq118vqRZ21GGq2OJUhzV/NvodopanjONPqIrU8pFB6Buhf2uah1FYUJPlriBCqXkqDsXxP8hgEAxx1gRR4qy+gqHvfsXFpDASymxYU66e2OLUPZotjdwhCfkT6kR9QhmRdIwi1JvlrnBjq3kavGZCNYQhzpogSpwlaLqHeSRspSGJG+MSmeL66yW53oxYQJzDUkA/cpr3DOtehJ+Nopi6FQb9CVVR0DerRt8IzRjQWC/yvEGWu0LzAtM8FMf/IINBMMRZE0SJsyxAwTBIZFBxidApQXNqU90QS6qFHfVNKa71qQ5r/mwUxdSt8IpO0p4I/oTSwVTLRwahb4Q+0NJgr77c1IrmqysiXDAG/RctaE6yI87GJ2Kc9VUw9BUZVEsW0nNPvrCJPyPWGYdKgolqYUcdU0Fii2JJtcNB8pH66pDqVnjXG5DD3B8qwH1WyFmqK5L6ViEfqf8F+RqhJSv8n4N6g//+JQveSCqS/a6QLjC1V2K9XvFTzWvG9xp2sd5g5kSMs74Khq6fyKB4RXo33Vey2zweiZKLaiTBRFcp7Khvyiu2KD1MUzgcJB/JAvDtEEUrJNFJ7jz5U6vVpPUPCjlLdUXevg2Sj9Ts1SAjUtul3pAs0FejeLY5F13BLzC1V+Ipka+ZoGtYX/STIc6aAHm+54ypopP0UvwCf4mFQoGPVdUsfFdERl/0E3m+jTCv790uLQsgOhmHbrd79+7dtL2YbyD6OXsQZ+cMtegkz8O0kAmZTk5OfvCDH2jmdljsrogMRD9TIbtxNqckLVNZQCE6uba2Jn1Ijtn36uXLlzc2NjQLL3ZXRAain6nwvbQdCMTgtNrizdCdO3fOd3Jtli3NeK+iK3zRmZMFxsnueBYAABYDxFkAAEgWxFkAAEiW7M7PakLihnt7e0lXNB6Pj4+PGWPFYhHPagEA+pgcz0ZWrAt1Yiq6eFz6EDJ2AICwmBzPPnv2bAYnSoVnMJJ1HKdYLN69e5cWFd29e7dYLB4fH2NUCwDQwdh4NrJyXKgTU9HFk6QPIWMHAAhFxDi7v7+fy+WOjo7G4zHdxVerVdKX52uzKSbSZqVSoXvt8XjcarUKhYLjOKVSqVKpeE9UIBUej8eNRqNQKJBl/rnVauVyuVKpNBwOGWONRkPcJMbjMbWiUCicnJz4+kY7d3Z23nvvPdGNzc3NnZ0dzB4AALQQk8rE1GGUDOqLG3o9USAW9tU3pLx5lJHItm1fucOpkpHcN1/pQ/20cgDMNQz5ukwQPS8ifRZ1GKVwqS9uGDnO+lrWKamWjBR980ofumFk7ACYaxBnjRAlzgbpMPqGSx1xw9nHWU3JSIVvoXwGYE5BnDVClPnZTz/91LKsra2tlZUVSocaxNHR0SeffOIb1NKFJnmlvkjbKQDAYhJlXdfGxkaz2Tw9PT08PNzZ2WEBySkajcbt27cHg8H6+npcN5Ph7OxMP/8TAABEI8p4NpfLOY6Tz+cPDg56vR6FWi9bW1uMsWwGWRL5OD4+dhyHvVp74FuSJj2omARN3QIAgJqI67qq1Sqtkfr+97/Pp19pfoDHLNocDodnZ2dUYDwe+66Fkk5UIxYWcznzzzx08kPezQ8//JAxdu/evZWVlVwut7a2trm56esbDXilOEttf/vtt6d6CwAAJnUYJcU6fXFDr9SdgiB9OqlR6k1XqQko+uYrfagvYwfAXMPwHMwE0GGcjlf6UF/GDoC5JgcdRhMgL+J0JOlDyNgBAEKBODsdUfoQMnYAgLBkLv+sOsVBWnMaJH1IuWMgYwcACEXm4mxmZ4eDpA8BAEAN5g0AACBZEGcBACBZEGcBACBZ0oyzYmbuJSfoXThFF+3v7/u+DQwAyBppxtnd3d2trS1KnaUgFeFFTYz4xkUevYekLhKrgyIkAPNCmnH24OBAp1hkeccZEN83Enm8deuWb+YwqYvE6vL5PClCYlQLQMbJ+vxsKsKLmhjxTRJ5DFUdFCEBmAtCx9ncK7ybXMeQMUYKjKVSiSfrIhzHIVXEQqHgPeTVbfRVafRKKGpCc52FQqHb7ZJWo7pFks9cepL2h/LNq1zJAkQeg7rItzooQgIwB4hJZXTydfEsWbTJU3CJ7xdQdqvJZEIKN/1+n59uWZZt2yR4QyJd3JSvbqPrUYjxlVDUSZlTLpcty6IkW3QimVW0iPtcq9V41ZZlccEeTd+ClCt9RR4VXeT9yqAICRKFIV+XCSLmRWR6Cl2Uw5DnTqSwwsMuqRny8mrdRm4zSEJRjTciK6oQN+lEngKRMiJSJNX3jQUoV3pFHtVd5I2zUIQEiYI4a4Rk46y0h0asClOuhm5jkISiGnXVihZJJ1Jc4wlqNX3TV64M5adiJwBGQJw1wkzjrPqo67q1Ws2yrH6/rxkE9QnlWOQWBfnW7/d5CBbHnlM7ZKozikoBiA/irBFmsd6AxmhTId3GL774QkcbUXqGlhxcJkfcqW6R1zdSruz1erZt7+zs6MjzAAAWhmTjLEWcDz74gDZJ/fD09NS3sKZuo76EogjNRQRVreDGjRuMsRcvXtAmVbq5uRnKtyDlSq/Io7qLgoAiJACZRhzcas4biKsI6LkQe7U8gD7TYyJ6ti5qbdHDccuy6Ak7f+hP59LIcTAY8HkDenZE+0mRzBWWB3Ck5/W+kE1eNT1u4o1VtGgymdAaA3KmXq/zh3X6vjHGyuUyfaYJaDrdu95Ap4t4dS7WG4CEYZg3MEGUODsYDOgHTz9vWslEYYiCQq/XowK1Wk168jMYDCio2bbNV0EpdBtdP5VGr4SiDnTbzr0S46yiRa7rjkYjGmYyz7MsTd9YgHKlr8ijZhdRYShCgkRBnDWCYR1GWj8fx8LMyIirXpHHUEAREiQKdBiNkPX3bhceSeQxFFCEBGAuMBln+UP57L8Gmh1XRZHHUCdCERKAecFknF1bW5M+zIycEm/5FF31QiKPX331VaizWq0WFCEBmAtM6jCmONcZturUp2UlIog8Yk4WgHkB87MAAJAsiLMAAJAsiLMAAJAs0GE0AH+/tlKpVCqVtN1Jk5jfKcQlwUICHcYQ+HqiUFE0Yn++0PxOg4C4JFhMxJfDNN+7NYjXBy+UBGA2/qjxekLZD6QXZw3an0d0vlMFnU5HVKwA6cLw3q0Jsj4/mx0dRl9P9FUUo9lfQiAuCRaPpdBh5I45jlMqlfgUapAdSXiRdno9kVQUxalJ8TMJPhYKheFwyKvwyjJ67ft2yFTLvs5H6Ldut+t914NOz+Vyw+HQ1z0RxaWi9gfikmDREAe3i6rDyCdPO50OZe1S27Esi2uO2bbNP0ueSFkNeS1SjbyXeIuCZBkl+74dorascD5Cv1ExSX6tXC7TiVO/L7XApcIfJHvMDgzzBiZYFh1GMiLO+gXZof1i4sEgNTCviqLCbemQryyj175Oh4ibCuej9Ru1kfcb/THouzfVVV9/IC6ZHRBnjbAsOozeYkF2aH/Yhk/tCm8/6Mgy6nSIuKlwPlq/0T8l1/dtt9vSKFjt3lRXg/zRdA8kDUOcNQF0GKeXDDoUqrHipr4sY9gO0XdeH5KToM/SEHiqe9FcjeMtMAvirBFmEWeDZlqlPXQjyYVe1L9Vcc5Xh6CqvXYoAvrOXZqKswTXd+ChVioTqkM0nQ/bb9yNTqczGAzEOVMd96ZeKkH+IM5mBMRZIyyLDqO+HQpVh4eHtH84HJZKJV8LXhVFTYJkGSU0O0RE4Xzkfrt8+TJj7OHDh8+fP3/nnXfiuCcy1R+IS4LFQQy6i6rDKD34lnZKdug5ON9p2zYfc0meSOsNuMHRaMQ/0wwsf+LHVdR8ZRkl+74dorascD6ovfRvoV57QCFPejCldo/8UVwqiu8R6w2yA8N41gRR4uzc6TDyX7IY9BV2yAGqVLyxlTyRVBRZANIh99V6A68so2Tft0PUlhXOB7WXLEs9I0GeSNZ03FMLXAb1P8QlswPirBGWV4fRCDFVFLNDoVDgWuupA3HJ7AAdRiNk/b3bjBNHRTE7dLvdu3fvpu3F/wJxSbB4LKkOoykiqyhmh5OTkx/84AdGUjTEB+KSYCFZUh1Gg0RTUcwOly9f3tjYSNuL/wXikmAhWVIdRrNEUFEEvqAbwUKC+VkAAEgWxFkAAEgWxFkAAEiWJdVhnJlgYtDrrYq2Q4sQgAVjWXQYU5E4VEg0Sm0X3YMWIQCLhvhy2ALrMM5e4nCqRKPYdsk9aBGCjMDw3q0Jsj4/a0SdMBWJQ32JRq970CIEYJFYCh1GyYhaMLFUKpGsIfnJN4Oq9hV5lCQa1W33bSO0CAFYHMTB7aLqMLp+ybCZoFLDjVCmKNu2fVUOfav2FXmUUiZObbv3u0BuQJAFGOYNTJCsnkLWdBh1fFZsBlVNZcTpVK9Eo7rt3jgLLUKQBRBnjTBTfbDs6DBGi7NBVatbrdN231ZoNg2A5ECcNcJMn4MdHh6qCxwdHX3yySe+4YxDU5lSM0x6mUzVU9sOAFhUTOaRCYKGclNpNBq3b98eDAY6klNnZ2dpZZlKsWoAwDyyvDqMEdCv2ivRqG57ENAiBGAREG+BF1WHUTKiEEyUZASDNsWqfUUevesNdNrO2+hivQHIBgzzsyZYCh1GyYjiL0e96Vs1LyD+o0gSjaHaToWhRQiyAOKsEaDDmBQxJRqhRQiyAHQYjZD1927nlzgSjdAiBGCRgA5jUkSWaIQWIQALBnQYEySaRCO0CAFYMKDDmCwRJBoxJwvAgoH5WQAASBbEWQAASBbEWQAASBboMM4anVZH65mgs+j9YMg7ApAWs8gjE8Tu7q5OFivHcVZWVmI+6TJixAg6rdbsGZ2zSAvy008//Z//+Z+bN28+ePAAKxkAmDXiy2HQYZwNOq3WKTP1LEkLEvKOICwM792aIOvzs/Orw5gFJC1IyDsCkArQYUxEh1Ef31Z7q5Pc0OkEXy1IyDsCkALi4BY6jKZ0GPWdUbea3KB6mZC+K6gTRMu+WpBItwhCwTBvYALoMCaiw6jvjGarKSdvrVbT8YRb9n6bkHcEoUCcNQJ0GBPRYQzljE6rI3gS5FVYb8EywxBnTQAdxhAkVLVOq2fjCQAgCaDDGBqzVYdqtdSTUIQEYC6ADmMIkqhas9XUae+++66+J14tSA7kHQGYKeKNJ3QYTekwKpBsqlvdbrfdV6sLxIdXak/IAtYbgPgwzM+aADqM/4f7+hSnd9O3al5A/EdRINkMarXruu12m7rRtm0KuFJPBnlCln21ICHvCEKBOGsE6DAuMl4tSMg7glBAh9EIWX/vFsRB0oKEvCMAqQAdxkVG1IKEvCMAaWFyXZeowzjjqQO12OIyO0NakJQ7BvKOAKQCdBjNkylnWCQtSACAQTA/CwAAyYI4CwAAyYI4CwAAyeIzP7u5uTl7PwAAYFF5bTz7wx/+8OrVq2m5AgDIGlevXv3hD3+YthdzTy5rD8cBAGDBwPwsAAAkC+IsAAAkC+IsAAAkC+IsAAAky/8HEmBhL6plqh0AAAAASUVORK5CYII=;" vertex="1" parent="1">
          <mxGeometry x="1520" y="540" width="461" height="401" as="geometry" />
        </mxCell>
        <mxCell id="s5Hh8r9x0Z7aiqoJIuo2-7" value="" style="shape=image;verticalLabelPosition=bottom;labelBackgroundColor=default;verticalAlign=top;aspect=fixed;imageAspect=0;image=data:image/png,iVBORw0KGgoAAAANSUhEUgAAAesAAAEOCAYAAACpej+QAAAABmJLR0QA/wD/AP+gvaeTAAAgAElEQVR4nO2dT2gkSXb/v2XWLPxgkBaDdGi7F9ZGQ88uyPiw1tiww+w0LDOQNRf3rDQg5lI9pGAa3G4dvE2J6qabmT2UvIdukCjpsgi6arr3VMV6MLRkusFIl11K2D1LCTxsyjOGKvZQxR68p43foeelIqMiMyOzMqsyq94HCqmiIiNevPzzMl5EvCgIIQQYhmEYhskqd/9k0hIwDMMwDBMMG2uGYRiGyThsrBmGYRgm47CxZhiGYZiM841JC8AwTD74p3/6J/zP//zPpMVgmKnmL/7iL/Av//IvQ+kFng3OMIwJr732GgqFAl577bVJi8IwU8nnn38OIQQ+//xz9ae73LNmGMaYa9eu4c6dO5MWg2Gmkjt37uDx48fa33jMmmEYhmEyDhtrhmEYhsk4bKwZhmEYJuOwsWYYhmGYjMPGmmEYhmEyztBs8BcvXuDJkyeTkIVhmBG5du0avvvd705aDIZhEkZrrO/evYsrV65MQh6GYWLym9/8Bq+99hoba4aZQnzXWWsWZTMMk2EKhcKkRWAYJiV4zJphmJlna2sLW1tbkxbDQ1SZer0eGo0GisViilIxk4IjmDEMM1VE9TCMK+Kyn1yWZcGyLLz77rtYWFiIXX6pVEKr1Yp9fBBpy86Ewz1rhmGmjnq9DiGE+yHktHq97qbfu3cP9+7dS1UmIQS63e6QLA8fPsT5+TkWFxdxdnYWW6Zms5movDJRZWeSh401wzBTx+rqamiet99+ewySeNH1Pi9fvowbN24AAH72s5+NWyRj8iz7NMDGmmGYqcJxHKN8c3NzcBxnaKxX/d5qtVAoFLCxsYHz83MAQKPRGEojer0etre3USgUUCwWcXR0FCoLGcLd3V2tDMRgMHDrLhQK2NvbCyz36OjIzSu7sv1k7PV6aLVaKBaLGAwG2NjYCB03V2UPkrXX63lkoLoAYG9vz9Wp3EvXya+mmZaVa4TCp59+KjTJDMNkHADi008/Ta38K1euiEqlklr5aQLA97lmWZbnd/l7u90WQghxfHwsAAjbtsXx8bEQQgjHcdw0otvtCsuyRL1eF0IIcXh46CnHT5Z+v+8pS5VJlrVcLrvfbdv2fFePcRxH1Go10e12jWSU6z0+PhbtdtvTPhPZZVlrtZqnTsuyRL/f95RFdVFZtm0LAKLT6bjH6tolp5mWlXUqlYq4cuWK7qc7bKwZZkpgY+1PkLHW/a7Lb5JWr9e1eXQGlQx4v98X5XLZY2iCypYN7/HxsbAsS3tMu912DbJMmIxUBhlVXXvDZKcXAFVWAB6ZdDptt9sCgKhWq4H5TM6ZrqwsE2Ss2Q3OMAyTEI8ePQIw7Ka9f//+UN6//uu/RqFQwPz8PACg3W5jZWUltGx57HhlZUU7sezk5AS7u7vasXtTGefm5nxlCZOdomDKslKgLarfj+XlZQDA5uZmYD4Tkixr0vDSrQlCY0GjzkLt9Xo4OjrCo0ePUp0RyjBMMLR0ShgsBzPJoyvbhN/+9rfY3d3FBx98MPQCEEVGP8KOVcevgQvjn9bysmlnpnrW8puk/CkWi9je3s7tRIRKpYK1tbWx3QQnJyfY2NhwJ3AcHR1hMBhwBC2G+Zo0niWWZQEATk9PQ/Ourq6iXC7j9ddf90zqkknzeUey6uq2bduoDNN84y5rUsyUsRY+awX39/fR7/fx6quvGt0ISZHU2s6dnZ0EpDHj5OQEr7/+Ot544w0IIbCzs4M/+7M/w/r6+thkYJisUqvVAAAHBwcYDAYALmZejwoZwN3dXbfs8/NzbGxsaPNvbm7CsixUKpWxyUi8//77AIAvvvjCTaO6rl27FngsvUS88847I8uRZFkTRx3FnoUJZogwozEv6NqUBjS7UoUmcjCTAzzBTIs8m1ie8OT3u/ydJlnpyghLkz+O4wghLp4zfrIEyUwzquVybdvWzpomuWnWNM3KDpNRN/OaMJWd8tLsb8pbr9eHnq9UHk06owlr8qQ5IcTQrG6arCY/s03LyjI8G1zB72IMMnjdbldUq1UBQFiWJQ4PD930er3uXhDNZtO9gOgGpdmXcpp6nF85lmW5xxD9ft8t07Is0el0tLIHydxsNt1lFOryDzqGlnzI5dLDQl6KIutPRZZV99AIksNP/rjnRKfLaYKN9TA6o6Rep3555LymaUK8NJA0Q1q+501k8ZOJ6Ha7btnlctmzJEl3DM3KjiOjbpa5ieyyrLVazWNE1Rnm9Ju8bKxWqw3lcxzH/b3ZbAohhLv8jF4GTMvKMmysFXQXGr2B6qb4m65LjLImM2htZ9A6Tspr27Z7EcrGMKrM6lrKarXq6QXQDU1QD9r0RghaFxokR9h61SjtC9LlNMHGmskbJkZ/EmVNCjbWCupJpQe87LKRMV2XGFSHLi3suy6NeonyG7Xsnooqs+5NVw2goJbT6XRct5TfG7Msg8m6UPX4MPmTOifTBBtrJm+wsfbCxlpB585RXawy6jiR6gYap7H2GzNW88WRWS7fzwDLHB8fe4w2uadUGYLwkyNM/qTOyTTBxprJE2FzCSZV1iThoCg+iK9ng1uWhX//93/3zSevS1Q/40a3flFHXJlv3rwJy7KwtraG+fn5wBmiKysr2NnZwfHxMSzLQrFY9CwfG2UpWZj8WTonDMNEZ3FxUfv/pMvKKjNtrIn9/X2cnp6GBqzP4zrsqDIvLS2h2Wyi3W7Dtm1sbm56DHahUHCXYBArKyt4+PAhAHg2HoiyLtSPMPnzeE4Yhhl+0c5KWVmFjTVehsQLMtjjWJdoCskSZgDjykzGeHl5GTs7O2i320Oh+n71q18NHXf58mUAFwZa/t90XWgU+bN0ThiGYVJHdYxP+5h10NgGzXTW7VIDzdioui4xyppMk7WdunWNNKtZXoYkL8+QZ1ObyKyCrydpUdmO42gD6h8eHnrkpAlf8pKuKOtCg86TKn+ccxJljWheAY9ZM0yu4QlmX6N7uKttlZcmyUbKdO2kaVrYx68ckoUmdtm27VnGJBuiqGsp6Td5/bK6lI3k6HQ6njWU6ppPwnRdqC5wgZ/8SZ2TaYONNcPkmyBjXRDC6+B//PgxfvzjH0+t359hppVCoYBPP/0U7733Xirl/+Vf/qUnfCTDMMnzne98B//93/+tJt/lXbcYhjHiT//0T/EP//APobGdGYaJx5MnT/Cf//mf2t/YWDMMY8Sf/Mmf4Lvf/W5qPXeGmXU+//xzvHjxQvsbzwZnGIZhmIzDxpphGIZhMg4ba4ZhGIbJOGysGYZhGCbjsLFmGIZhmIzjOxv8tddeG6ccDMMwDMP44GuseXkGw+SLu3fvTloEhmFSwtdY37lzZ4xiMAwzKmysGWZ64TFrhmHGQq/XQ6PR8GyjOg11TZIstDMLMoyDSbeTI5gxDDMWKpUKdnd3x1JXqVRCq9UaS12TZJw6zbIMxGAwwPz8fCp7W0y6ndyzZhhmLOzs7IytrmazOba6Jsk4dZplGYjnz5+nVvak28nGmmEYhsk9g8EAe3t7kxYjNdhYMwwzdnq9Hra3t1EoFLCxsYHz83PP7/TgLRQKKBQK2NraQq/XG8rTaDTcPGEP6qOjIzdvoVDwpBeLRRQKBWxvb3vq6fV6aLVaKBaLGAwG2NjYwNbWVqAM8vG6+tQ0dSy01WqhUCigWCxq9UL1FYtFnJ2dBbY5DBMdhrUxStlRdKuytbUV+Hu1WnWHPmQdm+if5ADgXncbGxtG+pWv5WKxiKOjo9Bj4sDGmmGYsfPFF1/g1q1b6Ha7+Oqrr/Dtb3/b8yD/53/+Z3z44YfodrtwHAf3799HpVLxlLG+vo4XL15ACAEhBH79618HPsz/6q/+CrVaDd1u1x3TbLVaeOutt3D79m0IIXDp0iUsLi66D/NSqYRisYhWq4Xf/OY3sG0bv/vd7zwy/P73v4cQAt1uF61WC6VSCYPBAADQ7XaH5HAcx/O9VCphbW0NrVYLJycnsCwLjuOg1Wrhk08+GWrzs2fP0O/30Ww28etf/9pQ43pMdBjWxqCyg44L021U7t275/5P7THR/+LioivHyckJrl+/jn6/DwB49dVXAw12r9dDqVTCpUuXIITAP/7jP+Ktt97C6elp7Hb4IhQ+/fRToUlmGCbjABCffvppauVfuXJFVCqVkcoAMPR86XQ6AoCo1WpuWrlcFrZt+x5Xr9cFANHtdt204+NjYVmW9ph2uy3q9bqRPABEtVodytPv9z35Dg8PtTIA8NTlV4ecZpKn2WwKAKLT6bhp/X5fe6wJJjqM28aox6m6jYuJHnVpujztdtv3WiBIh2rZ5XI5lvyVSkVcuXJF99MdNtYMMyXk1VgHpTuOI6rV6tDvlmWFPqfomOPjY4/hl7FtO9aD3O9YMp5+Lw1R6lDTdPUFyReGiQ7jtnEU3YxCksbaJB/pUPeJQ5CxzpUbfNLr3EYlbMxlnETVZVK6z+I5nOa25Zm9vT189NFHsCxr6Lcoy7J++9vfYnd3FycnJ0O/2bYNAGg0GgDgui+r1WpoubplPHNzc5HlMyXpZUMmMsZt47h1MymoLeJrt7v8SRzVfGe5Z01va1mVT4beImXK5XJs90jSRNVlUrpPqhwk+DabtbbFBTnvWcu9X3IvOo6jPY56NO1226iucrk85JYlms2m23u3LGvIXe4nM8mglqm2RXe8mhY3T1B6GCY6jNvGUXQzCiZ61KWZXpd+x8lDE6MwVW7wvBhrGl/KMlF1mZTukyqn2+26ZY065pW1tsWtO4/GmsYGg8ZA1e+1Ws19kNK5dxzH98Ha7/eFZVlD7vBmsxl67fidU3qhOD4+dtPoJf3w8DDw+DjGmtqsGte415yJDuO2cRTdjEKSxprmUjSbTd98pMNyuezqsNvtesa5o8DGeszQgyHrcubdWCdZVtbKiVt31o013Rf0wO52u8KyrKGHG+VzHMd9aMo9NTqO0snoUA9H9yLnOI4AvBPZ5OPVsrrdrqccFbrPLcty5arX60MvBORxIdloopVcjyqrPHGMyib5LctyPQ40kUvtAZoQpkPTNsryU56ox5lg4pmUe/R0TYXpX4iL64BeGPv9viiXy57xdV075TT5Q+cnKrky1v1+331boTcW2ZWintyg/N1uVzSbTWFZluj3+8K2bff3er3ungjqBdu27SqZ3gzlNFPI5SZ/1DpHlYEuRrp55bdVU6LoUs4v1+2nnyD5TG5Q0yED05s9S21LizwYayFeGhh6qNq2rb12qbdN54lmh8vng9Ipn2xk1PuP6lXT2u227yQheViDzrVKt9v1XFf1en2op+44jlsH9dLI3a572PvJT2WRXGTo5bKiEqRD0zb6yRrlOJ1uVUyeCep1I0S4/mVZ5OuhVqsZtdNxHFeHceyFTK6MNV2I3W7XfZMMGjMIyi/fhMfHx6Ldbgvbtj3p5FKity3btl3Xja5+U1Q55TrV71FlkG9QIS4eQkFjTyYymuqeZJPfzOUHRZh8kzDWWWpbWuTFWGeJTqejfbhSb56ZDSZ538rkyliHra9Uv5vmV992dSfHNM0Ek7LiypDU2r64upTRrZENky/JG8O0rDy2LSpsrKOhW3dN9Pv9wN+Z6YKN9Qj4ra/0U2rU/Hk21kmt7UtLl2HyTcJYE3lqW1TYWEfDsixRq9WGetadTsfzgsZMN7qx6EmRu3XWQesrk8ifd9Jc25eELse69jAC09w2JjoHBwd45ZVX8Mknn3hikH/55Ze4fv36pMWLhS4mdlCcbOZluFHd/1kjc/tZNxoNfPjhh3AcB5cvX048/zRxdnaGpaWlxMobRZcUXEImafnisLGxgZ2dnalsGzMac3NzWF1dxerq6sS3P0wKfmmMTl50lrme9draGgAYP1Cj5p8GarUagJc9AwqKTzu/jEIcXVLEpzfeeCN1+aJycnLiyjVtbWMYZsZQHeOTHrMOWl+pG1swzS+jW9cYtoYu6liGut5PLWsUGZJY2xdVl/LvYWtkg+Qz1anJbPCgdZo0s55maWepbWkBHrNmmFyTqwlmQesr1QdklPy64PFyOaZpcduhe8CPIsOoa/ui6pIwWSMbJJ+pTsOMdZg+1RehLLUtLdhYM0y+CTLWBSG8DvvHjx/jxz/+cW78+AzDvKRQKODTTz/Fe++9l0r5r732Gt577z3cuXMn1vG9Xg9HR0d49OgRms1mssJlHNrAR95zmXkJ6+aCO3fu4PHjx/j888/Vn+5mbsyaYZjppFKpYG1tbap2XZpFTk5OsLGxgUKhgI2NDRwdHWEwGPAs85TJ3GxwhmGmk52dncS3ecwL09JrPDk5weuvv456ve7OoD89PcX6+nrsMqdFN2nDPesI5GENYx5kZBgmn/z85z8HAKyurrppy8vLbHDHABvrCAhNIAzdh2VkmHBarZbrSu31ep7fBoMBGo2G+3K5t7fnyaN78VTTer0eWq0WisUiBoMBNjY23PHRKGxvb3tk0JUPvAy6Q+05Oztzj+/1emg0Gm4+9TvpoVgs4vz83DiPXD7JWCwWcXR0FKv9W1tbofr56quvAFwsaySWl5eHZJom3WQCdcrZpGeDMwwTD+RgNji+nilPG6bQMjp1sxwKBSrExTI62j2P0oDhFRJymt9GPlGoVqvubH/aNpHKhzTzn9pDu/sBF1syBm3i47dhj0keWTe6jWWitj/KrlbA8K5UMtOmm3GRq6VbDMPEI0/GOiiNHqryWnVaNy9vrmFSFn33Myom8qq7runKlyGDJq/R95PLRPagPKYby8Rtv45Op+PZPlS3Laif/NOum1GJtXTrv/7rv/w64wzDZJDvfe97mV66BcB1IcuPHTVtY2MDu7u7njyDwQDz8/OwLMtd9mVSli5PFEiWer2Ot99+G3Nzc6HtMZEjruxqWrFY9J1dL4QYuf1BnJyc4Oc//7k7abDZbHri7s+ybuIStHTLt2fNH/7wJ3+faehZ6/KY5jMty5ROp+NxmaoR7eLKGlf2qO0btf0mHB8fuzpqNpuhdc+SbqIS1LP2XbrFPWuGyRff+973Ji1CIliWhVarhV6vh4WFBc9vuk1V0mRpaQnNZhOnp6fY3d3F5uYmAODWrVuhx45T1nFtLFMoFNDv9z0ehpWVFTx8+NCdsCUMeqrTqJvUUc03j1kzTD7BlPSsaayRJg8J8XJyEgBPCFiTsnR5osorj2nSmGtQ+TRpLqiXGVd2Na1Wqwng5TisPPmOPACjtl9FPQfqb7qwzjLTrJskyN1+1gzDTB/y0iv6n3Yuk9PefvttWJaFjz/+2E377LPPYNs2fvjDH7r5qXdGS4FOTk7c33TLweJSrVbdJUHf+ta3UK1Wh/I0Gg23PQcHB7Asyx2/Vdstf6f2q3owyQMA7777LgDg/v37mJ+fR6FQwOLiIq5duxa5/SZLtwDgrbfecqOWkVzUft1662nQTRZgY80wzFhYXFwc+n9+fn4obW5uDvv7+7AsC4uLi+5EoJ/+9Kee8n7yk5/Asiy8+uqraLVaWFlZgWVZqNfruHv3rqc+WpMbhxs3buDJkycoFAp48uSJ1gV+5coVFItFzM/P4/Llyzg4OPBtt/yd2q/qwSQPACwsLMBxHJTLZQAvX2Boz/ak2q8ihMCf//mf4/HjxygUCpifn8eLFy/Q6XSG1lsDs6WbNOGNPBhmSsj6Rh7TSBZnFGcF1k10eCMPhmEYhskxbKwZhmFioBuDZ17Cukke3nWLYZiZwnQjmzD3rTreyu7eC1g3ycPGmmGYmSIpw8EGyB/WTfKwG5xhGIZhMs5YjLW6pVne6xl3XSbQVnBBv4fJu7297VmvyDAMw2SDsbjBK5WKG+w9TUqlkm/g9qQZV5tM6PV6qFQquHnzpm8enby0OQK5rK5evYr19XXs7+8PhXlkGIZhJsdYetY7OzvjqMbdjWccjKtNYQwGA5RKJXzwwQeB8W918j5//tzzfXl5Gbdv30apVOIeNpMpTKNrTSOz3PYwZkk3PGadc/b397G8vIyVlZVIxw0GA+zt7Q2lr6ys4NKlS9jf309KRIbJLIPBwHh2ODM6Jycn2NjYQKFQwMbGhhu2lM+BAWq08LgbefT7fTcAPwBRq9U8v0MKmt5sNgUAYdu2Z2N3IS4CreProPBq0Pgo9QhxsZG9mm7aJgoGj68DwsvyqmUG5e92u6LZbArLskS/3xe2bbu/1+t1NwC+rBvHcYQQFxsbyGlUJnwC68t6sizLDaBP8pbLZY9edDpTzw2TbZCDjTyyBt1vTPocHx8LAKJer7tp7Xbb3V6TCd7IIzFjbVmWKJfL7ncyRgQZBNpJh4yHbdtunm63KyzLck8mGY12ux25HsJxHFGr1WIZHtu2XaPlOM6QvGpdQfnlPXGPj49Fu90Wtm170qmddFHbtu3qS1c/PWhkAy7rybZtd7cZ+QXHT35ZZ1B2xmGyDxvraPT7fTYUY4SejyrqTmazTOrGmgyBbBBpQ3JCZxjUNCpHzUPGOGo97Xbb8xYXlXK5HGic1e+m+eUt93T5TNOod6xCRrzT6bhptMWgibGmvLSVHJMPsm6s43qR1OP8yrEsyz1G5zFS04K8S2EePlOoDOowUB2yp02Ii+0cbdv23Ldx2m6SJ6ydfp5AP8rlcuDvQlx0WOTOF6Hqfpp0E4XUjbXJ26mJ8ZF7mbqbKEo9x8fHHsM5Co7juCfNtGcaJX9cY+1Xnt8brOnxYb8x2STrxjquF0k+Tv3udwwZRvkapjxh94CJh8+EarXqGoB+v+95uZafbdQGevDLL9px2m6SJ6ydfp5AP0yMNfWg6eVF7bQQ06abKKRurE0e7KMYnzj16Dawj0OtVtOO+frJEzW/X/oo+jJNZ2M9XWTdWAuR3LUe9/4wyRPm4TMF8HoB5Z61X91k0GSvVlptD2sn5fczqnHodDqu0aXntK78WdSNEGPsWQe9eUZRouzqGKUeepONO1GKTpjqWvOTP2r+oHQ21kxU2FgnkyfMw2cKGaUoBslExqTaHtbONJ8B5PmkOtT5MbOqmyBjncjSLcuyAAC7u7vu+tzz83NsbGxEKqdWqwEADg4O3HLkyFxR69nc3IRlWahUKhFb9JK1tTUAwOXLl1PJPyrVahUAhtZEkx5PT09HKp82bWeYWYICKwkhhj5RuHnzJizLwtraGubn5wMjDE6CpNoZh5WVFezs7OD4+BiWZaFYLI4toJUJk9SNL6r5jtOzJv8+pLcPeTKAPH5EvVx5wpO8vAmaNxl5coBpPfQmS+MR6hIvE6gux3E8bu1ut6ttk2l+VXeqzLqydWl+s8GpzfKkCXkJmzp+QxMp1ON5Nni+APesE83j5+GLCo1pAsEuXDk9ysTWUfP4tdNPvrjIzzgZ07kElD6NuiHGsnSr2+26budyuexppGp8/dKEeHniqBx1XXGcekZZZ01jJLQemmZ7yxeXXK5pft3s9TDd6NLIgOvG5R3HcR8QtJ6dJkyQsVflJWjSD6+zzhdsrJPJQ7OPy+Wy5wU66uoI1TipS5R0ddNLvvyinFbbw9qZhrH2m1Xv91yUmWbdEGMx1sxkqFariS+xKpfLvGwrh2TdWMf1IgV9p3J0njp19jC9hNILrBB671KYh88UetjTcbRKRP4duAgSQjPGZaMVp+2m+glqp58n0A+T2eBU3uHhoUcumusjz0WaJt1EgY31FEOBHUad9U7Q0oSkZzky6ZN1Y60++EzTwj5+5TiO4xpj6o2ZepfCPHym7ZXX6qovwCSrvBxIXdIUp+2m+glqp5xXNpB+mBprIV72kNVIj6q7eZp0E4UgY134unKXx48f48c//vFkB9KZSPR6PZRKJdy7dw/Ly8uxyzk7O8PPfvYz3L17l3fdyiGFQgGffvop3nvvvVTKf+211/Dee+/hzp07qZQ/a1A8bH7WDjOrurlz5w4eP36Mzz//XP3p7sxt5FEoFIw+eWJhYQEHBwd4+vTpSOW0Wi021AzDMBlk5oy10EzF133yxtzcHG7dujVSGbdu3WJDzTBjoNfraf9nWDd+fGPSAjAMw+QFU69b2Av/4uKi5/88dhDSgnWjh401wzCMIUkZDjZA/rBu9MycG5xhGIZh8gYbax96vR4ajQaKxeKkRTFGDs26tbWFra2tCUs0Hra3t4dCrjIMw0wTuTXWg8Eg1VnblUoFa2trmYpXG0Sv10OlUnHjp6dB2jqPy9WrV7G+vs6TURiGmVpya6yfP3+eavk7Ozuplp8kg8EApVIJH3zwAZaWlgAA9+7dw7179xKtJ22dx2V5eRm3b99GqVTiHjZjxCx5npjpIJfGejAYYG9vb9JiZIb9/X0sLy9jZWUltTqyrvOVlRVcunQJ+/v7kxaFyRhZ9QglySy0cdZJzFgfHR2hWCyiUChge3tb65IcDAZoNBpu4JG9vb1Yrstqteq6p9UgJknVodJqtVAoFLCxsTFUXlid6vi3XNb5+TkAuMfLafLx29vbKBQKKBaLODo68vy2ubmJN99807c+v/qLxeJQXVQPtYF066dzMuKUtrW15bY9Sr06HaoE6QEArl27hs3NTXaHMx50HqE0PE+TJKteLyZB1ACkcWKD01aNFJ+aArNDibVqWZa7VSXtAhU3DrVadpp1ULto1xd5izaTOuVtPSlYPW0qYNu2Wz7tziWXL++WJcTFLmJUjm6bTLk+9XtQXdVq1S2HAufLOtbpnDZL6Ha7Q2Wa1kt55djCtm17vofpQS57Vrf2RMZjg08Cip0f9ZmWJ2ahjbNC6ht56B7iUALX08NVtxUjPYBHrXMcdahppnWalKVLoxcfNQ8ZMtWg+pVjUpfaDtpdJqgM2gZ0lHqpjaoO5SD5YXoQ4mL3nFndMSwvxlreaQlfb9CgXnf1et09//RCKu/PbgrdH/JHLd+vPnnzBpLXb9te2qzDsizfbSDDoDJIH+r17lePro1MPkndWFPvSka9aHR56OEaZ+eSoF5emnXEbVdcYy33Tugum/4AACAASURBVHU3pN/NGcdoUlvq9brWExH0IKDt/+LUa9IrCNODiYzTTl6MdRRPVJhHxoSge0r9nrTny5Qwr1ZYPbN83U8TqRtr2maOLiT6rtu7VSXuRRblQZ1mHUkayyjlp1F/p9PxPLj8tvRTqdVqwrIsd5ggar0m58f0HM7yQysPxjppT5QJca9BkzQTj4+pjEFerbB6Zvm6nyaCjHUiE8yWl5fRbDbx1VdfuZOM6vW6Z2MJWv+rm/xj23YSYoyljknVeXZ2llhZfiwtLaHZbKLdbsO2bWxubrpBVvxoNBr48MMP8fDhQ3fZWFRIh6enp6F5x6EHJj2ePHkCAJ4NY65cuQIAePTo0URkGgWSWd2x7/79+5HKsW0bi4uLaDQaGAwGWFhY8ITdTKoeJseo5jvuBLOwCVz0ZkguJSEu3MVxxnigeZMcRx1qmmmdJmXp0miT9nK57OqYxq6EuBjnUvWvlmNSl1oOeUiilhH1GGqjbdtu/Y7jeNyNYXqQy47aq5kWkIOete560KWb3i9x64xbn8lxcYjr1UpaDmayjG2Cmfqxbdt17dCMRcuy3LR6vR5rDEqIi3Em+YGdZB3khqI6qHxdWlidclmyoVHLCkuTPzS+pZsNrpajq1/XFjJ0VBaNQwfpnNIcx/G4waPUS+Nx6rXT6XS0bdLpgeQFeDZ4WiRhrOVrSIbOufw9T8ZavlZHod1uu3NHdMOIfvWwsZ4OxjJm7TcBSDVa1EMC/CcymdZJxkUd60miDrUdfmkmdZqW5Ve+4zjuhBN1NioZMbln7/fyZFK/PONUfbvX6VxNo9nhZDij6JDaWC6XtQ+lID0IcTH2qRqCWSEPxjppT5QJaRprU4+PiYxBXq2wethYTwepG+tOp6NdUkE9LSZdqtXqzC5XkimXyzOthzwY67ieKJ1HxhTVI2TieUrK82UKGWI/r1ZYPTqvF5M/Up1g1mg0sLS0hMuXLw/9tri4iHq9PmoVTAilUgnPnj3DycnJpEWZGKenpzg9PUWpVJq0KEwAc3Nz2N/fh2VZWFxcdCdK/fSnP3XzLC4uuv/Pz897/qq/m0CRyh48eID19XXP8YuLi9r61Dx+aQsLC3AcB+VyGcDLiWKO42ifh2HcuHEDT548QaFQwJMnTzwTdMPqUdvITCGq+Y7as6Y1k+qbZKfTcddSMulD475R13dOA51OxzM/YlZBDnrWDMP4k2rP+uDgAK+88go++eQTT3zoL7/8EtevX49UlrwsIegzCuOoYxIsLCzg4OAAT58+nbQoY6fVauHu3bue5UAMwzDTxDdGLWBubg6rq6tYXV0deVtJIa0rTItx1DEp5ubmPK6zWWEW28wwzGwxsrFmGIYZN6ber0m+nOdBRiY/sLFmGCZ35MHA5UFGJj8ktp81wzAMwzDpwMbah16vh0ajgWKx6KZtbW1ha2vL9/es0uv13Bjfchumne3tbQwGg0mLwTAMMzK5NdaDwSDVWduVSgVra2totVqxfs8KvV4PlUrF3SwjDdI+F3G5evUq1tfXtZusMAzD5IncGuvnz5+nWr5uZvu9e/fc4AOjznwfB4PBAKVSCR988IG7I5bchqRI+1zEZXl5Gbdv30apVOIedk6YBc9PnrxyTHbIpbEeDAbY29ubtBiZZ39/H8vLy1hZWUmtjqyfi5WVFVy6dAn7+/uTFoXJEWl6i/LilWOyRWLG+ujoCMViEYVCAdvb21rX42AwQKPRcAOP7O3txXJRVqtV90JXg5gkVYdK0NswjQkXCgVsbGzg/Pzc81ur1UKxWMRgMMDGxobbcyBDJweTIVl1x/2///f/PIFb5L2mqf5CoYDz83P0ej1sbm7izTff9G2D+r3VaqFQKKBYLHraIJdP+iSd+52LsLaZ1qs7n0H6LxaLODo68vx+7do1bG5usjs8B6Th+YlDmt6iPHjlmAyixjSLu581pJ10aGcd+hAUmlSIi/CYlmWNtCuWSlp1yLuKqb9Tu+WtHin0pXzc8fGxuwWeEMLdCq/b7bq7VNFvfsfRzlK6bT/lzRF0W2eqbVDrEEIMySHEy41CqJx+v+/ufKXTExGlbX71Ul55f2rbtj3fSef1el0IIcTh4aEA4Am7OitbZ4LDjSYCbTYS9TkYBb/nFzPbjG0/azVN3v2FHqJy/GYyPPSgHbXOtOsI+y7ExU5jclx0yqe+MNB2kmHlq8fRFpayIW632542qgY1Sht0edRtSMPKMG1bUL300qeeT8uyhvKo5cgGnXZsmvbdiPJirOn6rdVqnmup2+2Ker3uOb/yS7/8kfPI27paluXZalNHuVz2XB+63/3q1V3DsvzNZtOVjba1VPdml4+VidoOZvpI3VhTL0pGvRh1eeghKt94pgT15tKqw8TgRMlH0HZ4psfRXrfyC4Hc+x1VNr9z57c3eFD7orRNTTPp3fjtox5W9jSSB2Md5KXx817JL2uqx8jEs6ISZqypXlkOeYtKQt6zXT4GuPAY9ft99/6RDbau/KjtYKaP1I01GQ+60Oi73JMxNR6mRHkgJ1VHGsa6VqsJy7LcHrnpcfQA6Pf77gMhSIYosqlpnU7H8yBVe6h+dUVtW9SXHNM8UfLlmTwYa9X4mnhpCLqO5B6niWclrpwmzxeTa9bkeZhWO5h8kbqxFuLlG6/swlHdzupYLgHox1/D0N0UadcRxVgHuYAJukGplxDFWMkvSM1m032TN5EtqtGU66SXhLAXsThtU9PofAb1LugY1c3ol2+ayYOxjuuloZ6n+qJo6lmJSpLG2iRfWu1g8kXqxrrZbIZO4KKHt2xUyEUdZ2wmyECkVUeUt2j5ZSXuDRx2s9KDT+fipxcn9bzEMZpqOdTGqGVEPUYe86P6HcfxvAhRnnK57OahsT+17GnvpeTBWMf10pTLZe11npZBG7exZsPMCDHGCWbqx7Ztt5dLMyzlGcv1ej1Wj1cIby+abvgk65DHqLrd7tB3WQZ6EdC9/evGutQ2OI7jcRWr9flBk+fksWtCNxs8qE1k6OjlRm4nGToqi8ah1XbI58K0bUH1yrPr5WtK7kXLZckfud08GzwZkpwNHsVLQy9k8jlV84d5VqKShrE2mXCZdDuYfDGWMWs/N458gXa7XffGo95nnCVVVCcZEXUMLIk6/F5A1Jvs8PDQbbtt20M9ePkYtWegtoFmUMsTV3THydCYsAoZMdnLYNImvzR5pqraG9KdC9O2BdVL7aBJSOVyWdtWx3HcPFSHDL3UqMMj00YejLX8giZEuJeGzp2fZ8zUsxJHzqSMNb2syi+Lar602sHki9SNdafT0b710kXKpINuYplMtVrlm128dKHOgh7yYqz9vDSq54de7NRzpy73CvOsqJjMBtd5i9RZ3fQiIXdK5E6CEBcz3tWlZjovUtR2MNNHkLEeOYJZo9HA0tISLl++PPTb4uIi6vX6qFUwPjx+/BjXrl3z/b1UKuHZs2c4OTkZo1TZ4vT0FKenpyiVSpMWhfmaGzdu4MmTJygUCnjy5Alu3boF4OXzglhcXMRHH30EANjc3PRE7pPzLSwswHEclMtlAIBt23AcR/s8igJFUXvw4AHW19cBAD/5yU9gWRZeffVVtFotrKyswLIs1Ot13L1713P8lStXUCwWMT8/j8uXL+Pg4MDTNvX/tNrBTBGq+Y7as6aIYeobYKfT0Y6lMqMhB2wwmTBF476zuF6z0+l45k1MO8hBz3raoXuTYeKQas/64OAAr7zyCj755BNPHOgvv/wS169fj1SW/PYc9BmFcdSRJvSmXavVjGIoLyws4ODgAE+fPk1btMzRarVw9+5dLCwsTFoUhmGYkfjGqAXMzc1hdXUVq6urIweoF0KMKk4m6kiT69evR34Jmpubc12Ns8QstpmZHPJGMb1ej18SmUTJ5RaZDMMwWUM3Fs0wSTFyz5phGIbJv9eOyTbcs2YYhmGYjDOyse71emg0GigWi0nIM1F6vR62t7cBAFtbW9ja2pqwRONhe3sbg8Fg0mIwDMMwPoxsrCuVCtbW1tBqtZKQJ1UGg4HvTO9er4dKpQLLsiZS/yS5evUq1tfXPRNkGIZhmOwwsrEedQb4OHn+/Lk2fTAYoFQq4YMPPsDS0hKAl0ERTJZGJVH/pFleXsbt27dRKpW4h81MlEl4tEy9g9PsbZsmD+m0MjNj1oPBAHt7e9rf9vf3sby8jJWVlYnUnwVWVlZw6dIl7O/vT1oUhhkraXoHk/SmpemZy5OHdFZJzVgPBgM0Gg03yMje3p7WzXp0dIRisYhCoYDt7W1tnrCydMFM1LRqtepeiHJ6r9fD5uYm3nzzTfdY9S1T/d5qtVAoFFAsFnF+fu6RdXt72yNjWP1kxOWAMtS2KPXqdKRCY/JUxtHRkef3a9euYXNzk93hzMRIw6MVhql3MI5sSXrT0vTM5clDOrOoMc1G2SJThsKQCnER8tKyLM+OO7SNI+0MRftRq+WFlaXbTlLe3SlITt1WkvIOYup3kpXKlzfSqFarbjkUwD+sftocQN64gMo0rZfyyuFHbdv2fCe90QYDh4eHAoAnDOmsbCU5rYDDjcZGd2+OCm3Zm0S5SZblRxo6YKIxtv2sCTIEckxm2qGGjIXuOEqTd9kZtawwY6ka1CjH6vKo23Wa1G+yz21QvfSSo+pI3umH8qjlyAad9pSehR2qppG8GGvaarVWqw3toFWv1z3XrfzyLn/UXayoTMuyfLfTDEK+p+gFXo4rr8qmfqdjLMtyX9jlOP5hhjBsJzBdWbpy1bRutyuazaYrJ23Fqe4Lr+qASEK3jDljN9bUW5QhQyDfZLp8ccuKa6z9bqI4x5KsfntoB92wtFVgnHpN3rj99hs31QeTffJgrIO8T6pHS4jhF2DVE2biMTKB6iUPFm3vq/Nyqd+DvF6m95PJtp1qWSYeRfk+Jzlpa10AHoOtKz8J3TLmjN1YmxpA2nieLgb6LvfskjSmaRvrTqfjuYnVHqpfXbVaTViW5T4gkmhXWHtGzcdkjzwYa9X4mnifCLo/5N6dicfIVK6o91lS92aSMprKYPKsTUq3jDljN9byxu1qPnWstdlsetwssms7SllZMNZEu91231zDXjzohqCeQpx6SUdBb7x0jOr68svH5I88GOu43ifq5akvwKYeozBmzVib5EtKt4w5qW6RqeP9998HAHzxxRduGq3fvXbtmpvWarXwgx/8ALdu3YIQAs1mE6urq7HKiku1WvWUOQqFQgGDwQDLy8vY2dlBu93G5uZm4DFra2sAMNIm8xTIZXd3123H+fk5NjY23Dy1Wg3Ayy1NKY8csU2mXC7HloVhgrh58yYsy8La2hrm5+e115+OBw8eABjeSY1WWAghhj7MaLBuM4ZqvqP2rOVxE+r90sxFy7LctHq9PtSrhs9bmzyxw7QsdQyGJqFReUJ4e+n0hq6bDa62Sf5OvQEaN5fbja9dRFQWjUMTuvopzXEcjxs8Sr3U61B1KPei5bLkj9xung2eb5CDnjURxftEk6Lka1XNH+YxCkNXr5oW9t00T5oyRpFBfjYGHTeqbhlzUnWDqw9/otvtujcZfNxe7Xbb19UiX0QmZTmO45ZFxobc6mTUaJymXC57DB1wMflC1yZdG/3S5NmTqstOV7+aRrPD5YkiYfVSO2iyTrlc1t5gjuO4eagOGXrBUYccmHyQB2Mtv3gKcXH9y7/L3+ma9JuFTM+FcrnsWcoZdUXDrBlr6hjIL+ZqvqR0y5iT+ph1XDqdjvZtmS6kcVGtVvkCFC9npLIe8ktejLWf90n1aNELq3pNqsu9wjxGYfh5B+W0uN42nTdNh8lscF1ZJh5FuZNDcpbL5aHlb6rsSeiWiUYmjbU6kUym3+8H/p405GqXe9ezBnk5dJN+mHyQF2Pt531SjULQBCf5GRXmMTKRKcyDFdfbpvOm6TAx1rqyTDyKJI/syazVap57PS3dMtHIpLGmqGTqye90Om60snFC476zuIaw0+l45gkw+SQPxpoZP0m64pl0GftscBMODg7wyiuv4JNPPvHExf7yyy9x/fr1scuzsLCAg4MDPH36dOx1T5pWq4W7d+9iYWFh0qIwDMMwGr4xqYrn5uawurqK1dXVzASRn5ubG1oaMgvMYpsZZhaQN+Xp9Xr8Qp5jJmasGYZh0sR0O0kxxeuGFxcXPf9Pc1unHTbWDMNMJWyYWAfTxMTGrBmGYRiGMYONtYatrS1sbW1NWozIRJW71+uh0WigWCymKNVFXRRaMq/6jcP29nYioWwZhpltZt5YDwYD47GtaaNUKmFtbc2NAZwWvV4PlUrFjWGeBlk9j1evXsX6+rpnog/DMExUZn7M+vnz50Np9+7dm4AkoxNV7mazmbqBGwwGKJVKuH37NpaWlgCko1/decwCy8vLuH37NkqlEg4ODjA3NzdpkTIHeVn8roter4ejoyM8evQIzWZznKIxTGaY6Z71YDDA3t7epMWYavb397G8vIyVlZXU6sj6eVxZWcGlS5ewv78/aVEmjokHRM1TqVTG4gEyIaseHGb6ScxYDwYDNBoNN8DJ3t7e0Bq/Vqvljo/u7e2hUChgY2MDZ2dnQ+XRGGehUECxWMTR0ZGbLo+ztlotN8/5+XkkmavVqvsAILnV8v3q29jYcOujdstpYe0wxVRvfuPPuvMSxNHRkZtXfigFnQ+SbzAYYGNjw+0p9Xo9bG5u4s033/SVM8r5pPrp2iL5dOeR2k76oqA7dE1GqddEh2Hn+dq1a9jc3Jx5d7ifJ0vuVat5shKHAciuB4eZAdSYZnHDjVL4UCEuQnfKsaYhxZ2lGNz9fn8oEL18PMUHPzw8HIptK5dDAf/VbTNNgBKKTy5f/U6hSClYvm3bgTIEtSOqfGF6U+WW2yPHHLZt2/NdPcZxHFGr1TyhR6OcD9r6UAj99qNB+g3SZbVadcuhjQhkuXVtJx3Jm0Ko26WaXEdhOjQ5z+PYfhQZDzdKMfiDni9+eXTnd9yYyM8wo5B6bHB6OMkPeDJo8oYcuhuOgtPLAf3r9br2ZqUHpK6cuDezSVmm9alpYe0YRUad3vzqV8+LvNuOfEy73dZuoGJ6PtRNQFSD6ien6TlQXyDCyqDtRkep10SHJueZdmRKc1ezrBtruh7kT7fbFfV63dWnLo8Q+nMlbwhiWZbvNppy/Sb3HpVJL61Ur5/8zWbT7ZioL3IME4XUjTX1YGTo4eRnGGSCeremN24WjXVYO0aR0UROk16A3Lv080zEOR+jyK1Lo2tMt5d5UF1CXGzDGKdeEx2anue416gpWTfWQoR7snR5dGlxvFYmxjqqByfIs8QwUUndWI/yUI6SL+j3LBrrpB7OcfVmUj/lod6hbpvQOOdjFLl1aZ1Ox/NgVHuofnXVajVhWZa7R3rUeqPoMAw21sndb0l5rXTyRfXgUBpvL8uMSuq7btH6Wd3kGdu2jcrQ5dNNPMsjabYjSL90Xk5PT0PLWV1dRblcxuuvv+47CWqS52NpaQnNZhPtdhu2bWNzc9MNsuJHo9HAhx9+iIcPH7rLxqISRYfTcr3mgUePHgHA0GTI+/fvj1SubdtYXFxEo9HAYDDAwsKCcchOXpbHpEkixvr9998HAHzxxRduGkVtunbtWuCx9IB755133LRarQbg5TaaVI4cASsvpNkOnd5UyNDs7u669Z+fn2NjY0Obf3NzE5ZloVKpeNLjtqNarQJAIhG8CoUCBoMBlpeXsbOzg3a7jc3NzcBj1tbWAACXL1+OXa+JDqPop1wux5aFuYBm/wshhj6jcPPmTViWhbW1NczPz+fumcNMMWpfO44bnGZJWpblupDq9frQ2A0klysdVy6XPePaQly4ntSP4zie38jtROPjUFxYJpBrlSaryOV3u11tfWoekzS1HVEw0Ztf/ep4qm3b7gxyXdto1jLN7I9yPlR0s8FN9Ks7n/jaxUll0Ti033mU0xzH8bjBo9QbpkPT88yzwV+iu1bUtCh55POQJDT2DARP4vRLY5g4pD5mLcTLB1atVvMYFnUMh36Tl/zUajXtWI/jOO7kDtu23Qef+kD0SzOFZlWXy2Xfh65JfX4y+LUjCiZ686u/2+269ZfLZc/DTXcMTdQxbYec1++lSx4HH0W/8uxfdcxaPY+6NJodTobT9BwG6TBMPwStjoj6MhmFWTLW9Kwpl8uel+hRZ9vLL29CXFxDUWRjmLiMxVibwBd1PPKst2q1mupypbxQLpdT10MejHWYJ8s0TxyvlclscHoBMPXgBHmWGCYqqU8wYxg/SqUSnj17hpOTk0mLMjFOT09xenqKUqk0aVEmDkUqe/DgAdbX17G4uOj+Rv+b5FlYWIDjOO4cANu24TjOSPMTiBs3buDJkycoFAp48uQJbt26ZST/OHavY2aXsW3koYYeXVhYGFfVuSbvepubm8P+/j5KpRLu3buH5eXlSYs0Vs7OzrC7u4v9/X2eLYyXG5sIaRKY/H+UPMDLiYNqqNIgTPJRXbdu3fIY6aiyMUzSjK1nrXs7Tgt5OUfQZ5KYyjhOvaXFwsICDg4O8PTp00mLMnZarRbu3r2bu5cshmGyxdh61uN8A83D224eZEySubk5bU9l2pnFNjMMkzw8Zs0wDMMwGYeNNcMwDMNkHDbWDMMwDJNxptpY93o9NBqN3C6p2NrawtbW1ljrpDCZedddFCahZx3b29uJhGZlGGb6yISxHgwGqczOrlQqWFtbc+MIZ5m0dBCFXq+HSqXixgfPi+6yStRzevXqVayvr/tupMIwzOySCWP9/PnzVMrd2dlJpdw00OkgyhrSURkMBiiVSvjggw+wtLSUK92NSlp6jnpdLy8v4/bt2yiVSjPVww7zbEzKy6OrNyteGGb2mLixHgwG2Nvbm7QYEyULOtjf38fy8jJWVlYmKse0EPecrqys4NKlS9jf309Bqslj4m1Q80zKyzMN3qUseOyYhFADkMaNDU4bLNRqtaEN24UQnk0YLMsSh4eHQgjhbn4gf6LQ7/c9G4jIGzkIMRxXOyh/t9sVzWZTWJYl+v2+sG3b/b1er7sbVdBuUvKGDfV6PfZmHTodqHWOKoOf/uk3AJ40VXdyfepmFP1+361bvgbUcuTzoKb56d6UuPox1bNlWdrNS/zaE3RdB50LIS42U4m66QdyEBuc9Bk1T5xnQxJMqt6kMNE3kx1S38ijWq26DzLavlF9OFmW5W7xSA+jdrsthBjthqBt7Lrdrrubkrw1p1p2UH55K8Tj42N3mzw5nWSmXZRs23Z3ldLVb4oqp1yn+j2qDGH6121lKctEZdM2k2r7LMtyt9SkusjoUpraPnnnqyDdmxJXP0F69jvGpD2y/mTCzoVcVtTtNLNurGkr3aB73S8PG+vomOibyRapG2u1F6D2rKlHox5DPadRbgja9lAuN+iBaZrfb3vPOGkmmJQVV4Yw/asvV1HK1vUCyUiSQYraPt2WqSbE1U8cPcfNE3YuhLjYVzvqLl1ZN9YmHiQ/j4Tfi0+Qh8KEKJ45VVbi8PDQNYq0E5csY5inJkhfJt4lP6+mn75H8WAx6ZK6sabeqm4PayG8vRXTGzEqtJWdyQMzTv48G+u4+jcpm869DBkb+aEWt31RyIOxDjsXQceGkXVjLUS4B0mXR5dm4qEwIYpnTicrGV/ywsjDQXQP0P9RPXAmxjrMqxmk7zgeLCZdUjfWnU7HcxGoPYKwB8+oD+larSYsy3LdtGE3ftT8ful5MdZx9T9K2UkZtyjkwVibtnFWjLUuzSSPiYfChKieOVNZ5Wdgks8JFXrRIFSvZlDdcT1YTHqkbqwJekvzu1g7nY72uFEuXLpp1ck/fmVHzR+UnjdjHVX/JmXTS5o6GQoInjtg2r4o5MlY+52LoGPDmCVjbeqhMMXU06Z+13mW4t63cQjzaqZZN5M8QcY6kaVbhUIBg8EAy8vL2NnZQbvdxubmpvt7rVYDABwcHLjrRylS1qisra0BgPGm81HzTwNh+q9WqwAQa23v+++/DwD44osv3DQq59q1a/GFnlKi3AvlcnmssuUJWk4lhBj6RGVvbw8fffQRLMuKfKxt2wCARqMBADg9PQVwcU+lzc2bN2FZFtbW1jA/P5/IM5XJKKr5jjvBrFwuu71Veksl5Nmz8ofyy72zqJNq6FjHcTxu7W6366mXen6m+WXkdN0MZ3npl5oWtR2kA7WsUWQI079uNriuHBqLVtNo9jel1ev1oXEw6gFQj5ImoQEXy8F0uhfiYgJN0HhkXP2Y6FnX7rD26M6pybkQYnpngwuRvNcizEMRRlRPm062ZrPpmegmT6w0bc+ohHk106ybSY6xzQanC1ZncB3HcSc/qOuA2+22a/CjGjn1WBqDkpfSyBenaX7d5Ci5HNO0uO3QPdBHkSFI/1QfTYCJWna32/XMqNW55BzHcY0XGSF6sKntVWfb0jlS02Xi6ieunsPaozunJudCiAvDP43rrJMy1nS9lctlz8tZnBn0UYyz+r3ZbIaO/aZpMAHv2DNdc+Oom0mesY1ZM/mlWq1GftCNmyBjPU2Uy+VY5yIPxjrMg2Sax8RDEUUeE8+cTg6/lzzyFpl6anSYzAanFxY/r2aQLpnskfqYNZN/SqUSnj17hpOTk0mLouXk5AS3b9+etBipc3p6itPTU5RKpUmLkgoUg/3BgwdYX1/H4uKi+xv9b5JnYWEBjuO44/q2bcNxnMhzUaiuvb09zM/Po1wuw7Zt/OEPfxiqVydHu93WjnXv7u6iUql4jpmfn/f8lcsZhRs3buDJkycoFAp48uQJbt26NdQ+nS5nYUe9qUI139yznl1o7WrUtappc3h4OPLYZB7odDracK6mIAc962mj0+loe/PUS2eYKOSuZ10oFIw+WSdv7VhYWMDBwQGePn06aVE8/PCHP8TS0tKkxUidVquFu3fvYmFhYdKiMAY0Gg0sLS1pe/OLi4uo1+sTkIqZVr4x69jKvwAAEcFJREFUaQF0iBjLL7JIHtsxNzfncaMx44P1ni8ePXqE3//+9/jRj37kMdhnZ2d49uwZrl+/PkHpmGkjkz1rhmGYuIzLo3VwcIBXXnkFn3zyiVvm1tYWvvzySzbUTOJksmfNMAwTl3F5tObm5rC6uorV1VXs7OyMpU5mduGeNcMwDMNknNSNda/XQ6PRyO0ygTjyb21tYWtrK/bx0w6F19ze3o4V4pRhGGbWSN0NXqlUsLu7m3Y1qTGq/Hlvv47BYID5+flY7sZer4dKpYKbN2/i//7v/7C+vo79/X2eAZ0D/vjHP+LFixd4/PjxpEVhmKnkxYsX+OMf/6j/UV3MlcY6a+Q8Ys6o8ue9/SoUSzwqFEdcDmt6fHwsLMvi7foSACmvs/7Od74TOVwrf/jDn2if73znO7rbL5vrrJnsMhgMsLe3F+vY/f19LC8vY2VlxU1bWVnBpUuXsL+/n5SITEp885vfRKVS0e50xR/+8Gf0T6VSwTe/+U3t/ZeYsd7e3kahUMDe3h56vZ7v0ohWq4VCoYCNjQ30ej3Pb4PBAI1Gw10GQWUBwPn5uWfZxfb29lAa1UmyFAoFnJ+fR2qHLEOxWMTZ2Zk2z97enme5BskZNEYty0Vt0P0WVWYAbp3FYhEnJyeungFol6v4LWEJOgfAy63/aHtC9XgaiybdHR0deX7b3NzEm2++OST7tWvXsLm5OXQ9MAzDMF8jFOK4wavVqhtyr9/vuzsKEfi6e0/uTwrFp26jaFmWqNVqQoiL0Jeyi1TeGUs9DvAGxVe/m2JZlrBt262TttCT66St6LrdriuTui2irv1CXOyopLadjo0jc7lc9hx7eHjoqVMXvD9Il0HnQG0PQXlpe0CSgUKX6rbhVGWJuiUk4wXgcKMMk2fGtkUmQcZB/l0tU02jh7tcDhk2eX9Y2hpPjl9NBlJ+GYizaxEZFDkOtbxDDkFbNvq1Jew7bSWqbhOq7oNrgmoUTWXQpZmeA11Z9FKjlk+7BqkvcDKk46zv+pV12FgzTL5JPTa4bdtYXFxEo9HAYDDAwsIChBCRynjy5AkAeGYFX7lyBcDLsH7EG2+8AQBu/OqzszNcunQJAPDLX/4SANDpdPD3f//3kdvxr//6rwDgiUM9Nzc3lO/evXvY2dnB+fm5x5VtytWrVwEA//Zv/+amPX36FH/3d38XuSzS2/LycuRj/coKOwc66HfVvX7//n3PXx2k483NzZiSMwzDTDmq+Y7Ts+50Oh73r9pDgkGvTpfHL53c0P1+X9TrddFutz1pcXcuiiJDrVYTlmV59sCN0jZZXpI5DqYyJ3kOTMoyldP0dyYccM+aYXJN6j3rpaUlNJtNtNtt2LaNzc3NyD1O2hNWN8nItm3P93feeQcA8Ktf/QqPHj3C8vKym/bZZ58BQKrrdhuNBj788EM8fPgw9m5Q1KbPPvsMz58/xwcffJCkiLGIcg780E3IYxiGYUYjEWNdKBQwGAywvLyMnZ0dtNvtyC7N999/HwDwxRdfuGkU3eratWuevD/4wQ8AAG+99ZZrYChtbW3NdZVHpVarAQBOT08D862trQFA5I3uZZaXl2HbNtbW1rC3t+dZzhSFarUKIFxmE6KcAxXS3cHBgXsMzQ6X5QyKWFYul2NKzjAMM90ktnSrWq26S46+9a1vuQ9nuZdG/8sPbEp7++23YVkWPv74Yzfts88+g23b+OEPf+ipa25uzi3/+9//vptGD/u/+Zu/idWGH/3oRwBehgultsjLjzY2NgBc9EDPz889PclerzfUXl37CepNU3lxoGNlmWlplQz1jEnek5MT9zdql+k5kHvgZIzfffddAC/Hpufn51EoFLC4uOgaefJA6Iw1yU3nkmGY0aB7c5bCHcthnidJamGUVcf4KLPBaZazPGYNJTqLX5oQL2eR02xvfD0D2S+yVbvdFpZledJo5vIoOI7jjifT2DctSaJx8Ha77c507na77uxweTmU30eFxr1HQR6zr9Vq2hnsjuO48wpoiZTaLiHMzoHafrkOmvVN+pDLhTRjX4bOW5x5BswF4DFrD7r7bdTnQ9bQtafb7QrbtkWn03GfC9PWbh3lctldfZIk9Dw1hWxTnOdZ6ku3mHiMMrEsjCzeoNVqVbs8q1wu87KtBGBjfUHWrv000LVRF9I3i8+CPBEnvHLcMMqpTzBj4vH48ePQseBpolQq4dmzZx4X/OnpKU5PT1EqlSYoGcNMB7qQvkx84oZXTiOMMhvrMbO1teUJK6qOxydB0Dj5JJmbm8P+/j4+/vhjnJ6e4uzsDLu7u9jf39euZ2emB11YYPU3Xd649QT9H1avqRyjyOlXhp+MfnLK/weF9CXihnsOk0WWodVqoVgsYjAYYGNjI9I4sjrGLstLc1tIRjlNPc6vnGKx6B5j0p644ZWBFMIoq33taXODI2QMGWN2EdF4MIX0TEPmSbXNlH6/77rEeZw6OZBRN7juGlTT6LucPsq1a1Knrl5TOfzkjyuj7n4Nq0P97hfSl8odNdyzSdhiOd7G8fGxO5/GFPl4isooh2imNoSFeVbl0B1jGoZZ9xwNC68slxUljDKPWTPMDJBFY+33LNEZpSQMoGmdfvXqHswmco1qrHVyBOXX/e4X0tevTXLaKKGG/Yxb3G1vTeoIqneUY0zzhIVXFiJeGGUes2YYZuwUCgXjsMNq3ijHjiKLLj2qHHFlFUJ43KpBZZjUERTSN4xRQg37Mc1DW2HhlYHkwyh/I5FSGIZhRiBJw5xmvbLRpAf0KLKTwfZ7QUiiDhN2d3eH0sjY6OI2zDqkk3Fet9yzZhhmrCTdax5X2XIdVE9SdflNLNPVkUYbkwg1PIuMM7xyLox1nqLw5ElWHVmJAgRE12VSug8rh2aBphapiJkIpkYwCSMd5v6OU4dJSF8/Rgk1PIuEhVeWSSyMsjqKncUJZnGi8ESNOpMUeYoYpNNRWlGA4hBVl0npPqgcOTrUKJGK0gAZm2Cm05+aFpQnznmUj1HL0f1mIlvU40xkDNJDWB1+/+tmg8sznuk6lSMcymk0+5vS6vX60Exuujco6iJNQgMuIj763TsU4VKeMa0iH6+bhU6yqWlB36kcXbvD2iPExcxyitKp1i9/ZN3P7GzwqA/hOFFnkiIvxnqSOjIlqi6T0r2uHF10qLiRitIga8ZaiPBlhH5pcc+hrq4w4+iXFiRzUJtMZPST1aQOv3RdSF9dOX5lm4QaDgtbLJerhoOmsMxqeli7TdLCPn7lmIRhjhNeWYh4YZSDjPVUTjCLG3VmlmAdRUcXHUqOVHTr1q0JSpdNRIgrV/d72DFJlGeS5ifHKPLJxweVE+e3hYUFVKtV/Md//Id7jUbR78LCAq5fv47r16/71n358mU0m01Pmvw9SO579+4BQOAw1SjnLwzdMWHtAV7ukOh37L1799x2qfzyl79EtVpNbLvmkceso0a1AYC9vT03Ao1ugF6OpFMsFn3zUDmFQgFbW1vu5IhRos6YEFR31Px+EX/iRvIxRacj0yhApjIkoWsVU93LdfvpJ4p8QdGhEo9UxDAx0YX0zRInJye4ffv2pMVInVTCKKt97ahucJMoMPQ/JBcNbWIBabyAsCxL2LbtumBoAbpcBx3b7XaHItPIdaqyhkWdMSFq3UH5/SL+xI3kEwVVzqAoQFFlSErXcc87yUZy0DGm8qn1+kWHktsfZWwqDYDsucGZ8UPXdtR7LW0ODw9H3mEwD9BuZ5ncdUtnGNU0XR4aC5AjvNBDUT6pui0fafwjSn0mUWdMiFq3aX51fMhEr35pJsQ9byZpSek6ifNO4RXlEK9h8unq9dNxnEhFaTDNxlp+4Q/6TJqsyEkhfZnxM0oY5cwaa1069ZxM6hDiZa+GZhmG1Sf3FJO4eaLUHSd/no11UrpOS5dh8pmWa/r7OJhmY80ws0Cuwo3qIun4sbe3h48++shd0B+GHHVG/UQlat1R8+edJHWtkoQu05SPYRgmaTIxGzxOhJxGo4EPP/wQjuPg8uXLkY49OzvD0tJS5Drj1j2KrHlnVF2rjKJL3XWWtHxMtqGAP34zeNOg1+vh4OAAt27dmkj9k2J7exulUmmqY4SPk4n2rGmW9zvvvOOmUWSY09PTwGPX1tYAINIDO0rUmSTrjiNr3klK1ypxdEnX0htvvBFbPpPoUIlFKmJcBoNB7P2iRzk2KXq9HiqVSqoetSy0U8fVq1exvr7OqySSQnWMxxmzNokCQ99p9m2/3xflcnlogTzNrLUsy515SzN15fJozNFxHHcCEXAx4zdu1BkTgurWRdsxzS8TN5JPnHaQjkyiAJnKkISuo+pS/v3w8NAtw7Ksock2QfLp6uXZ4JMZsx4lcM+kg/7oguikwaTbGUSWggblgdQnmJlEgaGHH4VoBF7OztWdRMdx3BcAmgIfFlWGZgnTwzRu1BkTgupWH/5R8ssvLrpyTNPitkNnvEaRYVRdR9UlcXh46F5jtm27hlvFTz5dvbroUEScSEVpMG3GmoxdHEM0yrFJUa1WUw/dm4V2hmHbNs9MNyQT4UbjGBOGyRLValX70CmXy5l4GGXVWNOs/Vqt5r70yJBnh15Y6eWKXqTivIzqju12u6Jer7svxep36qHKL260xE/3suknN/0me3h09fnVL3sVw3Top6N+v+8JHSp3WqLU2+/3PXEu5OWPJnoQ4sIzOumX2TzAxpphEkDn1iRPURbcfFk01tVq1TUANPQlPweiBqeJgnrsOIP+6IZNguoPqitMhzodRQnE5Fcv5ZW9A7Zte76bBD/KyjBRHpi4sR5lXJVhsoQcHWqUSEVpkEVjrd7zas86anCaqHXryg4zdCZpYXL7BdGJU3+YDnVlxAke5NdGuW4agzbVgxDZCRqUByZurOO6ssaJKqPfJ+vkoR15kDEIig41SqSiNMiisaYenm4HJyGiB6eJQprGOq7cceoP02GQjqIED/JrYxCmwY+yfk9nhYkHRRE5CDqhyuj3yTp5aEceZAxibm4Ot27dwq1btxLbUWdauXnzJizLwtraGubn54eWxuU1OM045Q7ToR+jBg+iNprkydv5yyOZi2DGMMz0sLS0hGaziXa7Ddu2sbm5qTU2up318sA45DbVoQwFD3r48GHsoD9k5MNiXgD5PX95go01wzCpUSgUMBgMsLy8jJ2dHbTbbWxubrq/pxU8J23C5DYJomNKmA51JBGIiYz17u6u247z83NsbGy4eaKcPw4aNBq+4Ubv3LkzRjEYhplWqtUqrl+/jsuXL+Nb3/qWa8gA4N1338WHH36I+/fv4/79+2664zgAXhqMVqvlCdlpinrs+vq6+5saVWswGGBubs6T3uv1sLCwoE0Lk5t6s1SuWqdf/bJxp7qAYB3qdERp5+fn+MMf/hCr3nfffRetVgu7u7vung22bePmzZtu3jA9AHD3kv/+978PJj5Dxnpubg5XrlzB48ePJyEPwzAxuXLlSibjMN+4cQMHBwfY3NxEtVr1GNyFhQU4joO9vT3cv38ftm3jJz/5idsjvHfvHlqtFh48eIAbN25Eqlc9dnFx0f1N/h8A5ufnIYQYyuOXFib33/7t3wIA/vd//9dNM6l/fn5+qK4wHep0RGl7e3u4ceMGyuUyfve73+EPf/gDvv3tbxvVu7CwgP39fTx48AD3799HuVzG+vq6x60epgfSgawTJh4FwTMBGIYx4LXXXsN7773HXjdDyBUcxRswjWxtbWF+fn7m9WDCnTt38PjxY3z++efqT3d5zJphGCYFSqUSnj17hpOTk0mLMjFOT09xenqKUqk0aVFyDxtrhmGYFJibm8P+/j4+/vhjoxnV08bZ2Rl2d3exv7+fyeGZvMHGmmGY3FAoFIw+WWFhYQEHBwd4+vTppEUZO61WC3fv3uVYBAnhOxucYRgma+Rxig0F0Zk1ZrHNacI9a4ZhGIbJONyzZhjGmBcvXvCyToZJiRcvXvj+xsaaYRhjfvGLX+AXv/jFpMVgmKnlypUr2nQ21gzDGKFZ+8kwzJjgMWuGYRiGyThsrBmGYRgm47CxZhiGYZiMw8aaYRiGYTLO/weM8fzHrtog5wAAAABJRU5ErkJggg==;" vertex="1" parent="1">
          <mxGeometry x="1060" y="1140" width="491" height="270" as="geometry" />
        </mxCell>
        <mxCell id="s5Hh8r9x0Z7aiqoJIuo2-35" value="" style="endArrow=diamondThin;endFill=1;endSize=24;html=1;rounded=0;exitX=0.75;exitY=1;exitDx=0;exitDy=0;entryX=0;entryY=0.75;entryDx=0;entryDy=0;" edge="1" parent="1" source="s5Hh8r9x0Z7aiqoJIuo2-4" target="s5Hh8r9x0Z7aiqoJIuo2-5">
          <mxGeometry width="160" relative="1" as="geometry">
            <mxPoint x="1070" y="390" as="sourcePoint" />
            <mxPoint x="1230" y="390" as="targetPoint" />
          </mxGeometry>
        </mxCell>
        <mxCell id="s5Hh8r9x0Z7aiqoJIuo2-36" value="" style="endArrow=diamondThin;endFill=1;endSize=24;html=1;rounded=0;exitX=1;exitY=0.5;exitDx=0;exitDy=0;entryX=0.003;entryY=0.856;entryDx=0;entryDy=0;entryPerimeter=0;" edge="1" parent="1" source="s5Hh8r9x0Z7aiqoJIuo2-2" target="s5Hh8r9x0Z7aiqoJIuo2-5">
          <mxGeometry width="160" relative="1" as="geometry">
            <mxPoint x="716" y="128" as="sourcePoint" />
            <mxPoint x="800" y="559" as="targetPoint" />
          </mxGeometry>
        </mxCell>
        <mxCell id="s5Hh8r9x0Z7aiqoJIuo2-37" value="" style="endArrow=diamondThin;endFill=1;endSize=24;html=1;rounded=0;exitX=1;exitY=0.5;exitDx=0;exitDy=0;entryX=0.105;entryY=1.001;entryDx=0;entryDy=0;entryPerimeter=0;" edge="1" parent="1" source="s5Hh8r9x0Z7aiqoJIuo2-3" target="s5Hh8r9x0Z7aiqoJIuo2-5">
          <mxGeometry width="160" relative="1" as="geometry">
            <mxPoint x="474" y="376" as="sourcePoint" />
            <mxPoint x="801" y="601" as="targetPoint" />
          </mxGeometry>
        </mxCell>
        <mxCell id="s5Hh8r9x0Z7aiqoJIuo2-38" value="" style="endArrow=diamondThin;endFill=1;endSize=24;html=1;rounded=0;exitX=0;exitY=0.25;exitDx=0;exitDy=0;entryX=0.25;entryY=1;entryDx=0;entryDy=0;" edge="1" parent="1" source="s5Hh8r9x0Z7aiqoJIuo2-7" target="s5Hh8r9x0Z7aiqoJIuo2-5">
          <mxGeometry width="160" relative="1" as="geometry">
            <mxPoint x="598" y="914" as="sourcePoint" />
            <mxPoint x="846" y="658" as="targetPoint" />
          </mxGeometry>
        </mxCell>
        <mxCell id="s5Hh8r9x0Z7aiqoJIuo2-39" value="" style="endArrow=diamondThin;endFill=1;endSize=24;html=1;rounded=0;exitX=0.25;exitY=1;exitDx=0;exitDy=0;entryX=0.5;entryY=1;entryDx=0;entryDy=0;" edge="1" parent="1" source="s5Hh8r9x0Z7aiqoJIuo2-6" target="s5Hh8r9x0Z7aiqoJIuo2-5">
          <mxGeometry width="160" relative="1" as="geometry">
            <mxPoint x="1410" y="888" as="sourcePoint" />
            <mxPoint x="1160" y="680" as="targetPoint" />
          </mxGeometry>
        </mxCell>
        <mxCell id="s5Hh8r9x0Z7aiqoJIuo2-40" value="" style="endArrow=diamondThin;endFill=1;endSize=24;html=1;rounded=0;exitX=0.25;exitY=1;exitDx=0;exitDy=0;entryX=0.25;entryY=0;entryDx=0;entryDy=0;" edge="1" parent="1" source="s5Hh8r9x0Z7aiqoJIuo2-6" target="s5Hh8r9x0Z7aiqoJIuo2-7">
          <mxGeometry width="160" relative="1" as="geometry">
            <mxPoint x="1070" y="1218" as="sourcePoint" />
            <mxPoint x="910" y="658" as="targetPoint" />
          </mxGeometry>
        </mxCell>
      </root>
    </mxGraphModel>
  </diagram>
</mxfile>
